<?xml version="1.0" encoding="utf-8"?>
<!-- Generator: Adobe Illustrator 25.0.1, SVG Export Plug-In . SVG Version: 6.00 Build 0)  -->
<svg version="1.1" xmlns="http://www.w3.org/2000/svg" xmlns:xlink="http://www.w3.org/1999/xlink" x="0px" y="0px"
	 viewBox="0 0 1334 750" style="enable-background:new 0 0 1334 750;" xml:space="preserve">
<style type="text/css">
	.st0{display:none;}
	.st1{display:inline;}
	.st2{fill:#FFFFFF;}
	.st3{fill:#21409A;}
	.st4{fill:#06A64F;}
	.st5{fill:#010101;}
	.st6{font-family:'ArialMT';}
	.st7{font-size:91.5274px;}
</style>
<g id="dog">
	<g id="Layer_5" class="st0">
		<g class="st1">
			
				<ellipse transform="matrix(0.7071 -0.7071 0.7071 0.7071 19.9447 603.9942)" class="st2" cx="739.06" cy="277.92" rx="197.97" ry="197.97"/>
			<path class="st3" d="M739.06,89.95c103.82,0,187.97,84.16,187.97,187.97S842.87,465.9,739.06,465.9s-187.97-84.16-187.97-187.97
				S635.24,89.95,739.06,89.95 M739.06,69.95c-28.07,0-55.31,5.5-80.96,16.35c-24.77,10.48-47.01,25.47-66.1,44.56
				s-34.09,41.33-44.56,66.1c-10.85,25.65-16.35,52.89-16.35,80.96s5.5,55.31,16.35,80.96c10.48,24.77,25.47,47.01,44.56,66.1
				c19.09,19.09,41.33,34.09,66.1,44.56c25.65,10.85,52.89,16.35,80.96,16.35s55.31-5.5,80.96-16.35
				c24.77-10.48,47.01-25.47,66.1-44.56c19.09-19.09,34.09-41.33,44.56-66.1c10.85-25.65,16.35-52.89,16.35-80.96
				s-5.5-55.31-16.35-80.96c-10.48-24.77-25.47-47.01-44.56-66.1s-41.33-34.09-66.1-44.56C794.36,75.45,767.13,69.95,739.06,69.95
				L739.06,69.95z"/>
		</g>
	</g>
	<path class="st4" d="M831.33,220.47c16.95-24.99,37.94-47.01,62.02-65.15c2.74,7.92,5.26,15.24,7.43,21.53
		c7.87,22.85-4.49,47.18-27.52,54.32C858.04,235.89,842.14,231.41,831.33,220.47z"/>
	<path class="st3" d="M1329.82,373.65c0,46.81-11.77,90.87-32.51,129.39c-46.13,85.71-136.68,143.96-240.83,143.96
		c-6.69,0-13.32-0.24-19.89-0.71C894.9,636.09,783.12,517.93,783.12,373.65c0-53.38,15.3-103.18,41.76-145.27
		c13.07,12.78,31.99,17.94,50.12,12.32c27.87-8.65,42.82-38.08,33.3-65.73c-2.57-7.43-5.52-15.99-8.69-25.19
		c44.4-31.17,98.5-49.47,156.86-49.47C1207.43,100.31,1329.82,222.68,1329.82,373.65z"/>
	<path class="st2" d="M1284.7,493.94c0,0,6.64,4.28,13.79,9.24c-46.13,85.71-136.68,143.96-240.83,143.96
		c-6.69,0-13.32-0.24-19.89-0.71c13.3-14.7,1.3-56.87-13.3-29.98c0,0-23.77-38.2-23.2-90.96c1.42-70.87-0.29-89.55-15.47-110.91
		c-23.63-33.26-63.92-64.89-70.08-69.59c-6.16-4.71-8.03-11.27-8.7-16.31c-0.8-6.13-3.56-22.75-3.98-26.46
		c-0.29-2.53,3.26-6.53,6.88-6.53c3.63,0,38.05,7.25,40.23,7.25c2.17,0,3.16-2.58,3.98-4.71c2.28-5.87,4.22-19.32,2.54-26.82
		c-3.3-14.77-6.16-44.95-3.98-60.89c2.18-15.95,2.66-24.29,4.99-29.36c2.33-5.07,12.22-18.88,16.17-21.46
		c5.67-3.69,14.73-5.57,21.18-1.2c6.3,4.28,17.79,20.15,20,23.02c2.88,3.72,41.68,53.64,46.76,56.54
		c5.07,2.9,11.95,11.24,26.82,11.24c14.86,0,27.83-3.91,39.51,3.26c15.95,9.79,69.05,77.31,75.38,80.83
		c12.12,6.72,71.07,35.87,91.29,48.02c15.24,9.14,8.83,20.4-0.67,27.73c-22.67,17.46-43.99,19.1-52.92,19.93
		c-1.45,0.14,24.52,14.3,30.63,27.91l-11.78-1.81c0,0,26.89,20.03,34.43,37.7L1284.7,493.94z"/>
	<path d="M1197.41,398.9c0.69-3.15,4.13-4.55,10.29-3.5c4.99,0.85,8.81,3.08,1.01-3.43c-3.67-3.06,9.92-3.49,8.96-4
		c-3.74-1.98-22.38-11.77-25.03-13.28c-13.53-7.73-4.11-25.61,10.87-23.68c10.57,1.36,70.56,32.86,79.26,36.97
		c8.7,4.11,12.83,11.02,0,18.61c-19.09,11.3-46.13,11.04-65.24,5.8C1199.81,407.54,1195.93,405.6,1197.41,398.9z"/>
	<path d="M1082.94,258.23c6.57,0.74,10.23,0.17,14.74,0c2.48-0.09,4.25,3.52,4.94,4.44c1.42,1.93,7.95,14.4,9,16.82
		c1.05,2.42,0.08,4.59-4.27,1.93c-4.35-2.66-20.23-12.58-22.47-14.59C1082.21,264.45,1082.94,258.23,1082.94,258.23z"/>
	<path d="M986.22,309.45c-10.62-1.91-20.37-3.99-27.43-5.26c-0.71-0.13,7.54-13.97,3.91-35.41c-1.86-11.02-3.78-23.61-4.4-38.1
		c-0.58-13.52,2-22.55,2.72-23.27c0.72-0.72,8.06,2.3,9.7,8.53c1.24,4.73,5.07,27.55,9.18,36.49s9.38,14.98,10.83,19.33
		C992.18,276.11,989.24,310,986.22,309.45z"/>
	<path d="M963.32,186.58c0.63-4.26,9.29-16.23,11.61-19.08c3.92-4.83,14.66-6.76,18.85-2.01c6.48,7.33,12.95,15.28,17.18,20.97
		c1.31,1.76-14.41,4.2-20.66,2.19c-3.69-1.19-7.52-5.16-12.23-5.53c-2.54-0.2-7.18,0.49-10.58,4.81
		C966.18,189.6,962.48,192.23,963.32,186.58z"/>
	<circle cx="987.09" cy="200.48" r="2.3"/>
	<circle cx="997.33" cy="198.18" r="2.3"/>
	<circle cx="995.03" cy="207.41" r="2.3"/>
	<g>
		<g>
			<g>
				<path d="M922.88,56.27c-18.91-2.79-37.85-5.53-56.79-8.27c-1.29-3.62-2.42-6.67-4.18-10.63c-0.35-0.8-0.74-1.65-1.15-2.56
					c-1.23-2.65-8.49,0.37-6.94,5.59c1.1,3.68,23.78,69.32,39.53,114.92c2.73,7.92,5.26,15.25,7.43,21.53
					c7.86,22.86-4.49,47.18-27.54,54.32c-15.22,4.72-31.11,0.25-41.92-10.7c-3.78-3.82-6.96-8.44-9.25-13.73
					c-8.15-18.79-0.23-42.09,17.84-52.33c11.34-6.44,23.18-7.4,35.49-3.16c0.47,0.18,0.98,0.34,1.93,0.63
					c-0.08-0.2-1.23-3.54-3.16-9.13c-8.32-24.09-31.07-89.98-43.39-125.77c-1.75-4.72,0.25-7.92,2.91-9.45
					c1.43-0.8,3.05-1.13,4.41-0.95c10.14,1.35,49.98,6.31,75.05,9.41c3.66,0.51,6.83,1.35,8.61,6.45c0.55,1.62,1.12,3.26,1.69,4.89
					c2.21,6.37,4.4,12.76,6.6,19.12C931.63,50.98,929.32,57.13,922.88,56.27z"/>
			</g>
		</g>
	</g>
	<path d="M1278.73,534.57c-45.55,62.52-116.97,104.99-198.53,111.64c6.46-26.61,2.64-54.67-29.14-94.85
		c-6.57-8.3,9.69,5.89,34.69,8.18c43.45,3.99-19.25-65.6-19.25-65.6c67.17,14.61,45.1-30.6,45.1-30.6
		c30.78,9.36,33.05,35.87,35.35,28.06c9.43-31.9-29.72-67.93-29.72-67.93c23.37,3.09,30.61,21.91,29.89,15.15
		c-2.79-26.03-31.81-52.82-31.81-52.82s24.41-32.14,15.35-79.44c-3.82-19.9-13.84-43.57-16.02-47.99
		c-1.14-2.32,12.7,1.72,17.14,6.83c10.53,12.1,49.45,55.49,53.62,61.1c3.72,5.01-10.28,5.01-19.66,22.34
		c-13.89,25.66-4.05,47.29,2.01,53.97c5.52,6.09-4.82,0.68-11.91-7.45c0.81,4.61,2.28,9.28,4.54,13.96
		c9.06,18.73,26.42,25.07,41.2,31.05c0,0-21.84,8.72-15.46,9.9c27.34,5.09,47.12,11.36,61.13,28.52c0,0-47.55,5.36-23.46,14.84
		C1250.21,503.83,1266.08,515.71,1278.73,534.57z"/>
	<text transform="matrix(1 0 0 1 1212.8525 674.2256)" class="st5 st6 st7">™</text>
</g>
<g id="k9_karaoke">
	<g>
		<path class="st3" d="M150.61,504.78c-8.9,0-17.15-2.95-23.84-8.52c-6.54-5.44-14.26-15.64-13.96-33.29l2.71-156.17
			c-0.14-3.25-0.52-6.46-1.14-9.55c-1.11-5.52-1.4-10.88-0.84-15.92c0.76-6.79,3.79-13.08,8.75-18.21
			c4.79-4.96,11.83-8.47,22.15-11.04l14.28-3.56c3.75-0.93,7.44-1.41,10.99-1.41c8.69,0,16.82,2.88,23.52,8.32
			c5.09,4.14,11.03,11.2,13.55,22.65l31.42-36.03c4.41-5.09,9.35-9.26,14.66-12.35c5.37-3.12,10.93-5.23,16.56-6.31
			c2.68-0.51,5.38-0.77,8.03-0.77c3.38,0,6.76,0.42,10.03,1.25c6.38,1.63,12.01,4.86,16.75,9.6c4.63,4.66,7.9,10.23,9.74,16.6
			c1.67,5.75,2.22,11.81,1.63,18c-0.54,5.83-2.05,11.7-4.49,17.45c-2.46,5.79-5.92,11.29-10.3,16.33l-32.04,36.63l37.71,58.02
			l0.09,0.15c3.3,5.35,5.34,11.31,6.07,17.73c0.66,5.86,0.33,11.84-0.97,17.78c-1.31,5.94-3.65,11.75-6.98,17.27
			c-3.27,5.43-7.4,10.35-12.29,14.61c-5.13,4.73-10.66,8.27-16.43,10.53c-5.55,2.17-11.08,3.28-16.43,3.28
			c-0.44,0-0.88-0.01-1.31-0.02c-6.07-0.2-11.85-1.76-17.17-4.64c-5.58-3.02-10.21-7.43-13.73-13.12l-21.73-34.69l-0.39,22.52
			c-0.22,12.75-4.51,24.53-12.74,35.02c-8.28,10.54-18.51,17.39-30.42,20.36C158.15,504.29,154.29,504.78,150.61,504.78z"/>
		<path class="st3" d="M277.46,237.63c2.15,0,4.27,0.26,6.35,0.79c3.73,0.95,7.01,2.84,9.82,5.66c2.81,2.83,4.79,6.21,5.94,10.16
			c1.14,3.95,1.52,8.08,1.11,12.42c-0.4,4.33-1.53,8.67-3.37,13.01c-1.84,4.34-4.44,8.46-7.82,12.35l-39.47,45.12l43.8,67.38
			c2.14,3.47,3.45,7.32,3.93,11.54c0.48,4.23,0.23,8.53-0.72,12.88c-0.96,4.35-2.68,8.6-5.18,12.75c-2.5,4.15-5.65,7.88-9.45,11.18
			c-3.81,3.54-7.77,6.12-11.87,7.72c-3.81,1.49-7.47,2.25-10.96,2.25c-0.27,0-0.54,0-0.81-0.01c-3.75-0.12-7.26-1.07-10.53-2.84
			c-3.28-1.77-5.99-4.38-8.13-7.85l-37.65-60.1l-8.77,9.95l-2.69,2.79l-0.74,42.87c-0.16,9.45-3.34,18.12-9.54,26.02
			c-6.2,7.9-13.62,12.92-22.25,15.07c-2.76,0.69-5.37,1.03-7.84,1.03c-5.46,0-10.2-1.68-14.24-5.05c-5.87-4.89-8.72-12.05-8.56-21.5
			l2.71-156.59c-0.15-4.2-0.63-8.31-1.44-12.34c-0.81-4.03-1.02-7.8-0.63-11.31c0.39-3.51,1.93-6.65,4.63-9.44
			c2.69-2.79,7.69-5.09,15-6.91l14.28-3.56c2.57-0.64,5.02-0.96,7.36-0.96c5.3,0,9.99,1.66,14.07,4.97
			c5.87,4.77,8.94,11.94,9.22,21.51l-0.5,28.69l57.01-65.37c3.38-3.9,7.01-6.98,10.9-9.25c3.9-2.26,7.84-3.77,11.82-4.53
			C274.01,237.8,275.74,237.63,277.46,237.63 M277.46,207.63c-3.59,0-7.23,0.35-10.84,1.03c-7.29,1.39-14.45,4.1-21.26,8.05
			l-0.02,0.01l-0.02,0.01c-6.71,3.91-12.91,9.11-18.42,15.46l-16.65,19.09c-2.49-3.03-5.09-5.51-7.55-7.5
			c-9.41-7.64-20.81-11.68-32.98-11.68c-4.77,0-9.69,0.62-14.62,1.85l-14.28,3.56c-13.16,3.28-22.47,8.1-29.3,15.17
			c-7.29,7.54-11.74,16.86-12.87,26.94c-0.74,6.62-0.39,13.53,1.04,20.59c0.44,2.17,0.72,4.46,0.84,6.79l-2.7,155.69
			c-0.41,23.59,10.3,37.53,19.36,45.07c9.42,7.85,20.98,11.99,33.44,11.99c4.9,0,9.98-0.65,15.1-1.92
			c15.21-3.8,28.19-12.42,38.58-25.65c5.33-6.79,9.34-14.03,12-21.66c4.69,6.72,10.62,12.05,17.68,15.86
			c7.35,3.98,15.37,6.15,23.79,6.43c0.58,0.02,1.19,0.03,1.8,0.03c7.23,0,14.61-1.45,21.91-4.32c7.43-2.91,14.49-7.39,20.96-13.32
			c5.99-5.26,11.08-11.33,15.11-18.03c4.17-6.94,7.13-14.26,8.78-21.78c1.66-7.58,2.07-15.2,1.23-22.68
			c-0.98-8.66-3.75-16.71-8.22-23.95l-0.18-0.3l-0.19-0.29l-31.43-48.36l24.53-28.04l0.04-0.05l0.04-0.05
			c5.41-6.24,9.7-13.06,12.77-20.29c3.04-7.19,4.93-14.56,5.62-21.94c0.76-8.05,0.03-15.99-2.16-23.56
			c-2.55-8.8-7.08-16.53-13.48-22.96l-0.03-0.03l-0.03-0.03c-6.67-6.67-14.61-11.22-23.61-13.52l-0.03-0.01l-0.03-0.01
			C286.7,208.21,282.09,207.63,277.46,207.63L277.46,207.63z"/>
	</g>
	<g>
		<path class="st3" d="M317.7,387.6c-9.02,0-17.36-3.04-24.1-8.8c-6.47-5.52-14.12-15.73-13.82-32.99
			c0.22-12.71,4.43-24.45,12.51-34.9c8.17-10.56,18.48-17.45,30.65-20.49l66.75-16.65c3.83-0.95,7.6-1.44,11.21-1.44
			c8.8,0,17.02,2.91,23.79,8.4c6.68,5.43,14.57,15.62,14.26,33.37c-0.11,6.48-1.37,12.85-3.74,18.92
			c-2.25,5.75-5.25,11.08-8.94,15.84c-3.72,4.81-8.21,9.08-13.33,12.67c-5.4,3.79-11.17,6.46-17.15,7.96l-66.75,16.65
			C325.16,387.11,321.34,387.6,317.7,387.6z"/>
		<path class="st3" d="M400.9,287.34c5.42,0,10.19,1.68,14.34,5.05c5.98,4.86,8.88,12.02,8.72,21.46c-0.08,4.73-0.99,9.3-2.72,13.73
			c-1.73,4.43-4.01,8.47-6.82,12.11c-2.82,3.65-6.18,6.83-10.08,9.57c-3.91,2.74-7.96,4.63-12.17,5.68l-66.75,16.65
			c-2.71,0.68-5.28,1.01-7.71,1.01c-5.51,0-10.3-1.74-14.36-5.21c-5.87-5-8.72-12.11-8.56-21.32c0.16-9.45,3.29-18.11,9.38-25.98
			c6.09-7.87,13.56-12.9,22.41-15.11l66.75-16.65C395.97,287.67,398.5,287.34,400.9,287.34 M400.9,257.34
			c-4.84,0-9.83,0.63-14.84,1.88l-66.75,16.65c-15.51,3.87-28.59,12.57-38.88,25.86c-10.11,13.06-15.37,27.8-15.65,43.82
			c-0.4,23.12,10.16,37.05,19.08,44.67c9.5,8.1,21.2,12.38,33.84,12.38c4.87,0,9.9-0.64,14.98-1.91l66.75-16.65
			c7.77-1.94,15.22-5.38,22.14-10.23c6.35-4.46,11.94-9.76,16.58-15.77c4.56-5.89,8.27-12.47,11.04-19.55
			c3.02-7.74,4.63-15.86,4.77-24.13c0.41-23.78-10.54-37.74-19.79-45.26C424.67,261.41,413.18,257.34,400.9,257.34L400.9,257.34z"/>
	</g>
	<g>
		<path class="st3" d="M530.85,462.39c-3.1,0-6.22-0.35-9.26-1.04l-0.41-0.09l-0.41-0.12c-6.06-1.74-11.51-4.69-16.21-8.79
			c-4.97-4.32-8.62-9.66-10.86-15.85c-2.08-5.72-2.91-11.87-2.47-18.25c0.16-2.34,0.54-4.69,1.13-7.03
			c-2.74-0.75-5.41-1.66-8.03-2.7c-9.73-3.9-18.31-9.68-25.5-17.18c-7.12-7.41-12.69-16.37-16.56-26.63
			c-3.82-10.12-5.65-21.46-5.43-33.72c0.23-13.51,2.88-26.96,7.88-39.99c4.89-12.75,11.58-24.66,19.88-35.4
			c8.32-10.76,18.12-20.14,29.12-27.89c11.3-7.96,23.52-13.61,36.34-16.81c7.5-1.87,14.89-2.82,21.97-2.82
			c5.41,0,10.75,0.55,15.88,1.64c12.04,2.57,22.72,7.68,31.74,15.2c8.96,7.46,16.02,17.07,20.97,28.55
			c4.86,11.3,7.2,24.05,6.96,37.93c-0.13,7.53-1.02,15.27-2.66,23c-1.64,7.76-4.06,15.24-7.2,22.24l-37.18,89.52
			c-2.42,5.85-5.74,11.3-9.88,16.2c-4.15,4.91-8.83,9-13.93,12.17c-5.22,3.25-10.77,5.53-16.51,6.8
			C537.08,462.04,533.94,462.39,530.85,462.39z M534.1,307.54c-0.62,0.44-1.18,1.02-1.73,1.8c-1.25,1.75-1.9,3.49-2.06,5.53
			c0.63-0.44,1.18-1.02,1.73-1.8C533.27,311.35,533.93,309.57,534.1,307.54z"/>
		<path class="st3" d="M552.02,223.1c4.38,0,8.64,0.44,12.76,1.32c9.66,2.06,18.08,6.07,25.25,12.05
			c7.17,5.97,12.77,13.63,16.8,22.97c4.02,9.35,5.94,19.92,5.73,31.73c-0.11,6.61-0.89,13.33-2.33,20.16
			c-1.44,6.83-3.54,13.29-6.29,19.38l-37.27,89.72c-1.84,4.46-4.34,8.55-7.49,12.28c-3.15,3.72-6.62,6.76-10.41,9.12
			c-3.79,2.36-7.73,3.98-11.83,4.89c-2.06,0.45-4.09,0.68-6.11,0.68c-2,0-3.99-0.22-5.95-0.67c-3.95-1.13-7.45-3.03-10.48-5.67
			c-3.05-2.65-5.25-5.87-6.61-9.64c-1.37-3.78-1.91-7.81-1.61-12.12c0.29-4.31,1.8-8.69,4.52-13.12l4.42-7.1
			c-0.4,0.01-0.79,0.01-1.19,0.01c-8.6,0-16.6-1.49-24.03-4.47c-7.77-3.12-14.53-7.66-20.26-13.64
			c-5.74-5.98-10.19-13.16-13.35-21.54c-3.16-8.38-4.65-17.77-4.47-28.16c0.2-11.81,2.5-23.43,6.89-34.88
			c4.38-11.44,10.3-21.97,17.74-31.59c7.45-9.62,16.07-17.88,25.89-24.81c9.82-6.92,20.26-11.76,31.33-14.52
			C540.03,223.89,546.14,223.1,552.02,223.1 M527.48,330.92c1.37,0,2.83-0.19,4.39-0.58c5.09-1.27,9.22-4.12,12.38-8.56
			c3.16-4.43,4.79-9.36,4.89-14.8c0.09-5.43-1.38-9.59-4.41-12.48c-2.11-2.01-4.71-3.01-7.81-3.01c-1.36,0-2.82,0.19-4.38,0.58
			c-5.1,1.27-9.22,4.12-12.38,8.56c-3.17,4.44-4.79,9.37-4.89,14.8c-0.09,5.44,1.37,9.6,4.41,12.48
			C521.78,329.92,524.39,330.92,527.48,330.92 M552.02,193.1L552.02,193.1c-8.3,0-16.92,1.1-25.6,3.26
			c-14.62,3.65-28.53,10.07-41.35,19.1c-12.23,8.61-23.11,19.03-32.35,30.97c-9.2,11.89-16.61,25.09-22.03,39.21
			c-5.62,14.65-8.6,29.83-8.87,45.09c-0.25,14.16,1.91,27.37,6.4,39.27c4.59,12.16,11.24,22.84,19.78,31.73
			c8.01,8.35,17.46,14.94,28.1,19.6c-0.03,7.03,1.14,13.84,3.49,20.31c3.1,8.58,8.19,16.01,15.11,22.03
			c6.34,5.53,13.72,9.54,21.91,11.88l0.82,0.23l0.83,0.19c4.13,0.93,8.35,1.41,12.57,1.41c4.17,0,8.39-0.46,12.55-1.38l0.03-0.01
			l0.03-0.01c7.4-1.64,14.52-4.57,21.16-8.7c6.46-4.03,12.32-9.14,17.47-15.22c5.16-6.11,9.29-12.89,12.31-20.19l37.09-89.29
			c3.53-7.91,6.26-16.35,8.1-25.08c1.83-8.66,2.83-17.35,2.98-25.83c0.28-16.01-2.47-30.85-8.17-44.1
			c-5.91-13.7-14.37-25.18-25.16-34.17c-10.9-9.09-23.75-15.26-38.19-18.33C564.87,193.76,558.48,193.1,552.02,193.1L552.02,193.1z"
			/>
	</g>
	<g>
		<path class="st3" d="M78.85,730.85c-7.43,0-14.32-2.47-19.92-7.13c-5.43-4.52-11.85-12.94-11.6-27.38l1.96-113.1
			c-0.09-2.1-0.34-4.17-0.74-6.17c-0.89-4.42-1.11-8.73-0.66-12.81c0.66-5.84,3.24-11.23,7.48-15.61c4.04-4.18,9.77-7.08,18.03-9.14
			l10.35-2.58c3.04-0.76,6.06-1.14,8.96-1.14c7.26,0,14.05,2.41,19.66,6.96c3.03,2.46,6.41,6.15,8.85,11.48l18.04-20.69
			c3.49-4.02,7.42-7.34,11.66-9.81c4.31-2.5,8.78-4.2,13.31-5.06c2.2-0.42,4.42-0.63,6.59-0.63c2.8,0,5.59,0.35,8.29,1.04
			c5.36,1.37,10.07,4.07,14.04,8.04c3.86,3.88,6.57,8.52,8.1,13.8c1.35,4.67,1.8,9.58,1.33,14.58c-0.43,4.65-1.63,9.32-3.56,13.87
			c-1.95,4.6-4.69,8.95-8.15,12.94l-21.19,24.22l25.67,39.49l0.09,0.15c2.71,4.4,4.39,9.29,4.99,14.55
			c0.53,4.7,0.27,9.49-0.77,14.24c-1.05,4.75-2.91,9.38-5.55,13.77c-2.58,4.29-5.84,8.17-9.69,11.54c-4.09,3.76-8.52,6.59-13.16,8.4
			c-4.5,1.76-9.01,2.66-13.41,2.66c-0.37,0-0.73-0.01-1.1-0.02c-5.04-0.17-9.85-1.46-14.27-3.86c-4.68-2.53-8.55-6.21-11.48-10.95
			l-8.37-13.37l-0.04,2.43c-0.18,10.16-3.58,19.54-10.12,27.87c-6.59,8.38-14.76,13.84-24.3,16.22
			C84.99,730.45,81.86,730.85,78.85,730.85z"/>
		<path class="st3" d="M170.82,533.03c1.56,0,3.09,0.19,4.6,0.57c2.7,0.69,5.08,2.06,7.12,4.1c2.04,2.05,3.48,4.5,4.31,7.37
			c0.83,2.86,1.1,5.86,0.8,9.01c-0.29,3.14-1.11,6.29-2.44,9.43c-1.33,3.15-3.22,6.13-5.67,8.96l-28.61,32.71l31.75,48.85
			c1.55,2.51,2.5,5.3,2.85,8.37c0.34,3.07,0.17,6.18-0.52,9.34c-0.69,3.16-1.95,6.24-3.76,9.25c-1.81,3.01-4.1,5.71-6.85,8.1
			c-2.76,2.57-5.63,4.44-8.61,5.6c-2.76,1.08-5.42,1.63-7.95,1.63c-0.2,0-0.39,0-0.59-0.01c-2.72-0.09-5.26-0.77-7.64-2.06
			c-2.38-1.28-4.34-3.18-5.89-5.69L116.44,645l-6.36,7.21l-1.95,2.02l-0.54,31.08c-0.12,6.85-2.43,13.14-6.92,18.86
			c-4.5,5.73-9.87,9.37-16.13,10.93c-2,0.5-3.9,0.75-5.68,0.75c-3.96,0-7.4-1.22-10.32-3.66c-4.25-3.54-6.32-8.74-6.2-15.59
			l1.97-113.53c-0.11-3.04-0.46-6.03-1.04-8.95c-0.59-2.92-0.74-5.65-0.46-8.2c0.29-2.54,1.4-4.82,3.36-6.85
			c1.95-2.02,5.58-3.69,10.87-5.01l10.35-2.58c1.86-0.46,3.64-0.7,5.33-0.7c3.84,0,7.24,1.2,10.2,3.6c4.26,3.46,6.48,8.66,6.68,15.6
			l-0.36,20.8l41.34-47.4c2.45-2.83,5.08-5.06,7.91-6.7c2.82-1.64,5.68-2.74,8.57-3.29C168.32,533.15,169.58,533.03,170.82,533.03
			 M170.82,503.03L170.82,503.03c-3.12,0-6.28,0.3-9.4,0.9c-6.21,1.18-12.26,3.47-18.01,6.81l-0.02,0.01l-0.02,0.01
			c-5.66,3.29-10.85,7.65-15.44,12.94l-6.31,7.23c-8.27-6.64-18.26-10.15-28.91-10.15c-4.13,0-8.37,0.53-12.6,1.59l-10.35,2.58
			c-10.95,2.73-19.19,7.07-25.18,13.27c-6.56,6.79-10.57,15.21-11.6,24.34c-0.63,5.66-0.34,11.53,0.86,17.48
			c0.22,1.09,0.37,2.25,0.44,3.45l-1.95,112.59c-0.28,15.89,5.76,29.8,17,39.16c8.33,6.94,18.54,10.61,29.52,10.61
			c4.23,0,8.58-0.55,12.95-1.64c12.67-3.16,23.89-10.6,32.46-21.5c1.63-2.08,3.12-4.23,4.46-6.44c2.07,1.65,4.29,3.11,6.65,4.39
			c6.46,3.5,13.5,5.4,20.9,5.65c0.51,0.02,1.04,0.03,1.58,0.03c6.28,0,12.64-1.24,18.9-3.7c6.31-2.47,12.27-6.24,17.69-11.2
			c4.96-4.36,9.16-9.39,12.51-14.96c3.49-5.81,5.96-11.95,7.36-18.28c1.4-6.38,1.75-12.81,1.04-19.14
			c-0.85-7.51-3.25-14.49-7.14-20.78l-0.18-0.3l-0.19-0.29l-19.39-29.83l13.68-15.64l0.04-0.05l0.04-0.05
			c4.49-5.17,8.06-10.86,10.62-16.89c2.54-6,4.12-12.17,4.69-18.36c0.65-6.87,0.02-13.66-1.86-20.15
			c-2.24-7.72-6.22-14.51-11.84-20.17l-0.03-0.03l-0.03-0.03c-5.81-5.81-13.04-9.95-20.91-11.96l-0.03-0.01l-0.03-0.01
			C178.89,503.53,174.86,503.03,170.82,503.03L170.82,503.03z"/>
	</g>
	<g>
		<path class="st3" d="M232.62,690.12c-4.31,0-8.54-0.47-12.58-1.4c-9.25-2.12-17.38-6.3-24.17-12.44
			c-6.6-5.97-11.73-13.54-15.24-22.53c-3.38-8.62-5.01-18.32-4.82-28.82c0.18-10.15,2.03-20.24,5.5-29.98
			c3.41-9.56,8.14-18.49,14.07-26.54c5.97-8.12,13.12-15.2,21.24-21.05c8.41-6.05,17.65-10.36,27.49-12.82
			c4.7-1.17,9.53-1.77,14.38-1.77c2.84,0,5.74,0.2,8.61,0.61c2.27,0.32,4.44,0.74,6.51,1.27c0.5-0.55,1.01-1.1,1.54-1.63
			c4.95-5.02,10.46-8.32,16.38-9.8c2.45-0.61,4.86-0.92,7.16-0.92c7.03,0,13.33,2.88,17.73,8.1c4.59,5.46,6.84,12.44,6.69,20.77
			l-1.58,90.93c-0.13,7.34-2.08,14.12-5.81,20.15c-4.35,7.05-10.95,11.85-19.08,13.88c-2.15,0.54-4.34,0.81-6.49,0.81
			c-4.23,0-8.28-1.01-12.07-3c-2.77,2.23-5.64,4.18-8.59,5.84c-6.55,3.7-13.38,6.45-20.28,8.17
			C243.53,689.4,237.95,690.12,232.62,690.12z"/>
		<path class="st3" d="M298.7,537.31c2.62,0,4.7,0.92,6.25,2.76c2.19,2.61,3.25,6.22,3.17,10.85l-1.58,90.93
			c-0.08,4.62-1.27,8.8-3.57,12.53c-2.3,3.73-5.62,6.13-9.95,7.22c-0.97,0.24-1.93,0.36-2.86,0.36c-2.16,0-4.23-0.64-6.22-1.93
			c-2.85-1.85-5.05-3.94-6.6-6.28c-4.73,5.62-9.8,9.95-15.21,13c-5.41,3.06-10.92,5.28-16.54,6.68c-4.52,1.13-8.85,1.69-12.97,1.69
			c-3.19,0-6.26-0.34-9.22-1.02c-6.77-1.55-12.59-4.53-17.47-8.94c-4.88-4.41-8.66-10.03-11.33-16.86
			c-2.68-6.83-3.95-14.53-3.8-23.09c0.15-8.56,1.69-16.96,4.63-25.2c2.94-8.23,6.95-15.8,12.02-22.69
			c5.07-6.89,11.05-12.82,17.93-17.77c6.88-4.95,14.33-8.43,22.36-10.44c3.53-0.88,7.11-1.32,10.75-1.32c2.15,0,4.33,0.15,6.52,0.46
			c5.9,0.83,10.66,2.5,14.3,5c1.34-3.4,3.51-6.63,6.52-9.68c3.01-3.05,6.12-4.98,9.33-5.78
			C296.44,537.47,297.62,537.31,298.7,537.31 M245.65,626.01c0.92,0,1.9-0.13,2.92-0.38c3.69-0.92,6.85-3.2,9.47-6.84
			c2.62-3.64,3.96-7.42,4.03-11.36c0.07-3.94-1.16-7.08-3.67-9.44c-1.81-1.69-3.92-2.54-6.34-2.54c-0.94,0-1.93,0.13-2.97,0.39
			c-3.69,0.92-6.77,3.18-9.23,6.78c-2.46,3.6-3.73,7.37-3.79,11.31c-0.07,3.94,1.08,7.11,3.43,9.5
			C241.21,625.14,243.25,626.01,245.65,626.01 M298.7,507.31c-3.53,0-7.16,0.46-10.8,1.37c-6.86,1.71-13.25,5-19.06,9.81
			c-3.47-0.47-6.94-0.71-10.35-0.71c-6.07,0-12.13,0.74-18.01,2.21c-11.69,2.92-22.67,8.03-32.62,15.2
			c-9.4,6.77-17.66,14.96-24.56,24.34c-6.79,9.22-12.21,19.45-16.12,30.4c-4.02,11.26-6.17,22.96-6.37,34.75
			c-0.22,12.47,1.76,24.1,5.87,34.57c4.36,11.14,10.8,20.62,19.15,28.16c8.7,7.87,19.1,13.23,30.89,15.93
			c5.11,1.17,10.47,1.77,15.91,1.77c6.55,0,13.35-0.87,20.23-2.59c8.21-2.05,16.29-5.3,24.03-9.67c1.18-0.67,2.35-1.37,3.5-2.11
			c3.19,0.79,6.47,1.2,9.77,1.2c3.38,0,6.79-0.42,10.13-1.26c12.01-3,21.77-10.11,28.22-20.57c5.15-8.34,7.86-17.69,8.04-27.76
			l1.58-90.93c0.26-15.01-5.4-24.96-10.2-30.67C320.61,512.09,310.24,507.31,298.7,507.31L298.7,507.31z"/>
	</g>
	<g>
		<path class="st3" d="M334.97,663.79c-2.36,0-4.71-0.26-6.98-0.77c-5.03-1.12-9.53-3.3-13.35-6.49c-3.72-3.09-6.69-7.08-8.79-11.82
			c-2.04-4.61-3.02-9.7-2.92-15.12l1.46-83.99c0.13-7.34,2.08-14.12,5.81-20.15c4.35-7.05,10.95-11.86,19.08-13.88
			c2.21-0.55,4.46-0.83,6.69-0.83c4.21,0,8.32,0.97,12.24,2.88c1.97-1.6,3.95-3.08,5.94-4.41c6.11-4.08,12.89-7.06,20.16-8.88
			c6.15-1.54,10.82-2.25,14.68-2.25c0.52,0,1.02,0.01,1.49,0.04c3.77,0.19,7.63,0.9,11.48,2.11c6.61,1.95,12.33,6.09,16.57,11.97
			c4.27,5.93,6.36,12.86,6.22,20.58c-0.08,4.83-1.04,9.64-2.85,14.31c-1.7,4.38-4.04,8.5-6.95,12.26
			c-2.95,3.81-6.36,7.09-10.14,9.78c-4.08,2.91-8.55,4.98-13.26,6.16c-2.81,0.7-5.85,1.16-9.04,1.37c-0.53,0.04-1.6,0.15-3.42,0.53
			c-0.15,1.05-0.23,2.18-0.25,3.38l-1.15,38.5c-0.1,4.99-1.1,9.96-2.99,14.79c-1.77,4.54-4.15,8.75-7.06,12.51
			c-2.93,3.79-6.41,7.13-10.34,9.94c-4.28,3.05-8.92,5.22-13.79,6.44C340.67,663.42,337.78,663.79,334.97,663.79z"/>
		<path class="st3" d="M389,513.08c0.25,0,0.49,0.01,0.72,0.02c2.55,0.13,5.18,0.62,7.88,1.48c3.5,1.01,6.42,3.13,8.76,6.38
			c2.34,3.25,3.47,7.1,3.4,11.56c-0.05,3.08-0.67,6.14-1.84,9.15c-1.17,3.02-2.78,5.85-4.82,8.49c-2.05,2.64-4.36,4.88-6.95,6.72
			c-2.59,1.84-5.33,3.12-8.22,3.84c-1.93,0.48-4.05,0.8-6.37,0.95c-2.32,0.15-5.33,0.69-9.02,1.61c-3.69,0.92-6.05,3-7.06,6.24
			c-1.01,3.24-1.55,6.83-1.62,10.76l-1.15,38.39c-0.06,3.26-0.71,6.49-1.96,9.7c-1.26,3.21-2.91,6.14-4.95,8.78
			c-2.05,2.64-4.44,4.94-7.19,6.91c-2.75,1.97-5.65,3.33-8.7,4.09c-1.7,0.42-3.35,0.64-4.94,0.64c-1.27,0-2.5-0.13-3.69-0.4
			c-2.71-0.6-5.04-1.72-7.01-3.36c-1.97-1.64-3.53-3.76-4.69-6.38c-1.15-2.61-1.7-5.54-1.64-8.8l1.46-83.99
			c0.08-4.62,1.27-8.8,3.57-12.53c2.3-3.73,5.62-6.13,9.95-7.22c1.02-0.26,2.04-0.38,3.06-0.38c2.16,0,4.29,0.58,6.39,1.74
			c3.09,1.7,5.17,3.87,6.24,6.5c4.56-5.06,9.19-9.15,13.88-12.29c4.69-3.13,9.84-5.4,15.46-6.8
			C382.77,513.68,386.45,513.08,389,513.08 M389,483.08c-5.12,0-10.94,0.86-18.31,2.7c-8.95,2.23-17.31,5.92-24.86,10.96
			c-0.06,0.04-0.12,0.08-0.18,0.12c-3.16-0.74-6.39-1.12-9.67-1.12c-3.45,0-6.92,0.43-10.32,1.28c-12.01,3-21.76,10.11-28.22,20.57
			c-5.16,8.34-7.87,17.69-8.04,27.76l-1.46,83.99c-0.13,7.62,1.28,14.83,4.19,21.43c3.04,6.89,7.39,12.71,12.93,17.32
			c5.66,4.72,12.28,7.94,19.68,9.59c3.33,0.74,6.78,1.12,10.23,1.12c4.03,0,8.14-0.51,12.2-1.53c6.71-1.67,13.06-4.63,18.88-8.79
			c5.11-3.65,9.65-8.01,13.48-12.96c3.79-4.9,6.87-10.35,9.16-16.22c2.52-6.46,3.87-13.15,4.01-19.88l0.87-29.2
			c0.54-0.12,1.08-0.25,1.62-0.38c6.53-1.63,12.7-4.49,18.33-8.49c4.98-3.54,9.46-7.85,13.3-12.81c3.8-4.91,6.84-10.29,9.06-15.99
			c2.46-6.35,3.75-12.9,3.87-19.49c0.19-10.88-2.94-21.11-9.03-29.59c-6.18-8.59-14.6-14.65-24.38-17.57
			c-5.02-1.57-10.09-2.49-15.09-2.75C390.51,483.09,389.76,483.08,389,483.08L389,483.08z"/>
	</g>
	<g>
		<path class="st3" d="M453.9,633.67c-4.31,0-8.54-0.47-12.57-1.4c-9.25-2.12-17.38-6.3-24.17-12.44
			c-6.6-5.96-11.73-13.54-15.24-22.53c-3.38-8.62-5.01-18.32-4.83-28.82c0.18-10.16,2.03-20.24,5.5-29.98
			c3.41-9.56,8.14-18.49,14.07-26.54c5.98-8.12,13.12-15.2,21.24-21.05c8.41-6.05,17.66-10.37,27.49-12.82
			c4.69-1.17,9.53-1.77,14.38-1.77c2.84,0,5.73,0.21,8.6,0.61c2.27,0.32,4.44,0.75,6.51,1.27c0.5-0.55,1.01-1.09,1.54-1.63
			c4.95-5.02,10.46-8.32,16.37-9.8c2.45-0.61,4.86-0.92,7.17-0.92c7.03,0,13.33,2.88,17.73,8.1c4.59,5.45,6.84,12.44,6.69,20.77
			l-1.58,90.93c-0.13,7.34-2.08,14.12-5.81,20.15c-4.35,7.05-10.95,11.85-19.08,13.88c-2.16,0.54-4.34,0.81-6.5,0.81
			c-4.23,0-8.28-1.01-12.07-3c-2.77,2.23-5.64,4.18-8.59,5.84c-6.56,3.7-13.38,6.45-20.28,8.17
			C464.81,632.95,459.23,633.67,453.9,633.67z"/>
		<path class="st3" d="M519.98,480.86c2.62,0,4.7,0.92,6.25,2.76c2.19,2.61,3.25,6.22,3.17,10.85l-1.58,90.93
			c-0.08,4.62-1.27,8.8-3.57,12.53c-2.3,3.73-5.62,6.13-9.95,7.22c-0.97,0.24-1.93,0.36-2.86,0.36c-2.16,0-4.23-0.64-6.22-1.93
			c-2.85-1.85-5.05-3.94-6.6-6.28c-4.73,5.62-9.8,9.95-15.21,13c-5.41,3.06-10.92,5.28-16.54,6.68c-4.52,1.13-8.85,1.69-12.97,1.69
			c-3.19,0-6.26-0.34-9.22-1.02c-6.77-1.55-12.59-4.53-17.47-8.94c-4.88-4.41-8.66-10.03-11.33-16.86
			c-2.68-6.83-3.95-14.53-3.8-23.09c0.15-8.56,1.69-16.96,4.63-25.2c2.94-8.23,6.95-15.8,12.02-22.69
			c5.07-6.89,11.05-12.82,17.93-17.77c6.88-4.95,14.33-8.43,22.36-10.44c3.53-0.88,7.11-1.32,10.75-1.32c2.15,0,4.33,0.15,6.52,0.46
			c5.9,0.83,10.66,2.5,14.3,5c1.34-3.4,3.51-6.63,6.52-9.68c3.01-3.05,6.12-4.98,9.33-5.78
			C517.72,481.02,518.9,480.86,519.98,480.86 M466.94,569.56c0.92,0,1.9-0.13,2.92-0.38c3.69-0.92,6.85-3.2,9.47-6.84
			c2.62-3.64,3.96-7.42,4.03-11.36c0.07-3.94-1.16-7.08-3.67-9.44c-1.81-1.69-3.92-2.54-6.34-2.54c-0.94,0-1.93,0.13-2.97,0.39
			c-3.69,0.92-6.77,3.18-9.23,6.78c-2.46,3.6-3.73,7.37-3.79,11.31c-0.07,3.94,1.08,7.11,3.43,9.5
			C462.49,568.69,464.54,569.56,466.94,569.56 M519.98,450.86c-3.53,0-7.16,0.46-10.8,1.37c-6.86,1.71-13.25,5-19.06,9.81
			c-3.47-0.47-6.94-0.71-10.35-0.71c-6.07,0-12.13,0.74-18.01,2.21c-11.69,2.92-22.67,8.03-32.62,15.2
			c-9.4,6.77-17.66,14.96-24.56,24.34c-6.79,9.22-12.21,19.45-16.12,30.4c-4.02,11.26-6.17,22.96-6.37,34.75
			c-0.22,12.47,1.76,24.1,5.87,34.57c4.36,11.14,10.8,20.62,19.15,28.16c8.7,7.87,19.1,13.23,30.89,15.93
			c5.11,1.17,10.47,1.77,15.91,1.77c6.55,0,13.35-0.87,20.23-2.59c8.21-2.05,16.29-5.3,24.03-9.67c1.18-0.67,2.35-1.37,3.5-2.11
			c3.19,0.79,6.47,1.2,9.77,1.2c3.38,0,6.79-0.42,10.13-1.26c12.01-3,21.77-10.11,28.22-20.57c5.15-8.34,7.86-17.69,8.04-27.76
			l1.58-90.93c0.26-15.01-5.4-24.97-10.2-30.67C541.89,455.64,531.52,450.86,519.98,450.86L519.98,450.86z"/>
	</g>
	<g>
		<path class="st3" d="M587.44,600.31c-4.21,0-8.38-0.43-12.38-1.29c-9.36-1.99-17.7-5.99-24.78-11.88
			c-7.01-5.84-12.51-13.33-16.36-22.25c-3.75-8.7-5.56-18.52-5.38-29.19c0.18-10.28,2.19-20.5,5.98-30.4
			c3.69-9.62,8.74-18.61,15-26.71c6.29-8.12,13.69-15.21,22-21.07c8.61-6.06,17.94-10.38,27.73-12.82
			c5.76-1.44,11.45-2.17,16.92-2.17c4.2,0,8.36,0.43,12.37,1.28c9.4,2,17.73,6,24.8,11.88c7.01,5.83,12.51,13.32,16.35,22.25
			c3.75,8.72,5.56,18.54,5.38,29.2c-0.18,10.27-2.19,20.49-5.99,30.39c-3.68,9.62-8.73,18.61-15,26.71
			c-6.29,8.13-13.69,15.22-21.99,21.07c-8.6,6.06-17.93,10.37-27.72,12.82C598.6,599.58,592.9,600.31,587.44,600.31z"/>
		<path class="st3" d="M616.18,457.54c3.18,0,6.26,0.32,9.26,0.95c7,1.49,13.11,4.4,18.31,8.73c5.2,4.33,9.26,9.88,12.18,16.65
			c2.92,6.78,4.31,14.44,4.16,23c-0.15,8.56-1.82,16.99-5,25.29c-3.18,8.3-7.47,15.93-12.86,22.9
			c-5.39,6.97-11.65,12.97-18.77,17.98c-7.12,5.02-14.69,8.52-22.72,10.53c-4.6,1.15-9.04,1.72-13.3,1.72
			c-3.18,0-6.26-0.32-9.25-0.96c-7.01-1.49-13.11-4.4-18.31-8.73s-9.26-9.88-12.18-16.65c-2.92-6.77-4.3-14.44-4.16-23
			c0.15-8.56,1.81-16.99,4.99-25.29c3.18-8.29,7.47-15.93,12.86-22.9c5.39-6.97,11.65-12.97,18.77-17.98
			c7.12-5.01,14.69-8.52,22.72-10.53C607.49,458.11,611.92,457.54,616.18,457.54 M598.61,536.71c0.93,0,1.92-0.13,2.95-0.39
			c3.69-0.92,6.8-3.19,9.35-6.81c2.54-3.62,3.84-7.39,3.91-11.33c0.07-3.94-1.12-7.09-3.55-9.47c-1.76-1.71-3.84-2.57-6.25-2.57
			c-0.93,0-1.91,0.13-2.94,0.39c-3.69,0.92-6.81,3.19-9.35,6.81c-2.54,3.62-3.84,7.4-3.91,11.33c-0.07,3.94,1.11,7.1,3.55,9.47
			C594.12,535.85,596.2,536.71,598.61,536.71 M616.18,427.54L616.18,427.54c-6.69,0-13.61,0.88-20.55,2.61
			c-11.59,2.89-22.6,7.97-32.73,15.1c-9.54,6.72-18.03,14.85-25.23,24.16c-7.17,9.26-12.94,19.53-17.15,30.52
			c-4.42,11.52-6.77,23.47-6.97,35.5c-0.22,12.82,2,24.73,6.6,35.4c4.78,11.1,11.69,20.47,20.53,27.83
			c8.96,7.47,19.49,12.52,31.27,15.03c5,1.07,10.22,1.61,15.48,1.61c6.69,0,13.61-0.88,20.56-2.61c11.6-2.89,22.61-7.98,32.73-15.11
			c9.53-6.71,18.01-14.84,25.22-24.15c7.17-9.27,12.94-19.54,17.15-30.53c4.42-11.53,6.77-23.48,6.98-35.5
			c0.22-12.79-2-24.7-6.6-35.39c-4.79-11.12-11.7-20.49-20.53-27.85c-8.95-7.45-19.46-12.51-31.24-15.02
			C626.64,428.08,621.43,427.54,616.18,427.54L616.18,427.54z"/>
	</g>
	<g>
		<path class="st3" d="M690.15,575.61c-7.43,0-14.32-2.47-19.93-7.13c-5.43-4.52-11.85-12.94-11.6-27.38l2-115.33
			c0.17-9.91,3.49-19.17,9.86-27.54c6.51-8.54,14.77-14.11,24.55-16.55c2.9-0.72,5.83-1.09,8.68-1.09c2.28,0,4.56,0.23,6.77,0.7
			c5.19,1.09,9.77,3.27,13.64,6.47c3.84,3.21,6.82,7.29,8.9,12.16c1.98,4.66,2.94,9.73,2.85,15.08l-0.15,8.48l6.93-7.03
			c3.59-3.86,7.63-6.96,12.03-9.21c4.53-2.33,9.25-3.77,13.99-4.25c1.17-0.12,2.33-0.18,3.47-0.18c4.01,0,7.91,0.72,11.6,2.15
			c4.97,1.94,9.24,5.05,12.74,9.26l0.25,0.31c6.18,7.84,8.58,17.48,6.95,27.89c-1.47,9.39-5.96,18.01-13.33,25.64l-5.54,5.62
			l11.53,15.78c3.1,3.63,5.37,7.88,6.75,12.62c1.35,4.69,1.8,9.59,1.33,14.59c-0.44,4.74-1.72,9.51-3.79,14.16
			c-2.11,4.73-5.1,9.11-8.88,13.04c-7.6,8.03-16.29,12.54-25.85,13.39c-1.07,0.1-2.14,0.14-3.18,0.14
			c-9.41,0-17.68-3.81-23.91-11.02l-0.47-0.54l-5.32-7.49c-1.39,7.1-4.5,13.75-9.27,19.83c-6.59,8.39-14.76,13.84-24.3,16.22
			C696.29,575.21,693.16,575.61,690.15,575.61z"/>
		<path class="st3" d="M703.73,395.59c1.26,0,2.49,0.13,3.7,0.38c2.79,0.59,5.16,1.7,7.14,3.34c1.97,1.64,3.53,3.81,4.68,6.5
			c1.15,2.7,1.7,5.67,1.64,8.93l-0.8,45.98l33.43-33.91c2.44-2.66,5.11-4.73,8.02-6.22c2.9-1.49,5.79-2.38,8.68-2.68
			c0.66-0.07,1.31-0.1,1.94-0.1c2.16,0,4.23,0.38,6.19,1.14c2.54,0.99,4.75,2.61,6.63,4.87c3.6,4.56,4.9,9.99,3.91,16.29
			c-0.99,6.3-4.09,12.15-9.29,17.54l-14.4,14.59l19.44,26.61c1.88,2.09,3.24,4.56,4.07,7.43c0.83,2.86,1.1,5.86,0.8,9.01
			c-0.29,3.14-1.15,6.3-2.56,9.46c-1.41,3.17-3.43,6.1-6.03,8.79c-5.05,5.35-10.49,8.28-16.33,8.81c-0.63,0.06-1.24,0.08-1.85,0.08
			c-5.02,0-9.2-1.94-12.56-5.83l-20.36-28.68c-4.39,4.51-7.16,7.28-8.3,8.33s-1.95,1.81-2.43,2.27l-0.2,11.56
			c-0.12,6.85-2.43,13.14-6.92,18.86c-4.5,5.73-9.87,9.37-16.13,10.93c-2,0.5-3.9,0.75-5.69,0.75c-3.96,0-7.4-1.22-10.33-3.66
			c-4.25-3.54-6.32-8.74-6.2-15.59l2-115.33c0.12-6.68,2.38-12.91,6.8-18.7c4.42-5.79,9.83-9.49,16.26-11.09
			C700.4,395.81,702.09,395.59,703.73,395.59 M703.73,365.59c-4.08,0-8.22,0.52-12.32,1.54c-12.98,3.24-24.34,10.85-32.85,22
			c-8.24,10.81-12.71,23.39-12.94,36.37l-2,115.33c-0.28,15.9,5.76,29.8,17,39.16c8.33,6.94,18.54,10.6,29.52,10.6
			c4.23,0,8.58-0.55,12.95-1.64c12.67-3.16,23.89-10.6,32.46-21.5c0.65-0.83,1.27-1.66,1.88-2.51c7.43,4.87,16.1,7.46,25.3,7.46
			c1.49,0,3.01-0.07,4.52-0.2c9.14-0.82,22.69-4.6,35.37-17.98c4.96-5.17,8.9-10.97,11.71-17.26c2.75-6.19,4.44-12.54,5.04-18.91
			c0.65-6.85,0.02-13.62-1.85-20.12c-1.92-6.64-5.07-12.59-9.35-17.75l-3.81-5.22c7.68-9.04,12.44-19.18,14.17-30.22
			c2.29-14.65-1.16-28.31-9.99-39.5l-0.25-0.31l-0.26-0.31c-5.15-6.18-11.46-10.76-18.77-13.62l-0.04-0.02l-0.04-0.02
			c-5.42-2.1-11.15-3.16-17.02-3.16c-1.64,0-3.31,0.08-4.95,0.25c-6.65,0.68-13.16,2.65-19.38,5.85c-0.29,0.15-0.57,0.3-0.86,0.45
			c-0.04-0.1-0.08-0.2-0.13-0.3c-3.03-7.09-7.41-13.05-13.03-17.75l-0.05-0.04l-0.05-0.04c-5.76-4.78-12.53-8.01-20.11-9.6
			C710.35,365.93,707.04,365.59,703.73,365.59L703.73,365.59z"/>
	</g>
	<g>
		<path class="st3" d="M837.35,537.96c-4.21,0-8.38-0.43-12.38-1.29c-9.36-1.99-17.7-5.99-24.78-11.88
			c-7.01-5.84-12.51-13.32-16.36-22.25c-3.75-8.71-5.56-18.53-5.38-29.2c0.18-10.27,2.19-20.49,5.98-30.39
			c3.69-9.62,8.74-18.61,15.01-26.71c6.29-8.12,13.69-15.21,21.99-21.07c8.62-6.07,17.95-10.38,27.73-12.82
			c6.12-1.53,12.16-2.3,17.94-2.3c3.67,0,7.32,0.31,10.83,0.93c9.38,1.66,17.74,5.25,24.85,10.69c7.18,5.5,12.82,12.74,16.76,21.53
			c3.82,8.53,5.66,18.29,5.48,29.02c-0.07,4.09-0.97,8.27-2.67,12.45c-1.6,3.96-3.88,7.65-6.75,10.96
			c-2.62,3.02-5.66,5.73-9.05,8.05c-0.57,0.39-1.15,0.77-1.73,1.12c1.2,3.49,1.78,7.33,1.71,11.42c-0.11,6.56-2.06,13.06-5.79,19.33
			c-3.33,5.58-7.38,10.25-12.06,13.9c-4.99,3.97-10.69,7.4-16.95,10.2c-5.94,2.66-11.81,4.72-17.45,6.13
			C848.51,537.23,842.82,537.96,837.35,537.96z"/>
		<path class="st3" d="M867.11,395.06c2.82,0,5.57,0.23,8.25,0.7c7.01,1.24,13.12,3.85,18.33,7.83c5.2,3.99,9.27,9.24,12.19,15.76
			c2.92,6.52,4.31,14.06,4.16,22.62c-0.04,2.23-0.56,4.58-1.56,7.04c-1,2.47-2.4,4.74-4.19,6.8c-1.8,2.07-3.87,3.91-6.21,5.51
			c-2.35,1.61-4.81,2.73-7.37,3.37c-4.34,1.25-8.39,2.31-12.16,3.16c-3.77,0.86-7.55,1.72-11.31,2.57
			c-3.77,0.86-7.7,1.75-11.79,2.69c-4.09,0.94-8.63,2.02-13.6,3.26c0.76,2.03,1.86,3.33,3.29,3.91c0.66,0.27,1.45,0.4,2.39,0.4
			c1.09,0,2.37-0.18,3.85-0.55c1.77-0.44,3.37-1.06,4.83-1.84c1.45-0.79,2.94-1.63,4.48-2.52c1.53-0.9,3.15-1.77,4.84-2.62
			c1.69-0.84,3.66-1.55,5.91-2.11c1.81-0.45,3.54-0.68,5.19-0.68c3.33,0,6.35,0.92,9.04,2.75c4.03,2.75,5.99,7.03,5.89,12.85
			c-0.07,3.94-1.3,7.91-3.68,11.92c-2.39,4.01-5.2,7.27-8.44,9.78c-4.05,3.23-8.65,5.99-13.81,8.3c-5.15,2.31-10.14,4.06-14.95,5.27
			c-4.6,1.15-9.03,1.72-13.3,1.72c-3.18,0-6.26-0.32-9.25-0.96c-7.01-1.49-13.11-4.41-18.31-8.73c-5.2-4.33-9.26-9.88-12.18-16.65
			c-2.92-6.77-4.3-14.44-4.16-23c0.15-8.56,1.81-16.99,4.99-25.29c3.18-8.29,7.47-15.93,12.86-22.9
			c5.39-6.97,11.65-12.97,18.77-17.98c7.12-5.01,14.69-8.52,22.72-10.53C857.77,395.68,862.54,395.06,867.11,395.06 M842.86,445.44
			l18.3-4.56c-0.29-1.8-1.35-3.07-3.17-3.81c-1.07-0.43-2.19-0.65-3.35-0.65c-0.82,0-1.66,0.11-2.52,0.32
			c-2.25,0.56-4.22,1.65-5.93,3.27C844.48,441.62,843.37,443.43,842.86,445.44 M867.11,365.06c-7,0-14.26,0.92-21.57,2.75
			c-11.58,2.89-22.59,7.97-32.72,15.1c-9.54,6.72-18.03,14.85-25.23,24.16c-7.17,9.27-12.94,19.54-17.15,30.52
			c-4.42,11.54-6.77,23.48-6.97,35.5c-0.22,12.8,2,24.71,6.6,35.39c4.78,11.11,11.69,20.47,20.53,27.84
			c8.97,7.47,19.49,12.52,31.27,15.03c5.01,1.07,10.22,1.61,15.48,1.61c6.69,0,13.61-0.88,20.56-2.61
			c6.5-1.62,13.21-3.97,19.95-6.99c7.37-3.3,14.14-7.38,20.1-12.11c6.13-4.79,11.39-10.84,15.66-18c5.09-8.55,7.75-17.55,7.91-26.75
			c0.03-1.81-0.03-3.6-0.19-5.36c2-1.78,3.87-3.67,5.6-5.67c3.94-4.54,7.08-9.64,9.31-15.15c2.4-5.89,3.67-11.88,3.77-17.82
			c0.22-12.95-2.06-24.86-6.78-35.41c-4.99-11.1-12.16-20.28-21.32-27.3c-9.06-6.93-19.6-11.49-31.36-13.56
			C876.17,365.45,871.65,365.06,867.11,365.06L867.11,365.06z"/>
	</g>
</g>
<g id="k9_karaoke_copy_2" class="st0">
	<g class="st1">
		<path class="st2" d="M143.61,487.78c-6.39,0-12.04-2.01-16.8-5.97c-6.82-5.68-10.18-13.97-10-24.65l2.71-156.48
			c-0.15-3.94-0.6-7.84-1.36-11.59c-0.89-4.42-1.12-8.64-0.69-12.54c0.5-4.4,2.42-8.36,5.73-11.78c3.26-3.37,8.79-5.99,16.91-8.02
			l14.28-3.56c2.88-0.72,5.68-1.08,8.33-1.08c6.22,0,11.8,1.97,16.59,5.86c6.78,5.51,10.38,13.75,10.69,24.5l0,0.19l-0.31,17.74
			l49.81-57.11c3.64-4.2,7.65-7.59,11.91-10.07c4.28-2.48,8.68-4.17,13.08-5.01c2-0.38,4.01-0.57,5.97-0.57
			c2.47,0,4.94,0.31,7.33,0.91c4.42,1.13,8.35,3.39,11.67,6.71c3.29,3.31,5.63,7.31,6.95,11.88c1.28,4.42,1.7,9.1,1.25,13.91
			c-0.44,4.71-1.67,9.49-3.66,14.19c-2,4.72-4.86,9.24-8.48,13.41l-37.49,42.86l42.15,64.85c2.49,4.04,4.01,8.48,4.55,13.27
			c0.52,4.65,0.26,9.42-0.79,14.19c-1.05,4.76-2.95,9.46-5.66,13.96c-2.7,4.49-6.14,8.55-10.21,12.09
			c-4.15,3.85-8.55,6.7-13.09,8.47c-4.27,1.67-8.45,2.52-12.42,2.52c-0.32,0-0.63-0.01-0.94-0.02c-4.36-0.14-8.5-1.26-12.3-3.32
			c-3.89-2.1-7.13-5.22-9.63-9.27l-34.79-55.53l-5.28,6l-1.66,1.72l-0.72,41.29c-0.18,10.3-3.68,19.86-10.4,28.42
			c-6.73,8.58-14.95,14.12-24.43,16.48C149.36,487.4,146.39,487.78,143.61,487.78z"/>
		<path class="st2" d="M270.46,231.63c2.15,0,4.27,0.26,6.35,0.79c3.73,0.95,7.01,2.84,9.82,5.66c2.81,2.83,4.79,6.21,5.94,10.16
			c1.14,3.95,1.52,8.08,1.11,12.42c-0.4,4.33-1.53,8.67-3.37,13.01c-1.84,4.34-4.44,8.46-7.82,12.35l-39.47,45.12l43.8,67.38
			c2.14,3.47,3.45,7.32,3.93,11.54c0.48,4.23,0.23,8.53-0.72,12.88c-0.96,4.35-2.68,8.6-5.18,12.75c-2.5,4.15-5.65,7.88-9.45,11.18
			c-3.81,3.54-7.77,6.12-11.87,7.72c-3.81,1.49-7.47,2.25-10.96,2.25c-0.27,0-0.54,0-0.81-0.01c-3.75-0.12-7.26-1.07-10.53-2.84
			c-3.28-1.77-5.99-4.38-8.13-7.85l-37.65-60.1l-8.77,9.95l-2.69,2.79l-0.74,42.87c-0.16,9.45-3.34,18.12-9.54,26.02
			c-6.2,7.9-13.62,12.92-22.25,15.07c-2.76,0.69-5.37,1.03-7.84,1.03c-5.46,0-10.2-1.68-14.24-5.05c-5.87-4.89-8.72-12.05-8.56-21.5
			l2.71-156.59c-0.15-4.2-0.63-8.31-1.44-12.34c-0.81-4.03-1.02-7.8-0.63-11.31c0.39-3.51,1.93-6.65,4.63-9.44
			c2.69-2.79,7.69-5.09,15-6.91l14.28-3.56c2.57-0.64,5.02-0.96,7.36-0.96c5.3,0,9.99,1.66,14.07,4.97
			c5.87,4.77,8.94,11.94,9.22,21.51l-0.5,28.69l57.01-65.37c3.38-3.9,7.01-6.98,10.9-9.25c3.9-2.26,7.84-3.77,11.82-4.53
			C267.01,231.8,268.74,231.63,270.46,231.63 M270.46,223.63c-2.21,0-4.47,0.22-6.72,0.65c-4.85,0.92-9.67,2.77-14.34,5.47
			c-4.65,2.71-9,6.39-12.94,10.93l-42.59,48.83l0.12-6.78l0-0.19l-0.01-0.19c-0.35-11.96-4.44-21.21-12.17-27.49
			c-5.52-4.48-11.95-6.76-19.11-6.76c-2.97,0-6.1,0.4-9.29,1.2l-14.28,3.56c-8.87,2.21-15.02,5.19-18.81,9.12
			c-3.94,4.07-6.23,8.82-6.83,14.11c-0.48,4.32-0.23,8.96,0.74,13.78c0.7,3.51,1.13,7.16,1.28,10.84l-2.71,156.37
			c-0.21,11.95,3.64,21.3,11.44,27.79c5.5,4.58,12.01,6.9,19.36,6.9c3.11,0,6.4-0.43,9.78-1.27c10.36-2.58,19.31-8.6,26.6-17.89
			c7.27-9.26,11.06-19.63,11.25-30.82l0.69-39.72l0.5-0.52l0.13-0.13l0.12-0.14l1.68-1.9l31.94,50.99
			c2.87,4.64,6.61,8.23,11.13,10.67c4.35,2.35,9.08,3.63,14.07,3.8c0.35,0.01,0.71,0.02,1.07,0.02c4.47,0,9.15-0.94,13.88-2.8
			c4.97-1.95,9.79-5.05,14.29-9.22c4.37-3.8,8.06-8.18,10.96-13c2.93-4.88,5-9.98,6.14-15.16c1.14-5.2,1.43-10.41,0.86-15.49
			c-0.61-5.39-2.32-10.39-5.08-14.85l-0.05-0.08l-0.05-0.08l-40.5-62.31l35.48-40.57c3.92-4.52,6.99-9.39,9.16-14.5
			c2.15-5.09,3.49-10.27,3.97-15.39c0.5-5.31,0.03-10.49-1.39-15.39c-1.51-5.22-4.19-9.79-7.95-13.58
			c-3.85-3.85-8.39-6.46-13.52-7.77C276.06,223.98,273.26,223.63,270.46,223.63L270.46,223.63z"/>
	</g>
	<g class="st1">
		<path class="st2" d="M310.7,370.6c-6.46,0-12.17-2.07-16.96-6.16c-6.79-5.79-10.14-14.02-9.96-24.44
			c0.18-10.28,3.62-19.82,10.22-28.35c6.62-8.56,14.9-14.12,24.61-16.55l66.75-16.65c2.96-0.74,5.83-1.11,8.55-1.11
			c6.33,0,12,2,16.86,5.94c6.95,5.65,10.38,13.94,10.2,24.64c-0.09,5.18-1.1,10.26-2.99,15.11c-1.86,4.77-4.35,9.18-7.39,13.1
			c-3.05,3.94-6.73,7.44-10.95,10.4c-4.29,3.01-8.83,5.12-13.5,6.29l-66.75,16.65C316.36,370.22,313.44,370.6,310.7,370.6z"/>
		<path class="st2" d="M393.9,281.34c5.42,0,10.19,1.68,14.34,5.05c5.98,4.86,8.88,12.02,8.72,21.46c-0.08,4.73-0.99,9.3-2.72,13.73
			c-1.73,4.43-4.01,8.47-6.82,12.11c-2.82,3.65-6.18,6.83-10.08,9.57c-3.91,2.74-7.96,4.63-12.17,5.68l-66.75,16.65
			c-2.71,0.68-5.28,1.01-7.71,1.01c-5.51,0-10.3-1.74-14.36-5.21c-5.87-5-8.72-12.11-8.56-21.32c0.16-9.45,3.29-18.11,9.38-25.98
			c6.09-7.87,13.56-12.9,22.41-15.11l66.75-16.65C388.97,281.67,391.5,281.34,393.9,281.34 M393.9,273.34
			c-3.04,0-6.25,0.41-9.52,1.23l-66.75,16.65c-10.6,2.64-19.62,8.69-26.8,17.98c-7.14,9.23-10.86,19.57-11.05,30.73
			c-0.2,11.67,3.62,20.94,11.37,27.55c5.54,4.73,12.12,7.12,19.56,7.12c3.07,0,6.32-0.42,9.65-1.25l66.75-16.65
			c5.14-1.28,10.13-3.6,14.83-6.9c4.55-3.19,8.52-6.96,11.82-11.22c3.27-4.23,5.95-8.97,7.95-14.09c2.07-5.3,3.16-10.85,3.26-16.5
			c0.21-11.99-3.72-21.34-11.67-27.81C407.69,275.64,401.17,273.34,393.9,273.34L393.9,273.34z"/>
	</g>
	<g class="st1">
		<path class="st2" d="M523.85,445.39c-2.29,0-4.59-0.26-6.84-0.77l-0.11-0.02l-0.11-0.03c-4.5-1.29-8.54-3.48-12.01-6.5
			c-3.54-3.09-6.15-6.89-7.74-11.29c-1.55-4.28-2.17-8.91-1.84-13.76c0.33-4.93,2.05-9.96,5.1-14.94l0.77-1.23
			c-6.91-0.55-13.49-2.06-19.64-4.53c-8.27-3.32-15.56-8.22-21.66-14.59c-6.08-6.34-10.86-14.04-14.21-22.9
			c-3.33-8.81-4.92-18.79-4.73-29.64c0.21-12.23,2.62-24.42,7.15-36.24c4.5-11.75,10.66-22.72,18.31-32.6
			c7.65-9.89,16.65-18.51,26.75-25.63c10.18-7.17,21.17-12.26,32.67-15.13c6.63-1.65,13.12-2.49,19.3-2.49
			c4.64,0,9.21,0.47,13.59,1.4c10.27,2.19,19.35,6.53,26.98,12.89c7.62,6.35,13.65,14.58,17.91,24.46
			c4.23,9.85,6.27,21.08,6.06,33.38c-0.12,6.83-0.93,13.87-2.42,20.92c-1.49,7.05-3.68,13.82-6.53,20.14l-37.24,89.67
			c-1.99,4.81-4.72,9.29-8.12,13.32c-3.4,4.02-7.22,7.37-11.35,9.94c-4.15,2.58-8.55,4.4-13.08,5.4
			C528.49,445.13,526.15,445.39,523.85,445.39z M529.91,289.5c-1.03,0-2.18,0.16-3.41,0.46c-4.18,1.04-7.48,3.33-10.09,7
			c-2.71,3.79-4.06,7.9-4.14,12.55c-0.07,4.31,0.96,7.42,3.16,9.51c1.37,1.31,2.98,1.91,5.05,1.92h0c1.03,0,2.18-0.16,3.42-0.46
			c4.18-1.04,7.48-3.33,10.09-7c2.71-3.8,4.06-7.9,4.14-12.55c0.07-4.3-0.96-7.41-3.17-9.51C533.6,290.1,531.99,289.5,529.91,289.5z
			"/>
		<path class="st2" d="M545.02,217.1c4.38,0,8.64,0.44,12.76,1.32c9.66,2.06,18.08,6.07,25.25,12.05
			c7.17,5.97,12.77,13.63,16.8,22.97c4.02,9.35,5.94,19.92,5.73,31.73c-0.11,6.61-0.89,13.33-2.33,20.16
			c-1.44,6.83-3.54,13.29-6.29,19.38l-37.27,89.72c-1.84,4.46-4.34,8.55-7.49,12.28c-3.15,3.72-6.62,6.76-10.41,9.12
			c-3.79,2.36-7.73,3.98-11.83,4.89c-2.06,0.45-4.09,0.68-6.11,0.68c-2,0-3.99-0.22-5.95-0.67c-3.95-1.13-7.45-3.03-10.48-5.67
			c-3.05-2.65-5.25-5.87-6.61-9.64c-1.37-3.78-1.91-7.81-1.61-12.12c0.29-4.31,1.8-8.69,4.52-13.12l4.42-7.1
			c-0.4,0.01-0.79,0.01-1.19,0.01c-8.6,0-16.6-1.49-24.03-4.47c-7.77-3.12-14.53-7.66-20.26-13.64
			c-5.74-5.98-10.19-13.16-13.35-21.54c-3.16-8.38-4.65-17.77-4.47-28.16c0.2-11.81,2.5-23.43,6.89-34.88
			c4.38-11.44,10.3-21.97,17.74-31.59c7.45-9.62,16.07-17.88,25.89-24.81c9.82-6.92,20.26-11.76,31.33-14.52
			C533.03,217.89,539.14,217.1,545.02,217.1 M520.48,324.92c1.37,0,2.83-0.19,4.39-0.58c5.09-1.27,9.22-4.12,12.38-8.56
			c3.16-4.43,4.79-9.36,4.89-14.8c0.09-5.43-1.38-9.59-4.41-12.48c-2.11-2.01-4.71-3.01-7.81-3.01c-1.36,0-2.82,0.19-4.38,0.58
			c-5.1,1.27-9.22,4.12-12.38,8.56c-3.17,4.44-4.79,9.37-4.89,14.8c-0.09,5.44,1.37,9.6,4.41,12.48
			C514.78,323.92,517.39,324.92,520.48,324.92 M545.02,209.1c-6.51,0-13.33,0.88-20.27,2.61c-11.98,2.99-23.42,8.28-34,15.74
			c-10.43,7.35-19.72,16.25-27.61,26.45c-7.89,10.19-14.24,21.5-18.88,33.62c-4.7,12.26-7.19,24.91-7.41,37.6
			c-0.2,11.36,1.48,21.84,4.98,31.13c3.53,9.36,8.6,17.52,15.06,24.26c6.5,6.77,14.25,12,23.06,15.53c4.68,1.88,9.6,3.24,14.71,4.07
			c-2.01,4.2-3.16,8.44-3.44,12.66c-0.37,5.39,0.32,10.57,2.07,15.39c1.82,5.05,4.81,9.41,8.88,12.94
			c3.91,3.41,8.47,5.88,13.53,7.33l0.22,0.06l0.22,0.05c2.54,0.57,5.13,0.86,7.72,0.86c2.59,0,5.22-0.29,7.83-0.86
			c4.98-1.11,9.8-3.09,14.33-5.91c4.49-2.8,8.62-6.41,12.29-10.75c3.67-4.35,6.62-9.19,8.77-14.39l37.21-89.6
			c2.95-6.57,5.23-13.6,6.77-20.91c1.54-7.3,2.38-14.59,2.51-21.67c0.22-12.88-1.92-24.66-6.38-35.03
			c-4.52-10.47-10.92-19.2-19.03-25.96c-8.14-6.78-17.79-11.4-28.7-13.72C554.79,209.6,549.94,209.1,545.02,209.1L545.02,209.1z
			 M520.48,316.92c-1.2,0-1.78-0.32-2.28-0.8c-0.51-0.49-2.02-1.91-1.94-6.55c0.07-3.82,1.18-7.18,3.4-10.29
			c2.07-2.9,4.55-4.63,7.81-5.45c0.91-0.23,1.74-0.34,2.44-0.34c1.21,0,1.79,0.32,2.3,0.81c0.49,0.47,2.01,1.91,1.93,6.54
			c-0.07,3.81-1.18,7.18-3.4,10.29c-2.07,2.9-4.55,4.63-7.81,5.44C522.01,316.81,521.19,316.92,520.48,316.92L520.48,316.92z"/>
	</g>
	<g class="st1">
		<path class="st2" d="M71.85,713.85c-4.9,0-9.23-1.54-12.89-4.58c-5.21-4.34-7.78-10.64-7.64-18.73l1.97-113.42
			c-0.11-2.79-0.43-5.54-0.96-8.2c-0.67-3.31-0.84-6.49-0.51-9.43c0.39-3.44,1.89-6.53,4.46-9.19c2.51-2.59,6.69-4.59,12.78-6.11
			l10.35-2.58c2.17-0.54,4.29-0.82,6.3-0.82c4.77,0,9.05,1.51,12.72,4.5c5.18,4.21,7.92,10.46,8.16,18.58l0,0.19l-0.17,9.85
			l34.13-39.13c2.72-3.13,5.72-5.67,8.91-7.53c3.21-1.86,6.52-3.13,9.83-3.76c1.52-0.29,3.04-0.44,4.53-0.44
			c1.88,0,3.76,0.23,5.59,0.7c3.4,0.87,6.42,2.6,8.97,5.15c2.52,2.54,4.31,5.59,5.32,9.08c0.97,3.34,1.28,6.87,0.94,10.49
			c-0.33,3.53-1.25,7.1-2.74,10.62c-1.5,3.53-3.63,6.9-6.33,10.02l-26.63,30.45l30.11,46.32c1.91,3.09,3.06,6.46,3.47,10.1
			c0.39,3.49,0.19,7.07-0.59,10.64c-0.79,3.57-2.21,7.09-4.24,10.45c-2.02,3.35-4.58,6.38-7.61,9.02c-3.11,2.88-6.41,5.01-9.82,6.35
			c-3.22,1.26-6.39,1.9-9.4,1.9c-0.24,0-0.48,0-0.73-0.01c-3.33-0.11-6.5-0.96-9.41-2.54c-2.99-1.62-5.48-4.01-7.39-7.11
			l-24.44-39.01l-2.87,3.26l-0.92,0.95l-0.51,29.5c-0.13,7.71-2.75,14.86-7.77,21.26c-5.04,6.41-11.2,10.57-18.31,12.34
			C76.2,713.56,73.96,713.85,71.85,713.85z"/>
		<path class="st2" d="M163.82,527.03c1.56,0,3.09,0.19,4.6,0.57c2.7,0.69,5.08,2.06,7.12,4.1c2.04,2.05,3.48,4.5,4.31,7.37
			c0.83,2.86,1.1,5.86,0.8,9.01c-0.29,3.14-1.11,6.29-2.44,9.43c-1.33,3.15-3.22,6.13-5.67,8.96l-28.61,32.71l31.75,48.85
			c1.55,2.51,2.5,5.3,2.85,8.37c0.34,3.07,0.17,6.18-0.52,9.34c-0.69,3.16-1.95,6.24-3.76,9.25c-1.81,3.01-4.1,5.71-6.85,8.1
			c-2.76,2.57-5.63,4.44-8.61,5.6c-2.76,1.08-5.42,1.63-7.95,1.63c-0.2,0-0.39,0-0.59-0.01c-2.72-0.09-5.26-0.77-7.64-2.06
			c-2.38-1.28-4.34-3.18-5.89-5.69L109.44,639l-6.36,7.21l-1.95,2.02l-0.54,31.08c-0.12,6.85-2.43,13.14-6.92,18.86
			c-4.5,5.73-9.87,9.37-16.13,10.93c-2,0.5-3.9,0.75-5.68,0.75c-3.96,0-7.4-1.22-10.33-3.66c-4.25-3.54-6.32-8.74-6.2-15.59
			l1.97-113.53c-0.11-3.04-0.46-6.03-1.04-8.95c-0.59-2.92-0.74-5.65-0.46-8.2c0.29-2.54,1.4-4.82,3.36-6.85
			c1.95-2.02,5.58-3.69,10.87-5.01l10.35-2.58c1.86-0.47,3.64-0.7,5.33-0.7c3.84,0,7.24,1.2,10.2,3.6c4.26,3.46,6.48,8.66,6.68,15.6
			l-0.36,20.8l41.34-47.4c2.45-2.83,5.08-5.06,7.91-6.7c2.82-1.64,5.68-2.74,8.57-3.29C161.32,527.15,162.58,527.03,163.82,527.03
			 M163.82,519.03c-1.74,0-3.52,0.17-5.28,0.51c-3.76,0.72-7.49,2.14-11.09,4.23c-3.59,2.09-6.93,4.91-9.94,8.39l-26.96,30.91
			c-0.41-9.01-3.64-16.03-9.61-20.89c-4.4-3.58-9.53-5.39-15.24-5.39c-2.34,0-4.78,0.31-7.27,0.94l-10.35,2.58
			c-6.94,1.73-11.6,4.02-14.69,7.21c-3.2,3.31-5.07,7.18-5.56,11.51c-0.37,3.36-0.18,6.95,0.57,10.67c0.48,2.41,0.78,4.92,0.88,7.45
			l-1.96,113.31c-0.2,11.66,4.83,18.33,9.08,21.88c4.39,3.66,9.59,5.51,15.44,5.51c2.43,0,5-0.33,7.62-0.99
			c7.99-1.99,14.89-6.62,20.49-13.75c5.58-7.1,8.48-15.06,8.63-23.67l0.45-26.02l20.9,33.36c2.28,3.69,5.27,6.55,8.89,8.51
			c3.45,1.87,7.21,2.89,11.17,3.02c0.28,0.01,0.56,0.01,0.85,0.01c3.52,0,7.18-0.73,10.87-2.18c3.85-1.51,7.57-3.89,11.03-7.09
			c3.33-2.9,6.14-6.24,8.36-9.93c2.25-3.74,3.84-7.66,4.72-11.65c0.88-4.01,1.1-8.03,0.66-11.95c-0.48-4.24-1.82-8.16-3.99-11.68
			l-0.05-0.08l-0.05-0.08l-28.46-43.78l24.63-28.16c3-3.46,5.35-7.18,7.01-11.1c1.65-3.9,2.67-7.87,3.04-11.81
			c0.39-4.12,0.02-8.15-1.08-11.98c-1.2-4.14-3.32-7.77-6.32-10.78c-3.08-3.08-6.71-5.17-10.82-6.22
			C168.25,519.31,166.04,519.03,163.82,519.03L163.82,519.03z"/>
	</g>
	<g class="st1">
		<path class="st2" d="M225.62,673.12c-3.48,0-6.88-0.38-10.11-1.12c-7.4-1.69-13.88-5.02-19.25-9.88
			c-5.33-4.81-9.49-11-12.38-18.37c-2.86-7.29-4.23-15.57-4.07-24.62c0.16-8.96,1.79-17.86,4.87-26.47
			c3.05-8.55,7.28-16.53,12.57-23.72c5.29-7.2,11.62-13.47,18.81-18.65c7.27-5.23,15.25-8.96,23.72-11.07
			c3.83-0.96,7.77-1.44,11.72-1.44c2.33,0,4.71,0.17,7.08,0.5c4.57,0.64,8.6,1.78,12.02,3.4c1.42-2.41,3.22-4.73,5.39-6.92
			c3.51-3.57,7.28-5.87,11.21-6.85c1.58-0.39,3.1-0.59,4.5-0.59c3.79,0,7.01,1.45,9.31,4.19c2.82,3.36,4.21,7.9,4.11,13.49
			l-1.58,90.93c-0.09,5.33-1.5,10.23-4.17,14.56c-2.85,4.63-7.02,7.66-12.39,8.99c-1.28,0.32-2.57,0.48-3.83,0.48
			c-2.94,0-5.76-0.87-8.4-2.58c-1.69-1.09-3.19-2.28-4.51-3.56c-4.14,4.31-8.55,7.8-13.16,10.4c-5.69,3.22-11.59,5.6-17.53,7.08
			C234.74,672.51,230.05,673.12,225.62,673.12z M245.06,593.44c-0.61,0-1.29,0.09-2,0.27c-2.73,0.68-4.99,2.37-6.89,5.15
			c-2.03,2.97-3.04,5.95-3.1,9.12c-0.05,2.85,0.7,5.01,2.29,6.63c0.95,0.97,1.97,1.4,3.3,1.4l0,0c0.59,0,1.25-0.09,1.95-0.26
			c2.77-0.69,5.12-2.42,7.19-5.29c2.15-2.99,3.22-5.96,3.28-9.1c0.05-2.82-0.72-4.87-2.41-6.46
			C247.61,593.9,246.46,593.44,245.06,593.44z"/>
		<path class="st2" d="M291.7,531.31c2.62,0,4.7,0.92,6.25,2.76c2.19,2.61,3.25,6.22,3.17,10.85l-1.58,90.93
			c-0.08,4.62-1.27,8.8-3.57,12.53c-2.3,3.73-5.62,6.13-9.95,7.22c-0.97,0.24-1.93,0.36-2.86,0.36c-2.16,0-4.23-0.64-6.22-1.93
			c-2.85-1.85-5.05-3.94-6.6-6.28c-4.73,5.62-9.8,9.95-15.21,13c-5.41,3.05-10.92,5.28-16.54,6.68c-4.52,1.13-8.85,1.69-12.97,1.69
			c-3.19,0-6.26-0.34-9.22-1.02c-6.77-1.55-12.59-4.53-17.47-8.94c-4.88-4.41-8.66-10.03-11.33-16.86
			c-2.68-6.83-3.95-14.53-3.8-23.09c0.15-8.56,1.69-16.96,4.63-25.2c2.94-8.23,6.95-15.8,12.02-22.69
			c5.07-6.89,11.05-12.82,17.93-17.77c6.88-4.95,14.33-8.43,22.36-10.44c3.53-0.88,7.11-1.32,10.75-1.32c2.15,0,4.33,0.15,6.52,0.46
			c5.9,0.83,10.66,2.5,14.29,5c1.34-3.4,3.51-6.63,6.52-9.68c3.01-3.05,6.12-4.98,9.33-5.78
			C289.44,531.47,290.62,531.31,291.7,531.31 M238.65,620.01c0.92,0,1.9-0.13,2.92-0.38c3.69-0.92,6.85-3.2,9.47-6.84
			c2.62-3.64,3.96-7.42,4.03-11.36c0.07-3.94-1.16-7.08-3.67-9.44c-1.81-1.69-3.92-2.54-6.34-2.54c-0.94,0-1.93,0.13-2.97,0.39
			c-3.69,0.92-6.77,3.18-9.23,6.78c-2.46,3.6-3.73,7.37-3.79,11.31c-0.07,3.94,1.08,7.11,3.43,9.5
			C234.21,619.14,236.25,620.01,238.65,620.01 M291.7,523.31c-1.73,0-3.57,0.24-5.47,0.71c-4.65,1.16-9.05,3.83-13.09,7.93
			c-1.51,1.53-2.87,3.13-4.06,4.77c-3-1.09-6.32-1.89-9.93-2.4c-2.56-0.36-5.13-0.54-7.64-0.54c-4.28,0-8.55,0.52-12.69,1.56
			c-8.97,2.24-17.41,6.18-25.09,11.7c-7.53,5.42-14.15,11.99-19.7,19.52c-5.52,7.5-9.93,15.82-13.11,24.75
			c-3.22,9.01-4.93,18.35-5.1,27.74c-0.17,9.58,1.3,18.38,4.35,26.15c3.11,7.95,7.63,14.64,13.42,19.88
			c5.88,5.32,12.96,8.96,21.04,10.81c3.52,0.81,7.22,1.22,11,1.22c4.75,0,9.77-0.65,14.91-1.93c6.29-1.57,12.52-4.08,18.53-7.48
			c3.96-2.23,7.77-5.07,11.39-8.47c0.68,0.51,1.39,1.01,2.13,1.49c3.29,2.14,6.85,3.22,10.57,3.22c1.59,0,3.2-0.2,4.8-0.6
			c6.32-1.58,11.45-5.3,14.83-10.78c3.05-4.94,4.66-10.53,4.76-16.59l1.58-90.93c0.11-6.59-1.58-12.02-5.04-16.13
			C300.98,525.25,296.71,523.31,291.7,523.31L291.7,523.31z M238.43,611.99c0,0-0.07-0.04-0.21-0.18c-0.36-0.36-1.19-1.21-1.14-3.76
			c0.04-2.36,0.83-4.63,2.4-6.93c1.77-2.58,3.45-3.25,4.56-3.53c0.39-0.1,0.75-0.15,1.03-0.15c0.3,0,0.49,0.02,0.88,0.38
			c0.37,0.35,1.18,1.1,1.13,3.46c-0.04,2.29-0.87,4.52-2.53,6.83c-1.49,2.07-3.1,3.3-4.91,3.75c-0.48,0.12-0.8,0.15-0.99,0.15
			C238.49,612.01,238.43,611.99,238.43,611.99L238.43,611.99z"/>
	</g>
	<g class="st1">
		<path class="st2" d="M327.97,646.79c-1.55,0-3.09-0.17-4.57-0.5c-3.32-0.74-6.25-2.15-8.7-4.2c-2.43-2.02-4.38-4.65-5.78-7.83
			c-1.38-3.14-2.05-6.66-1.98-10.48l1.46-83.99c0.09-5.33,1.5-10.23,4.17-14.56c2.86-4.63,7.03-7.66,12.39-8.99
			c1.34-0.33,2.69-0.5,4.02-0.5c2.83,0,5.63,0.75,8.32,2.23c1.9,1.05,3.51,2.26,4.83,3.64c3.66-3.65,7.39-6.75,11.13-9.25
			c5.05-3.37,10.68-5.85,16.71-7.35c5.19-1.29,9.12-1.92,12.02-1.92c0.32,0,0.63,0.01,0.93,0.02c2.87,0.15,5.85,0.7,8.84,1.65
			c4.34,1.26,7.99,3.91,10.85,7.87c2.85,3.96,4.24,8.66,4.15,13.96c-0.06,3.53-0.77,7.07-2.11,10.53c-1.31,3.38-3.12,6.57-5.39,9.5
			c-2.28,2.94-4.9,5.48-7.8,7.53c-2.98,2.12-6.19,3.62-9.56,4.46c-2.17,0.54-4.55,0.9-7.08,1.06c-2.07,0.14-4.87,0.64-8.31,1.5
			c-2.98,0.74-3.82,2.29-4.21,3.55c-0.89,2.85-1.38,6.1-1.44,9.63l-1.15,38.44c-0.06,3.66-0.82,7.39-2.24,11.03
			c-1.39,3.56-3.24,6.84-5.51,9.77c-2.27,2.94-4.97,5.53-8.03,7.71c-3.15,2.25-6.53,3.84-10.06,4.72
			C331.87,646.53,329.88,646.79,327.97,646.79z"/>
		<path class="st2" d="M382,507.08c0.25,0,0.49,0.01,0.72,0.02c2.55,0.13,5.18,0.62,7.88,1.48c3.5,1.01,6.42,3.13,8.76,6.38
			c2.34,3.25,3.47,7.1,3.4,11.56c-0.05,3.08-0.67,6.14-1.84,9.15c-1.17,3.02-2.78,5.85-4.82,8.49c-2.05,2.64-4.36,4.88-6.95,6.72
			c-2.59,1.84-5.33,3.12-8.22,3.84c-1.93,0.48-4.05,0.8-6.37,0.95c-2.32,0.15-5.33,0.69-9.02,1.61c-3.69,0.92-6.05,3-7.06,6.24
			c-1.01,3.24-1.55,6.83-1.62,10.76l-1.15,38.39c-0.06,3.26-0.71,6.49-1.96,9.7c-1.26,3.21-2.91,6.14-4.95,8.78
			c-2.05,2.64-4.44,4.94-7.19,6.91c-2.75,1.97-5.65,3.33-8.7,4.09c-1.7,0.42-3.35,0.64-4.94,0.64c-1.27,0-2.5-0.13-3.69-0.4
			c-2.71-0.6-5.04-1.72-7.01-3.36c-1.97-1.64-3.53-3.76-4.69-6.38c-1.15-2.61-1.7-5.54-1.64-8.8l1.46-83.99
			c0.08-4.62,1.27-8.8,3.57-12.53c2.3-3.73,5.62-6.13,9.95-7.22c1.02-0.26,2.04-0.38,3.06-0.38c2.16,0,4.29,0.58,6.39,1.74
			c3.09,1.7,5.17,3.87,6.24,6.5c4.56-5.06,9.19-9.15,13.88-12.29c4.69-3.13,9.84-5.4,15.46-6.8
			C375.76,507.68,379.45,507.08,382,507.08 M382,499.08c-3.23,0-7.48,0.67-12.99,2.04c-6.49,1.62-12.53,4.28-17.97,7.91
			c-3.04,2.03-6.07,4.43-9.06,7.18c-0.86-0.62-1.78-1.2-2.76-1.74c-3.29-1.81-6.74-2.73-10.25-2.73c-1.66,0-3.34,0.21-4.99,0.62
			c-6.32,1.58-11.45,5.3-14.82,10.78c-3.06,4.94-4.66,10.53-4.76,16.59l-1.46,83.99c-0.08,4.41,0.71,8.5,2.32,12.17
			c1.66,3.75,3.98,6.88,6.89,9.3c2.94,2.45,6.44,4.14,10.39,5.02c1.75,0.39,3.58,0.59,5.43,0.59c2.24,0,4.55-0.29,6.88-0.87
			c4.01-1,7.86-2.8,11.42-5.34c3.37-2.41,6.36-5.28,8.87-8.52c2.5-3.23,4.54-6.85,6.07-10.76c1.59-4.07,2.43-8.24,2.51-12.42
			l1.14-38.35l0-0.05l0-0.05c0.05-3.16,0.48-6.02,1.26-8.51c0.1-0.32,0.18-0.57,1.36-0.86c4-1,6.35-1.31,7.61-1.39
			c2.76-0.18,5.38-0.57,7.78-1.17c3.85-0.96,7.53-2.67,10.92-5.08c3.21-2.27,6.12-5.08,8.64-8.34c2.5-3.23,4.5-6.76,5.95-10.49
			c1.51-3.9,2.31-7.91,2.38-11.91c0.11-6.19-1.54-11.7-4.9-16.37c-3.38-4.7-7.73-7.84-12.93-9.37c-3.3-1.04-6.6-1.65-9.8-1.82
			C382.77,499.08,382.39,499.08,382,499.08L382,499.08z"/>
	</g>
	<g class="st1">
		<path class="st2" d="M446.9,616.67c-3.48,0-6.88-0.38-10.11-1.12c-7.4-1.7-13.88-5.02-19.25-9.88c-5.33-4.81-9.49-11-12.38-18.37
			c-2.86-7.28-4.23-15.57-4.07-24.62c0.16-8.96,1.79-17.86,4.87-26.47c3.05-8.55,7.28-16.53,12.57-23.72
			c5.3-7.2,11.63-13.47,18.81-18.65c7.27-5.23,15.25-8.96,23.73-11.07c3.83-0.95,7.77-1.44,11.72-1.44c2.33,0,4.71,0.17,7.08,0.5
			c4.57,0.65,8.6,1.78,12.02,3.4c1.42-2.41,3.22-4.73,5.39-6.92c3.51-3.57,7.29-5.87,11.21-6.85c1.58-0.39,3.1-0.59,4.5-0.59
			c3.79,0,7.01,1.45,9.31,4.19c2.82,3.36,4.2,7.89,4.11,13.49l-1.58,90.93c-0.09,5.33-1.5,10.23-4.17,14.56
			c-2.86,4.63-7.02,7.66-12.39,8.99c-1.28,0.32-2.57,0.48-3.83,0.48c-2.94,0-5.76-0.87-8.4-2.58c-1.69-1.09-3.19-2.28-4.51-3.56
			c-4.14,4.31-8.55,7.8-13.16,10.41c-5.7,3.22-11.6,5.6-17.53,7.08C456.02,616.06,451.33,616.67,446.9,616.67z M466.34,536.99
			c-0.61,0-1.29,0.09-2,0.27c-2.73,0.68-4.99,2.37-6.89,5.15c-2.03,2.97-3.04,5.95-3.1,9.12c-0.05,2.85,0.7,5.01,2.29,6.63
			c0.95,0.97,1.97,1.4,3.29,1.4h0c0.59,0,1.25-0.09,1.95-0.26c2.77-0.69,5.12-2.42,7.19-5.29c2.15-2.99,3.22-5.96,3.28-9.1
			c0.05-2.82-0.72-4.87-2.41-6.46C468.89,537.46,467.74,536.99,466.34,536.99z"/>
		<path class="st2" d="M512.98,474.86c2.62,0,4.7,0.92,6.25,2.76c2.19,2.61,3.25,6.22,3.17,10.85l-1.58,90.93
			c-0.08,4.62-1.27,8.8-3.57,12.53c-2.3,3.73-5.62,6.13-9.95,7.22c-0.97,0.24-1.93,0.36-2.86,0.36c-2.16,0-4.23-0.64-6.22-1.93
			c-2.85-1.85-5.05-3.94-6.6-6.28c-4.73,5.62-9.8,9.95-15.21,13c-5.41,3.05-10.92,5.28-16.54,6.68c-4.52,1.13-8.85,1.69-12.97,1.69
			c-3.19,0-6.26-0.34-9.22-1.02c-6.77-1.55-12.59-4.53-17.47-8.94c-4.88-4.41-8.66-10.03-11.33-16.86
			c-2.68-6.83-3.95-14.53-3.8-23.09c0.15-8.56,1.69-16.96,4.63-25.2c2.94-8.23,6.95-15.8,12.02-22.69
			c5.07-6.89,11.05-12.82,17.93-17.77c6.88-4.95,14.33-8.43,22.36-10.44c3.53-0.88,7.11-1.32,10.75-1.32c2.15,0,4.33,0.15,6.52,0.46
			c5.9,0.83,10.66,2.5,14.29,5c1.34-3.4,3.51-6.63,6.52-9.68c3.01-3.05,6.12-4.98,9.33-5.78
			C510.72,475.02,511.9,474.86,512.98,474.86 M459.94,563.56c0.92,0,1.9-0.13,2.92-0.38c3.69-0.92,6.85-3.2,9.47-6.84
			c2.62-3.64,3.96-7.42,4.03-11.36c0.07-3.94-1.16-7.08-3.67-9.44c-1.81-1.69-3.92-2.54-6.34-2.54c-0.94,0-1.93,0.13-2.97,0.39
			c-3.69,0.92-6.77,3.18-9.23,6.78c-2.46,3.6-3.73,7.37-3.79,11.31c-0.07,3.94,1.08,7.11,3.43,9.5
			C455.49,562.69,457.54,563.56,459.94,563.56 M512.98,466.86c-1.73,0-3.57,0.24-5.47,0.71c-4.65,1.16-9.05,3.83-13.09,7.93
			c-1.51,1.53-2.87,3.13-4.06,4.77c-3-1.09-6.32-1.89-9.93-2.4c-2.56-0.36-5.13-0.54-7.64-0.54c-4.28,0-8.55,0.52-12.69,1.56
			c-8.97,2.24-17.41,6.18-25.09,11.7c-7.53,5.42-14.15,11.99-19.7,19.52c-5.52,7.5-9.93,15.82-13.11,24.75
			c-3.22,9.01-4.93,18.35-5.1,27.74c-0.17,9.58,1.3,18.38,4.35,26.15c3.11,7.95,7.63,14.64,13.42,19.88
			c5.88,5.32,12.96,8.96,21.04,10.81c3.52,0.81,7.22,1.22,11,1.22c4.75,0,9.77-0.65,14.91-1.93c6.29-1.57,12.52-4.08,18.53-7.48
			c3.96-2.23,7.77-5.07,11.39-8.47c0.68,0.51,1.39,1.01,2.13,1.49c3.29,2.14,6.85,3.22,10.57,3.22c1.59,0,3.2-0.2,4.8-0.6
			c6.32-1.58,11.45-5.3,14.83-10.78c3.05-4.94,4.66-10.53,4.76-16.59l1.58-90.93c0.11-6.59-1.58-12.02-5.04-16.13
			C522.27,468.8,517.99,466.86,512.98,466.86L512.98,466.86z M459.71,555.54c0,0-0.07-0.04-0.21-0.18
			c-0.36-0.36-1.19-1.21-1.14-3.76c0.04-2.36,0.83-4.63,2.4-6.93c1.77-2.58,3.45-3.25,4.56-3.53c0.39-0.1,0.75-0.15,1.03-0.15
			c0.3,0,0.49,0.02,0.88,0.38c0.37,0.35,1.18,1.1,1.13,3.46c-0.04,2.29-0.87,4.52-2.53,6.83c-1.49,2.07-3.1,3.3-4.91,3.75
			c-0.48,0.12-0.8,0.15-0.99,0.15C459.78,555.56,459.71,555.54,459.71,555.54L459.71,555.54z"/>
	</g>
	<g class="st1">
		<path class="st2" d="M580.44,583.31c-3.44,0-6.83-0.35-10.08-1.04c-7.61-1.62-14.35-4.84-20.04-9.57
			c-5.67-4.72-10.14-10.82-13.29-18.15c-3.13-7.26-4.64-15.55-4.48-24.66c0.16-8.99,1.92-17.96,5.26-26.65
			c3.3-8.62,7.82-16.67,13.43-23.92c5.61-7.26,12.22-13.58,19.63-18.81c7.5-5.28,15.59-9.03,24.05-11.14
			c4.89-1.22,9.69-1.84,14.26-1.84c3.44,0,6.83,0.35,10.09,1.04c7.62,1.63,14.36,4.85,20.04,9.57c5.66,4.72,10.14,10.82,13.29,18.15
			c3.13,7.28,4.64,15.57,4.48,24.65c-0.16,8.98-1.93,17.95-5.26,26.65c-3.3,8.61-7.82,16.66-13.43,23.92
			c-5.62,7.26-12.22,13.59-19.63,18.81c-7.49,5.28-15.58,9.02-24.05,11.14C589.81,582.69,585.01,583.31,580.44,583.31z
			 M598.01,504.14c-0.6,0-1.27,0.09-1.97,0.27c-2.75,0.69-5.06,2.4-7.04,5.22c-2.09,2.98-3.13,5.95-3.19,9.11
			c-0.05,2.82,0.72,4.96,2.34,6.54c1.02,0.99,2.08,1.43,3.45,1.43c0,0,0,0,0,0c0.6,0,1.27-0.09,1.98-0.27
			c2.75-0.69,5.05-2.4,7.04-5.23c2.09-2.98,3.13-5.96,3.19-9.1c0.05-2.81-0.72-4.95-2.35-6.54
			C600.46,504.58,599.39,504.14,598.01,504.14z"/>
		<path class="st2" d="M609.18,451.54c3.18,0,6.26,0.32,9.26,0.95c7,1.49,13.11,4.4,18.31,8.73c5.2,4.33,9.26,9.88,12.18,16.65
			c2.92,6.78,4.31,14.44,4.16,23c-0.15,8.56-1.82,16.99-5,25.29c-3.18,8.3-7.47,15.93-12.86,22.9
			c-5.39,6.97-11.65,12.97-18.77,17.98c-7.12,5.02-14.69,8.52-22.72,10.53c-4.6,1.15-9.04,1.72-13.3,1.72
			c-3.18,0-6.26-0.32-9.25-0.96c-7.01-1.49-13.11-4.4-18.31-8.73c-5.2-4.33-9.26-9.88-12.18-16.65c-2.92-6.77-4.3-14.44-4.16-23
			c0.15-8.56,1.81-16.99,4.99-25.29c3.18-8.29,7.47-15.93,12.86-22.9c5.39-6.97,11.65-12.97,18.77-17.98
			c7.12-5.01,14.69-8.52,22.72-10.53C600.49,452.11,604.92,451.54,609.18,451.54 M591.61,530.71c0.93,0,1.92-0.13,2.95-0.39
			c3.69-0.92,6.8-3.19,9.35-6.81c2.54-3.62,3.84-7.39,3.91-11.34c0.07-3.94-1.12-7.09-3.55-9.47c-1.76-1.71-3.84-2.57-6.25-2.57
			c-0.93,0-1.91,0.13-2.94,0.39c-3.69,0.92-6.81,3.19-9.35,6.81c-2.54,3.62-3.84,7.4-3.91,11.34c-0.07,3.94,1.11,7.1,3.55,9.47
			C587.12,529.85,589.2,530.71,591.61,530.71 M609.18,443.54L609.18,443.54c-4.9,0-10.02,0.66-15.23,1.96
			c-8.94,2.23-17.48,6.18-25.39,11.75c-7.74,5.45-14.64,12.06-20.49,19.63c-5.85,7.56-10.56,15.95-14,24.93
			c-3.5,9.13-5.36,18.55-5.52,28.01c-0.17,9.67,1.45,18.52,4.81,26.31c3.4,7.9,8.25,14.51,14.4,19.63
			c6.19,5.15,13.51,8.66,21.77,10.41c3.51,0.75,7.19,1.13,10.91,1.13c4.9,0,10.02-0.66,15.24-1.96c8.95-2.23,17.49-6.19,25.39-11.75
			c7.73-5.45,14.63-12.05,20.49-19.63c5.85-7.56,10.56-15.95,14-24.93c3.5-9.14,5.36-18.56,5.52-28.01
			c0.17-9.65-1.45-18.5-4.81-26.31c-3.41-7.91-8.25-14.52-14.4-19.64c-6.18-5.15-13.5-8.65-21.76-10.41
			C616.57,443.92,612.9,443.54,609.18,443.54L609.18,443.54z M591.61,522.71c-0.26,0-0.35,0-0.65-0.29
			c-0.59-0.58-1.18-1.45-1.14-3.61c0.04-2.33,0.85-4.58,2.46-6.88c1.88-2.67,3.6-3.36,4.74-3.64c0.49-0.12,0.82-0.15,1.01-0.15
			c0.26,0,0.36,0,0.67,0.3c0.57,0.56,1.17,1.44,1.13,3.6c-0.04,2.32-0.85,4.57-2.46,6.88c-1.88,2.67-3.6,3.36-4.73,3.64
			C592.13,522.68,591.8,522.71,591.61,522.71L591.61,522.71z"/>
	</g>
	<g class="st1">
		<path class="st2" d="M683.15,558.61c-4.9,0-9.23-1.54-12.89-4.58c-5.21-4.34-7.78-10.64-7.64-18.73l2-115.33
			c0.13-7.52,2.69-14.6,7.61-21.06c4.96-6.5,11.17-10.72,18.47-12.54c2.03-0.51,4.06-0.76,6.02-0.76c1.53,0,3.05,0.16,4.52,0.46
			c3.41,0.72,6.4,2.12,8.87,4.17c2.46,2.06,4.41,4.75,5.81,8.01c1.37,3.22,2.03,6.77,1.96,10.57l-0.62,35.98l26.36-26.74
			c2.74-2.97,5.8-5.33,9.09-7.02c3.33-1.71,6.72-2.75,10.09-3.1c0.79-0.08,1.58-0.12,2.35-0.12c2.65,0,5.22,0.47,7.63,1.41
			c3.18,1.24,5.96,3.27,8.26,6.04l0.07,0.08c4.29,5.45,5.88,11.97,4.72,19.38c-1.11,7.1-4.6,13.73-10.37,19.7l-12.04,12.2
			l17.32,23.7c2.21,2.5,3.82,5.47,4.79,8.83c0.97,3.35,1.28,6.88,0.94,10.5c-0.33,3.55-1.3,7.15-2.89,10.71
			c-1.6,3.58-3.89,6.92-6.8,9.94c-5.68,6.02-12.03,9.4-18.86,10.01c-0.74,0.07-1.48,0.1-2.2,0.1c-6.21,0-11.45-2.43-15.58-7.21
			l-0.12-0.14l-17.7-24.93c-2.52,2.56-4.22,4.25-5.09,5.05c-0.44,0.41-0.84,0.77-1.18,1.09l-0.17,9.87
			c-0.13,7.71-2.75,14.86-7.77,21.26c-5.04,6.42-11.2,10.57-18.31,12.34C687.5,558.32,685.26,558.61,683.15,558.61z"/>
		<path class="st2" d="M696.73,389.59c1.26,0,2.49,0.13,3.7,0.38c2.79,0.59,5.16,1.7,7.14,3.34c1.97,1.64,3.53,3.81,4.68,6.5
			c1.15,2.7,1.7,5.67,1.64,8.93l-0.8,45.98l33.43-33.91c2.44-2.66,5.11-4.73,8.02-6.22c2.9-1.49,5.79-2.38,8.68-2.68
			c0.66-0.07,1.31-0.1,1.94-0.1c2.16,0,4.23,0.38,6.19,1.14c2.54,0.99,4.75,2.61,6.63,4.87c3.6,4.56,4.9,9.99,3.91,16.29
			c-0.99,6.3-4.09,12.15-9.29,17.54l-14.4,14.59l19.44,26.61c1.88,2.09,3.24,4.56,4.07,7.43c0.83,2.86,1.1,5.87,0.8,9.01
			c-0.29,3.14-1.15,6.3-2.56,9.46c-1.41,3.17-3.43,6.1-6.03,8.79c-5.05,5.35-10.49,8.28-16.33,8.81c-0.63,0.06-1.24,0.08-1.85,0.08
			c-5.02,0-9.2-1.94-12.56-5.83l-20.36-28.68c-4.39,4.51-7.16,7.28-8.3,8.33c-1.14,1.05-1.95,1.81-2.43,2.27l-0.2,11.56
			c-0.12,6.85-2.43,13.14-6.92,18.86c-4.5,5.73-9.87,9.37-16.13,10.93c-2,0.5-3.9,0.75-5.69,0.75c-3.96,0-7.4-1.22-10.33-3.66
			c-4.25-3.54-6.32-8.74-6.2-15.59l2-115.33c0.12-6.68,2.38-12.91,6.8-18.7c4.42-5.79,9.83-9.49,16.26-11.09
			C693.4,389.81,695.09,389.59,696.73,389.59 M696.73,381.59c-2.29,0-4.64,0.3-6.99,0.88c-8.2,2.05-15.16,6.76-20.68,14
			c-5.45,7.15-8.29,15.03-8.43,23.42l-2,115.33c-0.2,11.66,4.83,18.33,9.08,21.88c4.39,3.66,9.59,5.51,15.45,5.51
			c2.43,0,5-0.33,7.62-0.99c7.99-1.99,14.89-6.62,20.49-13.75c5.58-7.11,8.48-15.07,8.63-23.67l0.14-8.16
			c0.43-0.4,1.03-0.98,1.79-1.73l14.84,20.9l0.22,0.31l0.25,0.29c4.86,5.63,11.29,8.6,18.61,8.6c0.84,0,1.7-0.04,2.56-0.12
			c7.81-0.7,15.01-4.48,21.41-11.25c3.23-3.35,5.76-7.07,7.54-11.05c1.77-3.97,2.85-8,3.22-11.98c0.39-4.11,0.02-8.14-1.08-11.97
			c-1.12-3.88-2.98-7.31-5.51-10.23L768.67,467l9.62-9.75l0.03-0.03l0.03-0.03c6.35-6.57,10.2-13.93,11.44-21.86
			c1.34-8.56-0.52-16.12-5.53-22.48l-0.07-0.08l-0.07-0.08c-2.74-3.29-6.06-5.72-9.87-7.2c-2.9-1.12-5.95-1.69-9.1-1.69
			c-0.9,0-1.83,0.05-2.75,0.14c-3.88,0.4-7.76,1.58-11.53,3.52c-3.69,1.89-7.11,4.52-10.15,7.81l-19.29,19.57l0.45-25.98
			c0.08-4.36-0.69-8.47-2.28-12.2c-1.65-3.85-3.97-7.05-6.91-9.5c-3-2.49-6.57-4.18-10.62-5.03
			C700.33,381.78,698.53,381.59,696.73,381.59L696.73,381.59z"/>
	</g>
	<g class="st1">
		<path class="st2" d="M830.35,520.96c-3.44,0-6.83-0.35-10.08-1.04c-7.61-1.62-14.35-4.84-20.03-9.57
			c-5.67-4.72-10.14-10.83-13.29-18.15c-3.13-7.27-4.64-15.56-4.48-24.65c0.16-8.98,1.92-17.95,5.26-26.65
			c3.3-8.62,7.82-16.66,13.44-23.92c5.61-7.26,12.22-13.58,19.63-18.8c7.5-5.28,15.59-9.03,24.05-11.14
			c5.25-1.31,10.39-1.98,15.28-1.98c3.04,0,6.04,0.26,8.93,0.76c7.62,1.34,14.37,4.24,20.07,8.6c5.71,4.38,10.22,10.19,13.41,17.29
			c3.15,7.04,4.67,15.22,4.51,24.33c-0.05,2.72-0.67,5.57-1.86,8.48c-1.16,2.85-2.8,5.52-4.87,7.91c-2.01,2.31-4.35,4.4-6.97,6.19
			c-2.71,1.86-5.6,3.18-8.59,3.94c-1.37,0.4-2.71,0.77-4.03,1.13c0.06,0.04,0.12,0.08,0.18,0.12c3.57,2.44,7.8,7.23,7.64,16.23
			c-0.08,4.62-1.51,9.3-4.25,13.89c-2.64,4.42-5.81,8.09-9.43,10.89c-4.25,3.39-9.18,6.35-14.62,8.79c-5.35,2.4-10.6,4.25-15.62,5.5
			C839.72,520.34,834.92,520.96,830.35,520.96z"/>
		<path class="st2" d="M860.11,389.06c2.82,0,5.57,0.23,8.25,0.7c7.01,1.24,13.12,3.85,18.33,7.83c5.2,3.99,9.27,9.24,12.19,15.76
			c2.92,6.52,4.31,14.06,4.16,22.62c-0.04,2.23-0.56,4.58-1.56,7.04c-1,2.47-2.4,4.74-4.19,6.8c-1.8,2.07-3.87,3.91-6.21,5.51
			c-2.35,1.61-4.81,2.73-7.37,3.37c-4.34,1.25-8.39,2.31-12.16,3.16c-3.77,0.86-7.55,1.72-11.31,2.57
			c-3.77,0.86-7.7,1.75-11.79,2.69c-4.09,0.94-8.63,2.02-13.6,3.26c0.76,2.03,1.86,3.33,3.29,3.91c0.66,0.27,1.45,0.4,2.39,0.4
			c1.09,0,2.37-0.18,3.85-0.55c1.77-0.44,3.37-1.06,4.83-1.84c1.45-0.79,2.94-1.63,4.48-2.52c1.53-0.9,3.15-1.77,4.84-2.62
			c1.69-0.84,3.66-1.55,5.91-2.11c1.81-0.45,3.54-0.68,5.19-0.68c3.33,0,6.35,0.92,9.04,2.75c4.03,2.75,5.99,7.03,5.89,12.85
			c-0.07,3.94-1.3,7.91-3.68,11.92c-2.39,4.01-5.2,7.27-8.44,9.78c-4.05,3.23-8.65,5.99-13.81,8.3c-5.15,2.31-10.14,4.06-14.95,5.27
			c-4.6,1.15-9.03,1.72-13.3,1.72c-3.18,0-6.26-0.32-9.25-0.96c-7.01-1.49-13.11-4.4-18.31-8.73s-9.26-9.88-12.18-16.65
			c-2.92-6.77-4.3-14.44-4.16-23c0.15-8.56,1.81-16.99,4.99-25.29c3.18-8.29,7.47-15.93,12.86-22.9
			c5.39-6.97,11.65-12.97,18.77-17.98c7.12-5.01,14.69-8.52,22.72-10.53C850.77,389.68,855.54,389.06,860.11,389.06 M835.86,439.44
			l18.3-4.56c-0.29-1.8-1.35-3.07-3.17-3.81c-1.07-0.43-2.19-0.65-3.35-0.65c-0.82,0-1.66,0.11-2.52,0.32
			c-2.25,0.56-4.22,1.65-5.93,3.27C837.48,435.62,836.37,437.43,835.86,439.44 M860.11,381.06L860.11,381.06
			c-5.21,0-10.68,0.7-16.25,2.09c-8.94,2.23-17.48,6.18-25.38,11.75c-7.74,5.45-14.63,12.06-20.49,19.63
			c-5.85,7.57-10.57,15.95-14.01,24.93c-3.5,9.14-5.36,18.56-5.52,28.01c-0.17,9.66,1.45,18.51,4.81,26.31
			c3.4,7.9,8.25,14.51,14.41,19.64c6.19,5.16,13.51,8.66,21.76,10.41c3.52,0.75,7.19,1.13,10.91,1.13c4.9,0,10.02-0.66,15.24-1.96
			c5.24-1.31,10.72-3.23,16.29-5.73c5.73-2.57,10.94-5.7,15.48-9.32c4-3.11,7.49-7.14,10.37-11.97c3.1-5.21,4.72-10.55,4.81-15.87
			c0.11-6.46-1.7-11.14-4.12-14.49c2.49-0.89,4.89-2.13,7.18-3.7c2.9-1.99,5.5-4.3,7.73-6.87c2.36-2.72,4.23-5.76,5.56-9.03
			c1.37-3.35,2.09-6.69,2.15-9.91c0.17-9.7-1.47-18.46-4.86-26.03c-3.47-7.72-8.39-14.05-14.63-18.84
			c-6.22-4.76-13.55-7.9-21.8-9.36C866.62,381.34,863.38,381.06,860.11,381.06L860.11,381.06z"/>
	</g>
</g>
<g id="k9_karaoke_copy">
	<g>
		<path class="st2" d="M239.52,242.91c3.38-3.9,7.01-6.98,10.9-9.25c3.9-2.26,7.84-3.77,11.82-4.53c3.98-0.76,7.83-0.66,11.56,0.29
			c3.73,0.95,7.01,2.84,9.82,5.66c2.81,2.83,4.79,6.21,5.94,10.16c1.14,3.95,1.52,8.08,1.11,12.42c-0.4,4.33-1.53,8.67-3.37,13.01
			c-1.84,4.34-4.44,8.46-7.82,12.35l-39.47,45.12l43.8,67.38c2.14,3.47,3.45,7.32,3.93,11.54c0.48,4.23,0.23,8.53-0.72,12.88
			c-0.96,4.35-2.68,8.6-5.18,12.75c-2.5,4.15-5.65,7.88-9.45,11.18c-3.81,3.54-7.77,6.12-11.87,7.72
			c-4.11,1.61-8.04,2.36-11.78,2.23c-3.75-0.12-7.26-1.07-10.53-2.84c-3.28-1.77-5.99-4.38-8.13-7.85l-37.65-60.1l-8.77,9.95
			l-2.69,2.79l-0.74,42.87c-0.16,9.45-3.34,18.12-9.54,26.02c-6.2,7.9-13.62,12.92-22.25,15.07c-8.86,2.21-16.21,0.87-22.08-4.01
			c-5.87-4.89-8.72-12.05-8.56-21.5l2.71-156.59c-0.15-4.2-0.63-8.31-1.44-12.34c-0.81-4.03-1.02-7.8-0.63-11.31
			c0.39-3.51,1.93-6.65,4.63-9.44c2.69-2.79,7.69-5.09,15-6.91l14.28-3.56c8.41-2.1,15.55-0.76,21.42,4
			c5.87,4.77,8.94,11.94,9.22,21.51l-0.5,28.69L239.52,242.91z"/>
	</g>
	<g>
		<path class="st2" d="M383.32,279.33c8.63-2.15,15.94-0.8,21.92,4.05c5.98,4.86,8.88,12.02,8.72,21.46
			c-0.08,4.73-0.99,9.3-2.72,13.73c-1.73,4.43-4.01,8.47-6.82,12.11c-2.82,3.65-6.18,6.83-10.08,9.57
			c-3.91,2.74-7.96,4.63-12.17,5.68l-66.75,16.65c-8.85,2.21-16.21,0.81-22.08-4.19s-8.72-12.11-8.56-21.32
			c0.16-9.45,3.29-18.11,9.38-25.98c6.09-7.87,13.56-12.9,22.41-15.11L383.32,279.33z"/>
	</g>
	<g>
		<path class="st2" d="M602.57,282.16c-0.11,6.61-0.89,13.33-2.33,20.16c-1.44,6.83-3.54,13.29-6.29,19.38l-37.27,89.72
			c-1.84,4.46-4.34,8.55-7.49,12.28c-3.15,3.72-6.62,6.76-10.41,9.12c-3.79,2.36-7.73,3.98-11.83,4.89c-4.1,0.9-8.12,0.9-12.07,0.01
			c-3.95-1.13-7.45-3.03-10.48-5.67c-3.05-2.65-5.25-5.87-6.61-9.64c-1.37-3.78-1.91-7.81-1.61-12.12c0.29-4.31,1.8-8.69,4.52-13.12
			l4.42-7.1c-9.05,0.14-17.45-1.35-25.22-4.46c-7.77-3.12-14.53-7.66-20.26-13.64c-5.74-5.98-10.19-13.16-13.35-21.54
			c-3.16-8.38-4.65-17.77-4.47-28.16c0.2-11.81,2.5-23.43,6.89-34.88c4.38-11.44,10.3-21.97,17.74-31.59
			c7.45-9.62,16.07-17.88,25.89-24.81c9.82-6.92,20.26-11.76,31.33-14.52c11.07-2.76,21.43-3.11,31.1-1.06
			c9.66,2.06,18.08,6.07,25.25,12.05c7.17,5.97,12.77,13.63,16.8,22.97C600.85,259.78,602.77,270.35,602.57,282.16z M539.14,297.98
			c0.09-5.43-1.38-9.59-4.41-12.48c-3.04-2.89-7.1-3.7-12.19-2.43c-5.1,1.27-9.22,4.12-12.38,8.56c-3.17,4.44-4.79,9.37-4.89,14.8
			c-0.09,5.44,1.37,9.6,4.41,12.48c3.03,2.89,7.1,3.7,12.19,2.43c5.09-1.27,9.22-4.12,12.38-8.56
			C537.41,308.35,539.04,303.42,539.14,297.98z"/>
	</g>
	<g>
		<path class="st2" d="M140.56,534.39c2.45-2.83,5.08-5.06,7.91-6.7c2.82-1.64,5.68-2.74,8.57-3.29c2.89-0.55,5.68-0.48,8.38,0.21
			c2.7,0.69,5.08,2.06,7.12,4.1c2.04,2.05,3.48,4.5,4.31,7.37c0.83,2.86,1.1,5.86,0.8,9.01c-0.29,3.14-1.11,6.29-2.44,9.43
			c-1.33,3.15-3.22,6.13-5.67,8.96l-28.61,32.71l31.75,48.85c1.55,2.51,2.5,5.3,2.85,8.37c0.34,3.07,0.17,6.18-0.52,9.34
			c-0.69,3.16-1.95,6.24-3.76,9.25c-1.81,3.01-4.1,5.71-6.85,8.1c-2.76,2.57-5.63,4.44-8.61,5.6c-2.98,1.17-5.83,1.71-8.54,1.62
			c-2.72-0.09-5.26-0.77-7.64-2.06c-2.38-1.28-4.34-3.18-5.89-5.69L106.44,636l-6.36,7.21l-1.95,2.02l-0.54,31.08
			c-0.12,6.85-2.43,13.14-6.92,18.86c-4.5,5.73-9.87,9.37-16.13,10.93c-6.42,1.6-11.76,0.63-16.01-2.91s-6.32-8.74-6.2-15.59
			l1.97-113.53c-0.11-3.04-0.46-6.03-1.04-8.95c-0.59-2.92-0.74-5.66-0.46-8.2c0.29-2.54,1.4-4.82,3.36-6.85
			c1.95-2.02,5.58-3.69,10.87-5.01l10.35-2.58c6.1-1.52,11.28-0.55,15.53,2.9c4.26,3.46,6.48,8.66,6.68,15.6l-0.36,20.8
			L140.56,534.39z"/>
	</g>
	<g>
		<path class="st2" d="M180.81,616.2c0.15-8.56,1.69-16.96,4.63-25.2c2.94-8.23,6.95-15.8,12.02-22.69
			c5.07-6.89,11.05-12.82,17.93-17.77c6.88-4.95,14.33-8.43,22.36-10.44c5.62-1.4,11.37-1.69,17.28-0.86c5.9,0.83,10.66,2.5,14.3,5
			c1.34-3.4,3.51-6.63,6.52-9.68c3.01-3.05,6.12-4.98,9.33-5.78c4.33-1.08,7.59-0.32,9.79,2.29c2.19,2.61,3.25,6.22,3.17,10.85
			l-1.58,90.93c-0.08,4.62-1.27,8.8-3.57,12.53c-2.3,3.73-5.62,6.13-9.95,7.22c-3.21,0.8-6.24,0.28-9.08-1.57
			c-2.85-1.85-5.05-3.94-6.6-6.28c-4.73,5.62-9.8,9.95-15.21,13c-5.41,3.05-10.92,5.28-16.54,6.68c-8.03,2-15.42,2.23-22.19,0.68
			c-6.77-1.55-12.59-4.53-17.47-8.94c-4.88-4.41-8.66-10.03-11.33-16.86C181.92,632.46,180.66,624.77,180.81,616.2z M226.07,604.91
			c-0.07,3.94,1.08,7.11,3.43,9.5c2.35,2.4,5.38,3.13,9.07,2.21c3.69-0.92,6.85-3.2,9.47-6.84c2.62-3.64,3.96-7.42,4.03-11.36
			c0.07-3.94-1.16-7.08-3.67-9.44c-2.52-2.35-5.62-3.07-9.31-2.15c-3.69,0.92-6.77,3.18-9.23,6.78
			C227.41,597.2,226.14,600.97,226.07,604.91z"/>
	</g>
	<g>
		<path class="st2" d="M309.39,536.85c0.08-4.62,1.27-8.8,3.57-12.53c2.3-3.73,5.62-6.13,9.95-7.22c3.21-0.8,6.36-0.35,9.44,1.35
			c3.09,1.7,5.17,3.87,6.24,6.5c4.56-5.06,9.19-9.15,13.88-12.29c4.69-3.13,9.84-5.4,15.46-6.8c5.3-1.32,9.22-1.92,11.78-1.79
			c2.55,0.13,5.18,0.62,7.88,1.48c3.5,1.01,6.42,3.13,8.76,6.38c2.34,3.25,3.47,7.1,3.4,11.56c-0.05,3.08-0.67,6.14-1.84,9.15
			c-1.17,3.02-2.78,5.85-4.82,8.49c-2.05,2.64-4.36,4.88-6.95,6.72c-2.59,1.84-5.33,3.12-8.22,3.84c-1.93,0.48-4.05,0.8-6.37,0.95
			c-2.32,0.15-5.33,0.69-9.02,1.61c-3.69,0.92-6.05,3-7.06,6.24c-1.01,3.24-1.55,6.83-1.62,10.76l-1.15,38.39
			c-0.06,3.26-0.71,6.49-1.96,9.7c-1.26,3.21-2.91,6.14-4.95,8.78c-2.05,2.64-4.44,4.94-7.19,6.91c-2.75,1.97-5.65,3.33-8.7,4.09
			c-3.05,0.76-5.93,0.84-8.63,0.23c-2.71-0.6-5.04-1.72-7.01-3.36c-1.97-1.64-3.53-3.76-4.69-6.38c-1.15-2.61-1.7-5.54-1.64-8.8
			L309.39,536.85z"/>
	</g>
	<g>
		<path class="st2" d="M402.09,559.75c0.15-8.56,1.69-16.96,4.63-25.2c2.94-8.23,6.95-15.8,12.02-22.69
			c5.07-6.89,11.05-12.82,17.93-17.77c6.88-4.95,14.33-8.43,22.36-10.44c5.62-1.4,11.37-1.69,17.28-0.86c5.9,0.83,10.66,2.5,14.3,5
			c1.34-3.4,3.51-6.63,6.52-9.68c3.01-3.05,6.12-4.98,9.33-5.78c4.33-1.08,7.59-0.32,9.79,2.29c2.19,2.61,3.25,6.22,3.17,10.85
			l-1.58,90.93c-0.08,4.62-1.27,8.8-3.57,12.53c-2.3,3.73-5.62,6.13-9.95,7.22c-3.21,0.8-6.24,0.28-9.08-1.57
			c-2.85-1.85-5.05-3.94-6.6-6.28c-4.73,5.62-9.8,9.95-15.21,13c-5.41,3.05-10.92,5.28-16.54,6.68c-8.03,2-15.42,2.23-22.19,0.68
			c-6.77-1.55-12.59-4.53-17.47-8.94c-4.88-4.41-8.66-10.03-11.33-16.86C403.21,576.01,401.94,568.32,402.09,559.75z M447.35,548.46
			c-0.07,3.94,1.08,7.11,3.43,9.5c2.35,2.4,5.38,3.13,9.07,2.21c3.69-0.92,6.85-3.2,9.47-6.84c2.62-3.64,3.96-7.42,4.03-11.36
			c0.07-3.94-1.16-7.08-3.67-9.44c-2.52-2.35-5.62-3.07-9.31-2.15c-3.69,0.92-6.77,3.18-9.23,6.78
			C448.69,540.75,447.42,544.52,447.35,548.46z"/>
	</g>
	<g>
		<path class="st2" d="M533.55,526.96c0.15-8.56,1.81-16.99,4.99-25.29c3.18-8.29,7.47-15.93,12.86-22.9s11.65-12.97,18.77-17.98
			c7.12-5.01,14.69-8.52,22.72-10.53c8.02-2,15.54-2.25,22.55-0.77c7,1.49,13.11,4.4,18.31,8.73s9.26,9.88,12.18,16.65
			c2.92,6.78,4.31,14.44,4.16,23c-0.15,8.56-1.82,16.99-5,25.29c-3.18,8.3-7.47,15.93-12.86,22.9s-11.65,12.97-18.77,17.98
			c-7.12,5.02-14.69,8.52-22.72,10.53c-8.03,2-15.55,2.26-22.55,0.77c-7.01-1.49-13.11-4.4-18.31-8.73
			c-5.2-4.33-9.26-9.88-12.18-16.65C534.78,543.19,533.4,535.52,533.55,526.96z M578.81,515.67c-0.07,3.94,1.11,7.1,3.55,9.47
			c2.43,2.38,5.5,3.1,9.19,2.18c3.69-0.92,6.8-3.19,9.35-6.81c2.54-3.62,3.84-7.39,3.91-11.34c0.07-3.94-1.12-7.09-3.55-9.47
			c-2.44-2.37-5.5-3.1-9.19-2.18c-3.69,0.92-6.81,3.19-9.35,6.81C580.18,507.95,578.88,511.73,578.81,515.67z"/>
	</g>
	<g>
		<path class="st2" d="M743.52,417.8c2.44-2.66,5.11-4.73,8.02-6.22c2.9-1.49,5.79-2.38,8.68-2.68c2.88-0.29,5.59,0.06,8.13,1.04
			c2.54,0.99,4.75,2.61,6.63,4.87c3.6,4.56,4.9,9.99,3.91,16.29c-0.99,6.3-4.09,12.15-9.29,17.54l-14.4,14.59l19.44,26.61
			c1.88,2.09,3.24,4.56,4.07,7.43c0.83,2.86,1.1,5.87,0.8,9.01c-0.29,3.14-1.15,6.3-2.56,9.46c-1.41,3.17-3.43,6.1-6.03,8.79
			c-5.05,5.35-10.49,8.28-16.33,8.81c-5.84,0.52-10.64-1.39-14.4-5.74l-20.36-28.68c-4.39,4.51-7.16,7.28-8.3,8.33
			c-1.14,1.05-1.95,1.81-2.43,2.27l-0.2,11.56c-0.12,6.85-2.43,13.14-6.92,18.86c-4.5,5.73-9.87,9.37-16.13,10.93
			c-6.42,1.6-11.76,0.63-16.01-2.91c-4.25-3.54-6.32-8.74-6.2-15.59l2-115.33c0.12-6.68,2.38-12.91,6.8-18.7
			c4.42-5.79,9.83-9.49,16.26-11.09c3.04-0.76,5.97-0.85,8.75-0.27c2.79,0.59,5.16,1.7,7.14,3.34c1.97,1.64,3.53,3.81,4.68,6.5
			c1.15,2.7,1.7,5.67,1.64,8.93l-0.8,45.98L743.52,417.8z"/>
	</g>
	<g>
		<path class="st2" d="M900.04,432.97c-0.04,2.23-0.56,4.58-1.56,7.04c-1,2.47-2.4,4.74-4.19,6.8c-1.8,2.07-3.87,3.91-6.21,5.51
			c-2.35,1.61-4.81,2.73-7.37,3.37c-4.34,1.25-8.39,2.31-12.16,3.16c-3.77,0.86-7.55,1.72-11.31,2.57
			c-3.77,0.86-7.7,1.75-11.79,2.69c-4.09,0.94-8.63,2.02-13.6,3.26c0.76,2.03,1.86,3.33,3.29,3.91c1.43,0.58,3.5,0.53,6.23-0.15
			c1.77-0.44,3.37-1.06,4.83-1.84c1.45-0.79,2.94-1.63,4.48-2.52c1.53-0.9,3.15-1.77,4.84-2.62c1.69-0.84,3.66-1.55,5.91-2.11
			c5.46-1.36,10.2-0.67,14.23,2.08c4.03,2.75,5.99,7.03,5.89,12.85c-0.07,3.94-1.3,7.91-3.68,11.92c-2.39,4.01-5.2,7.27-8.44,9.78
			c-4.05,3.23-8.65,5.99-13.81,8.3c-5.15,2.31-10.14,4.06-14.95,5.27c-8.03,2-15.54,2.26-22.55,0.77
			c-7.01-1.49-13.11-4.4-18.31-8.73c-5.2-4.33-9.26-9.88-12.18-16.65c-2.92-6.77-4.3-14.44-4.16-23c0.15-8.56,1.81-16.99,4.99-25.29
			c3.18-8.29,7.47-15.93,12.86-22.9s11.65-12.97,18.77-17.98c7.12-5.01,14.69-8.52,22.72-10.53c8.02-2,15.54-2.38,22.55-1.15
			c7.01,1.24,13.12,3.85,18.33,7.83c5.2,3.99,9.27,9.24,12.19,15.76C898.8,416.88,900.19,424.41,900.04,432.97z M842.11,427.73
			c-2.25,0.56-4.22,1.65-5.93,3.27c-1.71,1.62-2.82,3.43-3.33,5.43l18.3-4.56c-0.29-1.8-1.35-3.07-3.17-3.81
			C846.16,427.32,844.2,427.21,842.11,427.73z"/>
	</g>
</g>
</svg>
