<svg viewBox="0 0 1297.53 739.34" xmlns="http://www.w3.org/2000/svg"><path d="m799 213.94a274.52 274.52 0 0 1 62-65.15c2.74 7.92 5.27 15.25 7.43 21.53a42.13 42.13 0 0 1 -25.75 53.73c-.58.21-1.18.4-1.77.58a41.39 41.39 0 0 1 -41.91-10.69z" fill="#06a64f" transform="translate(.03 .02)"/><path d="m1297.5 367.12c.08 150.89-122.18 273.27-273.07 273.35h-.28q-10 0-19.89-.71c-141.68-10.2-253.46-128.36-253.46-272.64a272.09 272.09 0 0 1 41.76-145.27 50.14 50.14 0 0 0 50.12 12.32 51 51 0 0 0 34-63.62c-.21-.7-.44-1.39-.68-2.08l-8.69-25.19a272 272 0 0 1 156.86-49.47c150.94-.03 273.33 122.34 273.33 273.31z" fill="#21409a" transform="translate(.03 .02)"/><path d="m1252.38 487.41s6.64 4.28 13.79 9.24a273.27 273.27 0 0 1 -240.84 144q-10 0-19.89-.71c13.3-14.7 1.31-56.87-13.29-30 0 0-23.77-38.19-23.2-91 1.41-70.87-.29-89.55-15.47-110.91-23.63-33.26-63.92-64.89-70.08-69.59s-8-11.27-8.69-16.32c-.81-6.13-3.57-22.74-4-26.45-.28-2.53 3.26-6.53 6.89-6.53s38 7.25 40.23 7.25 3.16-2.57 4-4.71c2.28-5.87 4.22-19.32 2.54-26.82-3.3-14.77-6.16-45-4-60.9s2.65-24.28 5-29.35 12.22-18.88 16.17-21.46c5.67-3.69 14.73-5.57 21.18-1.2s17.79 20.15 20 23c2.88 3.72 41.67 53.65 46.76 56.54s12 11.24 26.82 11.24 27.83-3.91 39.51 3.26c15.94 9.78 69 77.31 75.38 80.83 12.12 6.72 71.07 35.87 91.29 48 15.24 9.15 8.83 20.4-.67 27.73-22.67 17.46-44 19.1-52.92 19.93-1.45.14 24.52 14.29 30.63 27.91l-11.78-1.81s26.89 20 34.42 37.69z" fill="#fff" transform="translate(.03 .02)"/><path d="m1165.09 392.37c.69-3.14 4.12-4.55 10.29-3.5 5 .85 8.8 3.08 1-3.43-3.67-3.06 9.92-3.49 9-4-3.74-2-22.38-11.77-25-13.29-13.53-7.73-4.11-25.61 10.87-23.68 10.57 1.37 70.56 32.87 79.26 37s12.83 11 0 18.61c-19.09 11.3-46.13 11-65.24 5.8-17.78-4.88-21.66-6.81-20.18-13.51z" fill="#231f20" transform="translate(.03 .02)"/><path d="m1050.62 251.7c6.56.73 10.22.17 14.74 0 2.47-.1 4.25 3.52 4.93 4.44 1.42 1.93 8 14.4 9 16.82s.08 4.59-4.27 1.93-20.23-12.58-22.47-14.59c-2.66-2.38-1.93-8.6-1.93-8.6z" fill="#231f20" transform="translate(.03 .02)"/><path d="m953.9 302.92c-10.61-1.91-20.36-4-27.43-5.25-.72-.13 7.54-14 3.91-35.41a299.46 299.46 0 0 1 -4.4-38.11c-.58-13.52 2-22.55 2.72-23.27s8.06 2.29 9.7 8.53c1.24 4.73 5.08 27.55 9.18 36.49s9.38 15 10.83 19.33-1.49 38.24-4.51 37.69z" fill="#231f20" transform="translate(.03 .02)"/><path d="m931 180.05c.63-4.26 9.29-16.23 11.6-19.07 3.93-4.83 14.66-6.76 18.86-2 6.47 7.33 13 15.28 17.18 21 1.31 1.76-14.41 4.21-20.66 2.2-3.69-1.19-7.52-5.17-12.23-5.53a12.37 12.37 0 0 0 -10.58 4.8c-1.31 1.62-5.01 4.25-4.17-1.4z" fill="#231f20" transform="translate(.03 .02)"/><circle cx="954.8" cy="193.97" fill="#231f20" r="2.3"/><circle cx="965.04" cy="191.67" fill="#231f20" r="2.3"/><circle cx="962.74" cy="200.9" fill="#231f20" r="2.3"/><path d="m890.56 49.74q-28.35-4.18-56.78-8.27c-1.29-3.61-2.42-6.66-4.18-10.63l-1.15-2.56c-1.23-2.65-8.49.37-7 5.59 1.11 3.68 23.79 69.32 39.54 114.93 2.72 7.92 5.25 15.24 7.43 21.52a42.15 42.15 0 0 1 -25.78 53.74c-.58.21-1.17.4-1.76.58a41.41 41.41 0 0 1 -41.88-10.64 44.9 44.9 0 0 1 -9.25-13.73c-8.16-18.79-.23-42.09 17.83-52.33 11.34-6.43 23.18-7.4 35.49-3.16.47.19 1 .34 1.93.63-.08-.2-1.23-3.54-3.16-9.13-8.32-24.09-31.07-90-43.39-125.77-1.75-4.72.24-7.92 2.91-9.45a7.33 7.33 0 0 1 4.41-1c10.15 1.35 50 6.31 75 9.41 3.67.5 6.84 1.34 8.62 6.45.55 1.62 1.11 3.26 1.68 4.88q3.31 9.57 6.61 19.13c1.63 4.54-.68 10.67-7.12 9.81z" fill="#231f20" transform="translate(.03 .02)"/><path d="m1246.41 528a273 273 0 0 1 -198.52 111.65c6.45-26.61 2.63-54.67-29.15-94.86-6.57-8.3 9.7 5.89 34.7 8.18 43.45 4-19.25-65.6-19.25-65.6 67.17 14.62 45.1-30.6 45.1-30.6 30.78 9.36 33 35.88 35.36 28.07 9.42-31.91-29.73-67.93-29.73-67.93 23.37 3.08 30.61 21.91 29.89 15.15-2.79-26-31.81-52.82-31.81-52.82s24.41-32.14 15.34-79.44c-3.82-19.89-13.84-43.57-16-48-1.14-2.32 12.7 1.72 17.14 6.84 10.53 12.09 49.45 55.48 53.63 61.09 3.72 5-10.28 5-19.67 22.34-13.89 25.66-4 47.29 2 54 5.52 6.09-4.82.68-11.92-7.45a53.5 53.5 0 0 0 4.55 14c9.06 18.73 26.42 25.07 41.2 31 0 0-21.85 8.71-15.46 9.89 27.34 5.1 47.11 11.37 61.13 28.53 0 0-47.56 5.35-23.47 14.83 26.42 10.43 42.29 22.31 54.94 41.13z" fill="#231f20" transform="translate(.03 .02)"/><text fill="#010101" font-family="ArialMT, Arial" font-size="91.53" transform="translate(1180.56 667.72)">™</text><g transform="translate(.03 .02)"><path d="m118.29 498.25a36.79 36.79 0 0 1 -23.84-8.52c-6.53-5.44-14.26-15.63-14-33.28l2.7-156.17a61.32 61.32 0 0 0 -1.15-9.55 51.57 51.57 0 0 1 -.83-15.92 31 31 0 0 1 8.75-18.21c4.79-5 11.83-8.47 22.15-11l14.29-3.6a45.88 45.88 0 0 1 11-1.41 36.84 36.84 0 0 1 23.52 8.41 39.3 39.3 0 0 1 13.55 22.64l31.42-36a58.3 58.3 0 0 1 14.66-12.35 52.38 52.38 0 0 1 16.56-6.31 43 43 0 0 1 8-.77 40.65 40.65 0 0 1 10 1.25 36 36 0 0 1 16.75 9.6 38.5 38.5 0 0 1 9.74 16.6 48.4 48.4 0 0 1 1.63 18 58.9 58.9 0 0 1 -4.49 17.45 62 62 0 0 1 -10.29 16.33l-32.05 36.56 37.72 58 .09.15a42.64 42.64 0 0 1 6.07 17.73 54.49 54.49 0 0 1 -1 17.78 57.46 57.46 0 0 1 -7 17.27 61.56 61.56 0 0 1 -12.24 14.65 52.39 52.39 0 0 1 -16.27 10.47 44.94 44.94 0 0 1 -16.43 3.28h-1.32a38.35 38.35 0 0 1 -17.16-4.64 36.41 36.41 0 0 1 -13.82-13.12l-21.73-34.7-.39 22.52a57.33 57.33 0 0 1 -12.74 35c-8.28 10.55-18.51 17.4-30.42 20.37a47.73 47.73 0 0 1 -11.43 1.49z" fill="#21409a"/><path d="m245.14 231.1a25.69 25.69 0 0 1 6.35.79 21.12 21.12 0 0 1 9.82 5.66 23.56 23.56 0 0 1 5.94 10.17 33.17 33.17 0 0 1 1.1 12.42 43.35 43.35 0 0 1 -3.36 13 46.36 46.36 0 0 1 -7.82 12.33l-39.49 45.15 43.79 67.38a27.6 27.6 0 0 1 3.94 11.54 39.51 39.51 0 0 1 -.73 12.92 42.41 42.41 0 0 1 -5.18 12.75 46.1 46.1 0 0 1 -9.5 11.19 37.64 37.64 0 0 1 -11.87 7.72 29.86 29.86 0 0 1 -11 2.25h-.81a23.5 23.5 0 0 1 -10.45-2.9 21.57 21.57 0 0 1 -8.13-7.85l-37.65-60.1-8.77 10-2.68 2.79-.75 42.87a42.42 42.42 0 0 1 -9.54 26q-9.3 11.85-22.25 15.07a32.4 32.4 0 0 1 -7.84 1 21.58 21.58 0 0 1 -14.24-5q-8.81-7.33-8.56-21.5l2.72-156.59a76.5 76.5 0 0 0 -1.44-12.35 36.65 36.65 0 0 1 -.64-11.3 16 16 0 0 1 4.64-9.45q4-4.17 15-6.91l14.28-3.56a29.94 29.94 0 0 1 7.36-1 21.7 21.7 0 0 1 14.07 5q8.79 7.15 9.21 21.51l-.5 28.7 57-65.38a43.51 43.51 0 0 1 10.9-9.24 37.78 37.78 0 0 1 11.82-4.54 28.58 28.58 0 0 1 5.22-.5m0-30a58.77 58.77 0 0 0 -10.84 1 67.86 67.86 0 0 0 -21.26 8.01 73.3 73.3 0 0 0 -18.42 15.46l-16.69 19.16a53 53 0 0 0 -7.55-7.5 51.69 51.69 0 0 0 -33-11.69 60.39 60.39 0 0 0 -14.6 1.89l-14.24 3.53c-13.16 3.28-22.47 8.1-29.3 15.17a46 46 0 0 0 -12.88 26.94 67.14 67.14 0 0 0 1 20.59 45.64 45.64 0 0 1 .84 6.79l-2.7 155.7c-.41 23.59 10.3 37.53 19.35 45.07a51.56 51.56 0 0 0 33.44 12 62.56 62.56 0 0 0 15.1-1.92c15.22-3.8 28.2-12.43 38.58-25.65a75.37 75.37 0 0 0 12-21.66 50.78 50.78 0 0 0 17.75 15.81 53.15 53.15 0 0 0 23.8 6.43h1.8a59.84 59.84 0 0 0 21.91-4.27 67.22 67.22 0 0 0 21-13.32 76.54 76.54 0 0 0 15.12-18 72.73 72.73 0 0 0 8.78-21.78 69.42 69.42 0 0 0 1.23-22.68 57.57 57.57 0 0 0 -8.22-24l-.18-.3-.19-.29-31.44-48.36 24.53-28.05h.05v-.05a77 77 0 0 0 12.77-20.29 73.64 73.64 0 0 0 5.61-21.93 63 63 0 0 0 -2.16-23.57 53.21 53.21 0 0 0 -13.47-23 50.75 50.75 0 0 0 -23.62-13.53 56.18 56.18 0 0 0 -13.72-1.71z" fill="#21409a"/><path d="m285.38 381.07a36.63 36.63 0 0 1 -24.1-8.79c-6.47-5.52-14.13-15.73-13.83-33a57.59 57.59 0 0 1 12.55-34.89c8.17-10.56 18.48-17.46 30.64-20.49l66.76-16.65a46.07 46.07 0 0 1 11.21-1.44 37.42 37.42 0 0 1 23.79 8.4c6.68 5.43 14.57 15.62 14.26 33.37a54.3 54.3 0 0 1 -3.74 18.89 63.61 63.61 0 0 1 -8.92 15.84 61.46 61.46 0 0 1 -13.38 12.69 51.63 51.63 0 0 1 -17.15 7.95l-66.79 16.68a47.32 47.32 0 0 1 -11.3 1.44z" fill="#21409a"/><path d="m368.58 280.81a22 22 0 0 1 14.33 5.05q9 7.27 8.72 21.46a39.16 39.16 0 0 1 -2.71 13.73 48.39 48.39 0 0 1 -6.83 12.11 46.19 46.19 0 0 1 -10.09 9.56 36.27 36.27 0 0 1 -12.17 5.69l-66.75 16.65a31.85 31.85 0 0 1 -7.71 1 21.44 21.44 0 0 1 -14.37-5.2q-8.79-7.51-8.56-21.33a42.73 42.73 0 0 1 9.38-26q9.14-11.8 22.41-15.12l66.77-16.65a31.29 31.29 0 0 1 7.58-1m0-30a61.48 61.48 0 0 0 -14.85 1.88l-66.73 16.71c-15.51 3.87-28.59 12.57-38.87 25.86a72.25 72.25 0 0 0 -15.67 43.79c-.4 23.12 10.15 37.05 19.08 44.67a51.45 51.45 0 0 0 33.84 12.38 62.16 62.16 0 0 0 15-1.9l66.75-16.65a66.53 66.53 0 0 0 22.14-10.24 76.4 76.4 0 0 0 16.55-15.81 79 79 0 0 0 11-19.54 69.58 69.58 0 0 0 4.86-24.09c.41-23.78-10.54-37.74-19.79-45.26a52.19 52.19 0 0 0 -33.26-11.77z" fill="#21409a"/><path d="m498.53 455.86a41.82 41.82 0 0 1 -9.26-1l-.42-.09-.41-.12a42 42 0 0 1 -16.21-8.78 38 38 0 0 1 -10.86-15.87 44.3 44.3 0 0 1 -2.46-18.26 38.55 38.55 0 0 1 1.13-7 77.58 77.58 0 0 1 -8-2.71 72.29 72.29 0 0 1 -25.5-17.18 77.71 77.71 0 0 1 -16.54-26.61 91 91 0 0 1 -5.46-33.77 116.82 116.82 0 0 1 7.88-40 139.09 139.09 0 0 1 19.88-35.4 135.61 135.61 0 0 1 29.12-27.88 108.53 108.53 0 0 1 36.34-16.81 91.2 91.2 0 0 1 22-2.82 76.3 76.3 0 0 1 15.88 1.64 72.63 72.63 0 0 1 31.74 15.2 75.63 75.63 0 0 1 21 28.55c4.86 11.3 7.19 24.06 6.95 37.93a121.93 121.93 0 0 1 -2.65 23 110 110 0 0 1 -7.2 22.24l-37.18 89.52a61.7 61.7 0 0 1 -9.88 16.2 59.53 59.53 0 0 1 -13.95 12.16 53 53 0 0 1 -16.47 6.82 44.66 44.66 0 0 1 -9.47 1.04zm3.25-154.86a7.22 7.22 0 0 0 -1.73 1.8 10.5 10.5 0 0 0 -2.07 5.53 7.4 7.4 0 0 0 1.74-1.79 10.81 10.81 0 0 0 2.06-5.54z" fill="#21409a"/><path d="m519.68 216.57a60.91 60.91 0 0 1 12.77 1.32 57.41 57.41 0 0 1 25.25 12 60.33 60.33 0 0 1 16.79 23q6 14 5.74 31.73a106.78 106.78 0 0 1 -2.34 20.16 94.18 94.18 0 0 1 -6.29 19.38l-37.26 89.72a46.29 46.29 0 0 1 -7.49 12.28 44.61 44.61 0 0 1 -10.4 9.12 37.92 37.92 0 0 1 -11.77 4.9 28.53 28.53 0 0 1 -6.11.68 23.52 23.52 0 0 1 -16.48-6.34 22.9 22.9 0 0 1 -6.61-9.64 29.2 29.2 0 0 1 -1.61-12.12 28.67 28.67 0 0 1 4.53-13.12l4.42-7.11h-1.14a63.81 63.81 0 0 1 -24-4.47 57.25 57.25 0 0 1 -20.34-13.59 62.46 62.46 0 0 1 -13.34-21.54 75.64 75.64 0 0 1 -4.47-28.16 101.36 101.36 0 0 1 6.88-34.88 123.75 123.75 0 0 1 17.74-31.59 119.82 119.82 0 0 1 25.85-24.83 93.11 93.11 0 0 1 31.37-14.47 75.38 75.38 0 0 1 18.31-2.38m-24.52 107.77a18.05 18.05 0 0 0 4.39-.58 21.06 21.06 0 0 0 12.38-8.56 25.74 25.74 0 0 0 4.89-14.8q.18-8.15-4.42-12.45a10.89 10.89 0 0 0 -7.81-3 18 18 0 0 0 -4.38.58 21.11 21.11 0 0 0 -12.38 8.55 25.65 25.65 0 0 0 -4.83 14.77q-.15 8.16 4.41 12.48a10.86 10.86 0 0 0 7.8 3m24.52-137.81a106.22 106.22 0 0 0 -25.59 3.26 123.63 123.63 0 0 0 -41.35 19.1 150.26 150.26 0 0 0 -32.34 31 153.87 153.87 0 0 0 -22 39.2 132.11 132.11 0 0 0 -8.87 45.1 105.74 105.74 0 0 0 6.4 39.27 92.47 92.47 0 0 0 19.75 31.7 87 87 0 0 0 28.09 19.61 58.83 58.83 0 0 0 3.49 20.31 52.64 52.64 0 0 0 15.12 22 56.85 56.85 0 0 0 21.86 11.88l.82.24.83.19a57.18 57.18 0 0 0 12.57 1.4 58.38 58.38 0 0 0 12.57-1.36h.06a67.69 67.69 0 0 0 21.16-8.7 74.5 74.5 0 0 0 17.47-15.22 76.51 76.51 0 0 0 12.31-20.19l37.09-89.3a125.5 125.5 0 0 0 8.1-25.08 137.66 137.66 0 0 0 3-25.83c.28-16-2.47-30.85-8.16-44.1a90.39 90.39 0 0 0 -25.17-34.17 87.42 87.42 0 0 0 -38.26-18.34 91.23 91.23 0 0 0 -19-2z" fill="#21409a"/><path d="m46.53 724.32a30.78 30.78 0 0 1 -19.92-7.13c-5.43-4.53-11.85-13-11.6-27.38l2-113.1a42.61 42.61 0 0 0 -.75-6.17 41.67 41.67 0 0 1 -.66-12.8 26.65 26.65 0 0 1 7.48-15.62c4-4.18 9.77-7.08 18-9.14l10.35-2.58a36.89 36.89 0 0 1 9-1.15 30.88 30.88 0 0 1 19.65 7 31.6 31.6 0 0 1 8.85 11.48l18-20.69a46.32 46.32 0 0 1 11.66-9.81 42.18 42.18 0 0 1 13.31-5.06 34.7 34.7 0 0 1 6.59-.63 33.59 33.59 0 0 1 8.29 1 30 30 0 0 1 14 8 32 32 0 0 1 8.11 13.81 39 39 0 0 1 1.33 14.58 47.46 47.46 0 0 1 -3.54 13.91 49.37 49.37 0 0 1 -8.15 12.93l-21.19 24.23 25.66 39.47.09.15a35 35 0 0 1 5 14.56 43.4 43.4 0 0 1 -.77 14.24 46.06 46.06 0 0 1 -5.56 13.77 48.66 48.66 0 0 1 -9.68 11.53 42.16 42.16 0 0 1 -13.08 8.41 36.67 36.67 0 0 1 -13.41 2.66h-1.09a32.11 32.11 0 0 1 -14.27-3.86 30.41 30.41 0 0 1 -11.49-11l-8.37-13.37v2.44a45.58 45.58 0 0 1 -10.17 27.86c-6.59 8.39-14.76 13.84-24.3 16.22a38 38 0 0 1 -9.37 1.24z" fill="#21409a"/><path d="m138.5 526.47a18.3 18.3 0 0 1 4.6.58 15.31 15.31 0 0 1 7.13 4.1 16.94 16.94 0 0 1 4.3 7.37 23.79 23.79 0 0 1 .8 9 31.76 31.76 0 0 1 -2.44 9.43 33.74 33.74 0 0 1 -5.66 9l-28.62 32.72 31.76 48.8a20.1 20.1 0 0 1 2.85 8.37 28.74 28.74 0 0 1 -.52 9.34 30.69 30.69 0 0 1 -3.76 9.25 33.65 33.65 0 0 1 -6.85 8.1 27.45 27.45 0 0 1 -8.61 5.6 21.94 21.94 0 0 1 -8 1.63h-.59a17 17 0 0 1 -7.63-2.06 15.57 15.57 0 0 1 -5.9-5.69l-27.24-43.54-6.36 7.21-2 2-.54 31.08a30.79 30.79 0 0 1 -6.92 18.86q-6.75 8.6-16.13 10.93a23.76 23.76 0 0 1 -5.69.75 15.68 15.68 0 0 1 -10.32-3.66q-6.37-5.31-6.21-15.59l2-113.53a55.59 55.59 0 0 0 -1-9 26.57 26.57 0 0 1 -.46-8.2 11.56 11.56 0 0 1 3.36-6.85c1.95-2 5.57-3.69 10.87-5l10.35-2.58a21.86 21.86 0 0 1 5.34-.7 15.74 15.74 0 0 1 10.2 3.6q6.39 5.21 6.68 15.6l-.36 20.8 41.33-47.39a31.41 31.41 0 0 1 7.91-6.71 27 27 0 0 1 8.51-3.22 20 20 0 0 1 3.78-.37m0-30a49.48 49.48 0 0 0 -9.4.9 57.49 57.49 0 0 0 -18 6.8 61.92 61.92 0 0 0 -15.45 12.94l-6.3 7.23a45.65 45.65 0 0 0 -28.91-10.15 52.48 52.48 0 0 0 -12.6 1.59l-10.36 2.66c-11 2.74-19.19 7.08-25.18 13.27a41.51 41.51 0 0 0 -11.58 24.26 56.68 56.68 0 0 0 .86 17.48 24.7 24.7 0 0 1 .46 3.52l-2 112.55c-.28 15.89 5.76 29.8 17 39.16a45.54 45.54 0 0 0 29.5 10.61 53.3 53.3 0 0 0 13-1.64 59.58 59.58 0 0 0 32.5-21.51 63 63 0 0 0 4.46-6.43 45.24 45.24 0 0 0 6.65 4.39 46.76 46.76 0 0 0 20.9 5.64h1.58a51.83 51.83 0 0 0 18.9-3.7 57.12 57.12 0 0 0 17.69-11.2 63.28 63.28 0 0 0 12.52-15 60.67 60.67 0 0 0 7.3-18.27 58.62 58.62 0 0 0 1-19.14 50 50 0 0 0 -7.14-20.78l-.19-.21-.19-.3-19.38-29.83 13.68-15.64a63.79 63.79 0 0 0 10.62-16.9 61.37 61.37 0 0 0 4.69-18.36 53.72 53.72 0 0 0 -1.86-20.14 46.61 46.61 0 0 0 -11.84-20.17 45.63 45.63 0 0 0 -20.91-12 48.53 48.53 0 0 0 -12-1.5z" fill="#21409a"/><path d="m200.3 683.59a55.94 55.94 0 0 1 -12.57-1.4 53.14 53.14 0 0 1 -24.17-12.44 58.73 58.73 0 0 1 -15.24-22.52 74.81 74.81 0 0 1 -4.83-28.82 93.9 93.9 0 0 1 5.51-30 102.7 102.7 0 0 1 14.06-26.54 96.16 96.16 0 0 1 21.24-21 80.07 80.07 0 0 1 27.49-12.82 59.67 59.67 0 0 1 14.39-1.76 62 62 0 0 1 8.61.6 62.87 62.87 0 0 1 6.51 1.27c.5-.55 1-1.09 1.54-1.63a35.07 35.07 0 0 1 16.38-9.8 29.29 29.29 0 0 1 7.16-.92 22.78 22.78 0 0 1 17.73 8.1c4.59 5.46 6.84 12.45 6.69 20.77l-1.58 90.93a39 39 0 0 1 -5.81 20.15 30.66 30.66 0 0 1 -19.08 13.89 27.28 27.28 0 0 1 -6.49.81 25.78 25.78 0 0 1 -12.07-3 64.36 64.36 0 0 1 -8.59 5.85 81.44 81.44 0 0 1 -20.28 8.16 68.86 68.86 0 0 1 -16.6 2.12z" fill="#21409a"/><path d="m266.38 530.78a7.74 7.74 0 0 1 6.25 2.77q3.3 3.9 3.17 10.84l-1.57 90.93a24.1 24.1 0 0 1 -3.55 12.53 15.68 15.68 0 0 1 -10 7.21 11.45 11.45 0 0 1 -2.86.37 11.23 11.23 0 0 1 -6.22-1.94 22.09 22.09 0 0 1 -6.6-6.28 56.27 56.27 0 0 1 -15.21 13 66 66 0 0 1 -16.54 6.69 53.78 53.78 0 0 1 -13 1.69 40.74 40.74 0 0 1 -9.21-1 38.26 38.26 0 0 1 -17.47-8.94 43.72 43.72 0 0 1 -11.33-16.87 59.64 59.64 0 0 1 -3.8-23.09 78.49 78.49 0 0 1 4.63-25.2 88.29 88.29 0 0 1 12-22.69 80.82 80.82 0 0 1 17.93-17.8 65 65 0 0 1 22.36-10.44 43.82 43.82 0 0 1 10.75-1.31 45.9 45.9 0 0 1 6.52.46q8.85 1.25 14.3 5a28.82 28.82 0 0 1 6.52-9.68 20.07 20.07 0 0 1 9.33-5.78 14.51 14.51 0 0 1 3.53-.48m-53 88.7a12.09 12.09 0 0 0 2.93-.39 16.53 16.53 0 0 0 9.46-6.83 19.83 19.83 0 0 0 4-11.37 12 12 0 0 0 -3.62-9.44 9 9 0 0 0 -6.34-2.54 12.66 12.66 0 0 0 -3 .39 15.63 15.63 0 0 0 -9.22 6.77 20.45 20.45 0 0 0 -3.8 11.31 12.6 12.6 0 0 0 3.44 9.5 8.28 8.28 0 0 0 6.14 2.6m53-118.7a44.14 44.14 0 0 0 -10.79 1.37 47.88 47.88 0 0 0 -19.07 9.86 76.11 76.11 0 0 0 -10.34-.7 74.3 74.3 0 0 0 -18 2.21 95 95 0 0 0 -32.62 15.19 111.19 111.19 0 0 0 -24.56 24.3 118.11 118.11 0 0 0 -16.12 30.4 109 109 0 0 0 -6.37 34.75 90.06 90.06 0 0 0 5.87 34.57 73.68 73.68 0 0 0 19.14 28.17 68.26 68.26 0 0 0 30.89 15.93 71.58 71.58 0 0 0 15.91 1.77 83.18 83.18 0 0 0 20.23-2.59 96.27 96.27 0 0 0 24-9.67c1.18-.66 2.35-1.36 3.5-2.1a40.79 40.79 0 0 0 9.78 1.2 42.12 42.12 0 0 0 10.12-1.26 45.45 45.45 0 0 0 28.23-20.57 53.91 53.91 0 0 0 8-27.76l1.58-90.93c.26-15-5.41-25-10.2-30.67a37.57 37.57 0 0 0 -29.22-13.46z" fill="#21409a"/><path d="m302.68 657.26a32.36 32.36 0 0 1 -7-.77 31.15 31.15 0 0 1 -13.35-6.49 32 32 0 0 1 -8.79-11.82 35.71 35.71 0 0 1 -2.92-15.12l1.46-84a39 39 0 0 1 5.81-20.15 30.67 30.67 0 0 1 19.11-13.91 27.43 27.43 0 0 1 18.93 2.05 73 73 0 0 1 5.94-4.41 64.05 64.05 0 0 1 20.13-8.84 61.74 61.74 0 0 1 14.68-2.25h1.49a46.51 46.51 0 0 1 11.51 2.15 31.31 31.31 0 0 1 16.57 12 33.54 33.54 0 0 1 6.22 20.59 41.2 41.2 0 0 1 -2.85 14.3 48.77 48.77 0 0 1 -6.94 12.22 48 48 0 0 1 -10.14 9.78 39.48 39.48 0 0 1 -13.26 6.16 50.69 50.69 0 0 1 -9 1.36 26.42 26.42 0 0 0 -3.42.53 29.22 29.22 0 0 0 -.25 3.37l-1.21 38.46a43.11 43.11 0 0 1 -3 14.79 50.24 50.24 0 0 1 -7.06 12.5 49.23 49.23 0 0 1 -10.34 9.94 40.57 40.57 0 0 1 -13.79 6.43 35.6 35.6 0 0 1 -8.53 1.13z" fill="#21409a"/><path d="m356.68 506.55h.72a31.7 31.7 0 0 1 7.89 1.49 16.14 16.14 0 0 1 8.76 6.38 18.63 18.63 0 0 1 3.39 11.58 26.82 26.82 0 0 1 -1.83 9.15 33.83 33.83 0 0 1 -4.83 8.49 32.11 32.11 0 0 1 -7 6.72 24.31 24.31 0 0 1 -8.21 3.84 36 36 0 0 1 -6.37 1 53.9 53.9 0 0 0 -9 1.61q-5.55 1.38-7.06 6.24a37.71 37.71 0 0 0 -1.62 10.76l-1.15 38.39a27.82 27.82 0 0 1 -2 9.7 35.18 35.18 0 0 1 -4.95 8.78 33.47 33.47 0 0 1 -7.2 6.91 25.55 25.55 0 0 1 -8.7 4.09 20.53 20.53 0 0 1 -4.94.64 17 17 0 0 1 -3.69-.41 16.28 16.28 0 0 1 -7-3.36 17.11 17.11 0 0 1 -4.69-6.38 20.71 20.71 0 0 1 -1.64-8.79l1.45-84a24.07 24.07 0 0 1 3.67-12.51 15.72 15.72 0 0 1 9.95-7.22 12.63 12.63 0 0 1 3.06-.38 13.1 13.1 0 0 1 6.38 1.73 13.38 13.38 0 0 1 6.25 6.5 75 75 0 0 1 13.87-12.28 48.74 48.74 0 0 1 15.46-6.8 50 50 0 0 1 11.06-1.8m0-30a76.16 76.16 0 0 0 -18.32 2.69 79 79 0 0 0 -24.85 11l-.18.12a42 42 0 0 0 -9.67-1.12 43 43 0 0 0 -10.35 1.23 45.43 45.43 0 0 0 -28.22 20.46 53.72 53.72 0 0 0 -8 27.76l-1.46 84a50.45 50.45 0 0 0 4.2 21.43 46.86 46.86 0 0 0 12.93 17.31 45.84 45.84 0 0 0 19.67 9.59 46.8 46.8 0 0 0 10.22 1.13 50.74 50.74 0 0 0 12.21-1.53 55.73 55.73 0 0 0 18.88-8.79 64.12 64.12 0 0 0 13.47-13 65 65 0 0 0 9.17-16.22 57.88 57.88 0 0 0 4-19.88l.87-29.2 1.62-.38a54.38 54.38 0 0 0 18.33-8.49 62.68 62.68 0 0 0 13.3-12.73 63.74 63.74 0 0 0 9.06-16 56.75 56.75 0 0 0 3.85-19.48 48.78 48.78 0 0 0 -9-29.59 46.22 46.22 0 0 0 -24.37-17.57 60.92 60.92 0 0 0 -15.07-2.8c-.75 0-1.5-.05-2.26-.05z" fill="#21409a"/><path d="m421.58 627.14a55.94 55.94 0 0 1 -12.57-1.4 53.14 53.14 0 0 1 -24.17-12.44 58.73 58.73 0 0 1 -15.24-22.52 75.19 75.19 0 0 1 -4.83-28.78 93.9 93.9 0 0 1 5.51-30 102.9 102.9 0 0 1 14.07-26.49 96.34 96.34 0 0 1 21.23-21.05 80 80 0 0 1 27.5-12.82 59.53 59.53 0 0 1 14.38-1.76 62.12 62.12 0 0 1 15.12 1.87c.5-.55 1-1.09 1.54-1.63a34.89 34.89 0 0 1 16.37-9.79 29.38 29.38 0 0 1 7.17-.93 22.71 22.71 0 0 1 17.73 8.11c4.59 5.45 6.84 12.43 6.69 20.76l-1.57 90.93a39.1 39.1 0 0 1 -5.83 20.12 30.72 30.72 0 0 1 -19.08 13.89 26.92 26.92 0 0 1 -6.5.81 25.78 25.78 0 0 1 -12.1-3.02 63.43 63.43 0 0 1 -8.59 5.85 81.47 81.47 0 0 1 -20.25 8.15 69.22 69.22 0 0 1 -16.58 2.14z" fill="#21409a"/><path d="m487.68 474.33a7.76 7.76 0 0 1 6.26 2.77q3.29 3.91 3.17 10.84l-1.58 90.93a24.22 24.22 0 0 1 -3.53 12.53 15.81 15.81 0 0 1 -10 7.22 11.56 11.56 0 0 1 -2.86.36 11.31 11.31 0 0 1 -6.22-1.94 22.09 22.09 0 0 1 -6.6-6.28 56.12 56.12 0 0 1 -15.21 13 66.13 66.13 0 0 1 -16.52 6.71 53.78 53.78 0 0 1 -13 1.69 40.74 40.74 0 0 1 -9.21-1 38.26 38.26 0 0 1 -17.47-8.94 43.72 43.72 0 0 1 -11.33-16.87 59.82 59.82 0 0 1 -3.8-23.09 78.76 78.76 0 0 1 4.63-25.2 88.29 88.29 0 0 1 12-22.69 81 81 0 0 1 17.89-17.77 64.84 64.84 0 0 1 22.38-10.47 44.32 44.32 0 0 1 10.75-1.32 45.9 45.9 0 0 1 6.52.46q8.85 1.25 14.3 5a28.82 28.82 0 0 1 6.52-9.68 20.07 20.07 0 0 1 9.33-5.78 14.51 14.51 0 0 1 3.53-.48m-53 88.7a11.94 11.94 0 0 0 2.92-.39 16.55 16.55 0 0 0 9.47-6.83 19.92 19.92 0 0 0 4-11.37 12 12 0 0 0 -3.67-9.44 9 9 0 0 0 -6.35-2.54 12.66 12.66 0 0 0 -3 .39 15.63 15.63 0 0 0 -9.22 6.77 20.45 20.45 0 0 0 -3.8 11.31 12.64 12.64 0 0 0 3.44 9.5 8.32 8.32 0 0 0 6.15 2.6m53-118.7a44.14 44.14 0 0 0 -10.79 1.37 47.93 47.93 0 0 0 -19 9.77 77.9 77.9 0 0 0 -10.35-.7 74.3 74.3 0 0 0 -18 2.21 95 95 0 0 0 -32.62 15.19 111.24 111.24 0 0 0 -24.57 24.34 117.92 117.92 0 0 0 -16.11 30.4 108.73 108.73 0 0 0 -6.38 34.75 90.09 90.09 0 0 0 5.9 34.61 73.78 73.78 0 0 0 19.11 28.2 68.11 68.11 0 0 0 30.89 15.9 71.58 71.58 0 0 0 15.91 1.77 83.18 83.18 0 0 0 20.23-2.59 96.63 96.63 0 0 0 24-9.66c1.18-.67 2.35-1.37 3.51-2.11a40.77 40.77 0 0 0 9.77 1.2 41.64 41.64 0 0 0 10.13-1.26 45.47 45.47 0 0 0 28.22-20.57 53.91 53.91 0 0 0 8-27.76l1.63-90.92c.26-15-5.4-25-10.2-30.67a37.54 37.54 0 0 0 -29.2-13.47z" fill="#21409a"/><path d="m555.12 593.78a59.23 59.23 0 0 1 -12.38-1.31 56.73 56.73 0 0 1 -24.74-11.88 58.79 58.79 0 0 1 -16.35-22.25 70.24 70.24 0 0 1 -5.38-29.19 88.85 88.85 0 0 1 6-30.4 104.69 104.69 0 0 1 15-26.71 102.51 102.51 0 0 1 22-21.07 83 83 0 0 1 27.73-12.81 70 70 0 0 1 16.87-2.16 59.1 59.1 0 0 1 12.37 1.28 56.82 56.82 0 0 1 24.76 11.87 59 59 0 0 1 16.35 22.32 70.44 70.44 0 0 1 5.38 29.2 89.08 89.08 0 0 1 -6 30.39 104.69 104.69 0 0 1 -15 26.71 102.27 102.27 0 0 1 -22 21.07 83 83 0 0 1 -27.73 12.82 70.41 70.41 0 0 1 -16.88 2.12z" fill="#21409a"/><path d="m583.86 451a44.35 44.35 0 0 1 9.26 1 41.73 41.73 0 0 1 18.31 8.73 44 44 0 0 1 12.17 16.65 55.24 55.24 0 0 1 4.16 23 74.19 74.19 0 0 1 -5 25.28 89.51 89.51 0 0 1 -12.87 22.9 86.64 86.64 0 0 1 -18.77 18 67.54 67.54 0 0 1 -22.71 10.52 54.77 54.77 0 0 1 -13.3 1.73 44.26 44.26 0 0 1 -9.25-1 41.73 41.73 0 0 1 -18.31-8.73 43.79 43.79 0 0 1 -12.17-16.62 55.07 55.07 0 0 1 -4.15-23 73.73 73.73 0 0 1 5-25.29 89.65 89.65 0 0 1 12.86-22.9 86.69 86.69 0 0 1 18.78-18 67.56 67.56 0 0 1 22.71-10.53 54.68 54.68 0 0 1 13.29-1.74m-17.57 79.2a12.18 12.18 0 0 0 3-.39 16.05 16.05 0 0 0 9.34-6.81 20.06 20.06 0 0 0 3.92-11.33 12.33 12.33 0 0 0 -3.56-9.47 8.62 8.62 0 0 0 -6.25-2.57 12.67 12.67 0 0 0 -2.94.38 16.13 16.13 0 0 0 -9.34 6.81 20 20 0 0 0 -3.92 11.34 12.29 12.29 0 0 0 3.56 9.47 8.6 8.6 0 0 0 6.24 2.57m17.52-109.2a85.3 85.3 0 0 0 -20.55 2.61 97.94 97.94 0 0 0 -32.73 15.11 117 117 0 0 0 -25.22 24.15 119.82 119.82 0 0 0 -17.15 30.53 104 104 0 0 0 -7 35.5 84.93 84.93 0 0 0 6.61 35.4 73.52 73.52 0 0 0 20.52 27.83 71.54 71.54 0 0 0 31.27 15 74.61 74.61 0 0 0 15.49 1.62 84.91 84.91 0 0 0 20.57-2.62 97.75 97.75 0 0 0 32.73-15.11 117.21 117.21 0 0 0 25.27-24.15 119.76 119.76 0 0 0 17.15-30.52 104 104 0 0 0 7-35.5 85.06 85.06 0 0 0 -6.6-35.39 73.68 73.68 0 0 0 -20.54-27.84 71.43 71.43 0 0 0 -31.24-15 74.22 74.22 0 0 0 -15.52-1.62z" fill="#21409a"/><path d="m657.83 569.08a30.78 30.78 0 0 1 -19.92-7.08c-5.43-4.52-11.85-12.94-11.6-27.38l2-115.33a46.08 46.08 0 0 1 9.86-27.54 43.71 43.71 0 0 1 24.51-16.55 36.36 36.36 0 0 1 8.69-1.09 33.53 33.53 0 0 1 6.77.7 31.23 31.23 0 0 1 13.64 6.47 32.12 32.12 0 0 1 8.9 12.16 36.67 36.67 0 0 1 2.89 15.08l-.15 8.47 6.93-7a43.81 43.81 0 0 1 12-9.21 39.37 39.37 0 0 1 14-4.25 33.46 33.46 0 0 1 3.47-.18 31.94 31.94 0 0 1 11.6 2.15 31.27 31.27 0 0 1 12.75 9.27l.25.31c6.17 7.83 8.58 17.48 7 27.89-1.47 9.39-6 18-13.33 25.64l-5.54 5.62 11.52 15.77a33.71 33.71 0 0 1 6.75 12.62 39.08 39.08 0 0 1 1.33 14.59 44.9 44.9 0 0 1 -3.79 14.16 45.89 45.89 0 0 1 -8.88 13c-7.6 8-16.29 12.54-25.85 13.4-1.07.09-2.14.14-3.18.14a30.78 30.78 0 0 1 -23.91-11l-.47-.54-5.31-7.49a46.44 46.44 0 0 1 -9.28 19.83c-6.58 8.39-14.76 13.84-24.3 16.22a38.35 38.35 0 0 1 -9.35 1.15z" fill="#21409a"/><path d="m671.41 389.06a18.44 18.44 0 0 1 3.7.38 16.23 16.23 0 0 1 7.13 3.34 16.92 16.92 0 0 1 4.68 6.5 21.54 21.54 0 0 1 1.65 8.93l-.8 46 33.43-33.91a28.8 28.8 0 0 1 8-6.22 24.31 24.31 0 0 1 8.68-2.68c.65-.06 1.3-.1 1.94-.1a17 17 0 0 1 6.19 1.14 16.35 16.35 0 0 1 6.63 4.87q5.39 6.85 3.91 16.29t-9.29 17.54l-14.4 14.58 19.44 26.61a18.78 18.78 0 0 1 4.06 7.43 23.79 23.79 0 0 1 .8 9 30.18 30.18 0 0 1 -2.55 9.46 31.1 31.1 0 0 1 -6 8.79q-7.58 8-16.34 8.81c-.62 0-1.24.08-1.84.08a15.89 15.89 0 0 1 -12.56-5.83l-20.37-28.7q-6.59 6.76-8.3 8.34l-2.43 2.29-.2 11.56a30.76 30.76 0 0 1 -6.89 18.86q-6.75 8.6-16.13 10.93a23.76 23.76 0 0 1 -5.69.75 15.63 15.63 0 0 1 -10.35-3.61q-6.39-5.31-6.2-15.59l2-115.33a31.14 31.14 0 0 1 6.8-18.7 29 29 0 0 1 16.26-11.09 21 21 0 0 1 5-.65m0-30a51.21 51.21 0 0 0 -12.32 1.54 59.2 59.2 0 0 0 -32.85 22 61.58 61.58 0 0 0 -12.88 36.33l-2 115.33c-.27 15.9 5.76 29.8 17 39.16a45.54 45.54 0 0 0 29.52 10.61 53.3 53.3 0 0 0 13-1.64 59.49 59.49 0 0 0 32.46-21.46c.65-.83 1.28-1.66 1.88-2.51a45.82 45.82 0 0 0 25.3 7.46c1.49 0 3-.07 4.52-.2 9.14-.82 22.69-4.61 35.37-18a60.7 60.7 0 0 0 11.63-17.28 60 60 0 0 0 5-18.91 53.78 53.78 0 0 0 -1.85-20.11 48.59 48.59 0 0 0 -9.35-17.75l-3.8-5.23a60.76 60.76 0 0 0 14.17-30.22c2.29-14.65-1.17-28.31-10-39.51l-.25-.31-.25-.31a46.23 46.23 0 0 0 -18.67-13.65 46.86 46.86 0 0 0 -17-3.17 48.13 48.13 0 0 0 -5 .26 54.55 54.55 0 0 0 -19.39 5.84l-.85.45-.13-.3a46.89 46.89 0 0 0 -13-17.76 45.83 45.83 0 0 0 -20.11-9.61 48.12 48.12 0 0 0 -9.87-1z" fill="#21409a"/><path d="m805 531.47a59 59 0 0 1 -12.35-1.33 56.52 56.52 0 0 1 -24.8-11.87 58.81 58.81 0 0 1 -16.33-22.27 70.41 70.41 0 0 1 -5.38-29.2 89.08 89.08 0 0 1 6-30.39 104.39 104.39 0 0 1 15-26.71 102 102 0 0 1 22-21.07 83 83 0 0 1 27.72-12.82 74.84 74.84 0 0 1 17.94-2.3 62.94 62.94 0 0 1 10.88.94 56.46 56.46 0 0 1 24.85 10.7 55.14 55.14 0 0 1 16.76 21.52 67.65 67.65 0 0 1 5.48 29 34.41 34.41 0 0 1 -2.68 12.45 39.15 39.15 0 0 1 -6.74 11 47.91 47.91 0 0 1 -9.06 8.06c-.57.39-1.15.76-1.73 1.12a33.54 33.54 0 0 1 1.71 11.42 38.91 38.91 0 0 1 -5.8 19.33 49.69 49.69 0 0 1 -12.06 13.95 79.47 79.47 0 0 1 -16.94 10.2 105.73 105.73 0 0 1 -17.47 6.09 70 70 0 0 1 -17 2.18z" fill="#21409a"/><path d="m834.79 388.53a47.46 47.46 0 0 1 8.25.71 41.34 41.34 0 0 1 18.32 7.83 40.08 40.08 0 0 1 12.2 15.76 52.48 52.48 0 0 1 4.12 22.64 19.85 19.85 0 0 1 -1.56 7 24.33 24.33 0 0 1 -4.19 6.8 32.62 32.62 0 0 1 -6.21 5.52 23 23 0 0 1 -7.37 3.37q-6.51 1.88-12.16 3.16l-11.32 2.57-11.79 2.68q-6.14 1.41-13.6 3.27a5.5 5.5 0 0 0 5.68 4.31 16 16 0 0 0 3.84-.55 19.9 19.9 0 0 0 4.83-1.84q2.17-1.18 4.48-2.52c1.53-.9 3.15-1.77 4.84-2.62a28.33 28.33 0 0 1 5.91-2.11 21 21 0 0 1 5.18-.68 15.78 15.78 0 0 1 9 2.75q6 4.13 5.89 12.86a24 24 0 0 1 -3.69 11.91 34.41 34.41 0 0 1 -8.44 9.78 63.44 63.44 0 0 1 -13.72 8.34 89.27 89.27 0 0 1 -15 5.27 54.76 54.76 0 0 1 -13.3 1.72 44.94 44.94 0 0 1 -9.25-1 41.6 41.6 0 0 1 -18.3-8.74 43.71 43.71 0 0 1 -12.18-16.65 55.24 55.24 0 0 1 -4.16-23 74.19 74.19 0 0 1 5-25.28 89.51 89.51 0 0 1 12.91-22.9 86.64 86.64 0 0 1 18.77-18 67.74 67.74 0 0 1 22.71-10.52 59.07 59.07 0 0 1 14.31-1.86m-24.29 50.38 18.29-4.57a4.74 4.74 0 0 0 -3.17-3.81 8.92 8.92 0 0 0 -3.35-.65 10.68 10.68 0 0 0 -2.52.32 13 13 0 0 0 -5.92 3.27 11.21 11.21 0 0 0 -3.33 5.44m24.25-80.38a89.69 89.69 0 0 0 -21.57 2.75 98.07 98.07 0 0 0 -32.72 15.1 117.31 117.31 0 0 0 -25.23 24.16 119.76 119.76 0 0 0 -17.15 30.48 104 104 0 0 0 -7 35.5 84.9 84.9 0 0 0 6.59 35.39 73.68 73.68 0 0 0 20.54 27.84 71.49 71.49 0 0 0 31.27 15 74.59 74.59 0 0 0 15.55 1.7 85.38 85.38 0 0 0 20.56-2.61 120 120 0 0 0 20-7 94.37 94.37 0 0 0 20.1-12.1 64.55 64.55 0 0 0 15.65-18 52.33 52.33 0 0 0 7.73-32.11 61.16 61.16 0 0 0 5.6-5.67 54.12 54.12 0 0 0 9.33-15.11 49.63 49.63 0 0 0 3.68-17.83 82.15 82.15 0 0 0 -6.78-35.4 69.8 69.8 0 0 0 -21.32-27.3 71.46 71.46 0 0 0 -31.36-13.57 78.83 78.83 0 0 0 -13.46-1.16z" fill="#21409a"/><path d="m207.2 236.38a43.51 43.51 0 0 1 10.9-9.24 37.78 37.78 0 0 1 11.82-4.54 26.42 26.42 0 0 1 11.57.29 21.12 21.12 0 0 1 9.82 5.66 23.56 23.56 0 0 1 5.94 10.17 33.17 33.17 0 0 1 1.1 12.42 43.35 43.35 0 0 1 -3.36 13 46.36 46.36 0 0 1 -7.82 12.33l-39.49 45.15 43.79 67.38a27.6 27.6 0 0 1 3.94 11.54 39.51 39.51 0 0 1 -.73 12.92 42.41 42.41 0 0 1 -5.18 12.75 46.1 46.1 0 0 1 -9.5 11.19 37.64 37.64 0 0 1 -11.87 7.72 29.67 29.67 0 0 1 -11.77 2.24 23.52 23.52 0 0 1 -10.49-2.89 21.57 21.57 0 0 1 -8.13-7.85l-37.65-60.1-8.77 10-2.68 2.79-.75 42.87a42.42 42.42 0 0 1 -9.54 26q-9.3 11.85-22.25 15.07-13.29 3.32-22.08-4t-8.52-21.55l2.72-156.59a76.5 76.5 0 0 0 -1.44-12.35 36.65 36.65 0 0 1 -.64-11.3 16 16 0 0 1 4.64-9.46q4-4.17 15-6.91l14.28-3.56q12.62-3.15 21.42 4t9.2 21.52l-.5 28.7z" fill="#fff"/><path d="m351 272.8q12.94-3.23 21.91 4.06t8.77 21.46a39.16 39.16 0 0 1 -2.68 13.73 48.39 48.39 0 0 1 -6.83 12.11 46.19 46.19 0 0 1 -10.08 9.56 36.27 36.27 0 0 1 -12.17 5.69l-66.75 16.65q-13.27 3.31-22.08-4.19t-8.56-21.33a42.73 42.73 0 0 1 9.38-26q9.14-11.81 22.41-15.12z" fill="#fff"/><path d="m570.25 275.63a106.78 106.78 0 0 1 -2.34 20.16 94.18 94.18 0 0 1 -6.29 19.38l-37.26 89.72a46.29 46.29 0 0 1 -7.49 12.28 44.61 44.61 0 0 1 -10.4 9.12 38 38 0 0 1 -11.79 4.89 24.38 24.38 0 0 1 -22.55-5.66 22.9 22.9 0 0 1 -6.61-9.64 29.2 29.2 0 0 1 -1.61-12.12 28.67 28.67 0 0 1 4.53-13.12l4.42-7.11a64.16 64.16 0 0 1 -25.22-4.46 57.25 57.25 0 0 1 -20.3-13.6 62.46 62.46 0 0 1 -13.34-21.54 75.64 75.64 0 0 1 -4.47-28.16 101.36 101.36 0 0 1 6.88-34.88 123.75 123.75 0 0 1 17.74-31.59 119.82 119.82 0 0 1 25.85-24.83 93.11 93.11 0 0 1 31.37-14.47q16.61-4.14 31.1-1.06a57.61 57.61 0 0 1 25.21 12 60.33 60.33 0 0 1 16.79 23q6.07 13.98 5.78 31.69zm-63.43 15.84q.14-8.14-4.42-12.48t-12.19-2.42a21.11 21.11 0 0 0 -12.38 8.55 25.65 25.65 0 0 0 -4.88 14.8q-.15 8.16 4.41 12.48t12.19 2.43a21.06 21.06 0 0 0 12.38-8.56 25.74 25.74 0 0 0 4.89-14.8z" fill="#fff"/><path d="m108.24 527.86a31.41 31.41 0 0 1 7.91-6.71 27 27 0 0 1 8.53-3.28 19.12 19.12 0 0 1 8.38.21 15.31 15.31 0 0 1 7.13 4.1 16.94 16.94 0 0 1 4.3 7.37 23.79 23.79 0 0 1 .8 9 31.52 31.52 0 0 1 -2.44 9.44 33.78 33.78 0 0 1 -5.67 9l-28.61 32.72 31.8 48.76a20.1 20.1 0 0 1 2.85 8.37 28.74 28.74 0 0 1 -.52 9.34 30.69 30.69 0 0 1 -3.76 9.25 33.65 33.65 0 0 1 -6.85 8.1 27.45 27.45 0 0 1 -8.61 5.6 21.38 21.38 0 0 1 -8.54 1.62 17 17 0 0 1 -7.63-2.06 15.57 15.57 0 0 1 -5.9-5.69l-27.29-43.53-6.36 7.21-2 2-.54 31.08a30.79 30.79 0 0 1 -6.92 18.86q-6.75 8.6-16.13 10.93-9.63 2.4-16-2.91t-6.17-15.57l2-113.53a55.59 55.59 0 0 0 -1-9 26.57 26.57 0 0 1 -.46-8.2 11.56 11.56 0 0 1 3.36-6.85c2-2 5.57-3.69 10.87-5l10.35-2.58q9.15-2.28 15.54 2.9t6.61 15.66l-.36 20.8z" fill="#fff"/><path d="m148.49 609.67a78.49 78.49 0 0 1 4.63-25.2 88.29 88.29 0 0 1 12-22.69 80.82 80.82 0 0 1 17.93-17.78 65 65 0 0 1 22.36-10.44 44.86 44.86 0 0 1 17.27-.85q8.85 1.24 14.3 5a28.82 28.82 0 0 1 6.52-9.71 20.07 20.07 0 0 1 9.33-5.78q6.5-1.62 9.78 2.29t3.17 10.84l-1.57 90.93a24.18 24.18 0 0 1 -3.53 12.53 15.68 15.68 0 0 1 -10 7.21 11.07 11.07 0 0 1 -9.08-1.57 22.09 22.09 0 0 1 -6.6-6.28 56.27 56.27 0 0 1 -15.21 13 66 66 0 0 1 -16.54 6.69 47.31 47.31 0 0 1 -22.18.67 38.26 38.26 0 0 1 -17.47-8.94 43.93 43.93 0 0 1 -11.34-16.87 60 60 0 0 1 -3.77-23.05zm45.26-11.29a12.6 12.6 0 0 0 3.44 9.5q3.52 3.6 9.07 2.21a16.53 16.53 0 0 0 9.46-6.83 19.83 19.83 0 0 0 4-11.37 12 12 0 0 0 -3.64-9.42q-3.77-3.53-9.31-2.15a15.63 15.63 0 0 0 -9.22 6.77 20.44 20.44 0 0 0 -3.8 11.29z" fill="#fff"/><path d="m277.07 530.32a24.07 24.07 0 0 1 3.61-12.52 15.72 15.72 0 0 1 9.95-7.22 12.62 12.62 0 0 1 9.44 1.35 13.38 13.38 0 0 1 6.25 6.5 75 75 0 0 1 13.87-12.28 48.74 48.74 0 0 1 15.46-6.8q8-2 11.78-1.79a31.7 31.7 0 0 1 7.89 1.49 16.14 16.14 0 0 1 8.76 6.38 18.63 18.63 0 0 1 3.39 11.57 26.82 26.82 0 0 1 -1.83 9.15 33.83 33.83 0 0 1 -4.83 8.49 32.11 32.11 0 0 1 -7 6.72 24.31 24.31 0 0 1 -8.21 3.84 36 36 0 0 1 -6.37.95 53.9 53.9 0 0 0 -9 1.61q-5.55 1.38-7.06 6.24a37.71 37.71 0 0 0 -1.62 10.76l-1.15 38.39a27.82 27.82 0 0 1 -2 9.7 35.18 35.18 0 0 1 -4.95 8.78 33.47 33.47 0 0 1 -7.2 6.91 25.55 25.55 0 0 1 -8.7 4.09 18.39 18.39 0 0 1 -8.63.23 16.28 16.28 0 0 1 -7-3.36 17.11 17.11 0 0 1 -4.69-6.38 20.71 20.71 0 0 1 -1.64-8.79z" fill="#fff"/><path d="m369.77 553.22a78.49 78.49 0 0 1 4.63-25.22 88.29 88.29 0 0 1 12-22.69 81 81 0 0 1 17.93-17.77 64.61 64.61 0 0 1 22.35-10.43 44.66 44.66 0 0 1 17.27-.86q8.85 1.25 14.3 5a28.82 28.82 0 0 1 6.52-9.68 20.07 20.07 0 0 1 9.33-5.78q6.5-1.62 9.79 2.29t3.17 10.84l-1.58 90.93a24.22 24.22 0 0 1 -3.57 12.53 15.71 15.71 0 0 1 -10 7.21 11.06 11.06 0 0 1 -9.08-1.57 22.09 22.09 0 0 1 -6.6-6.28 56.12 56.12 0 0 1 -15.21 13 65.78 65.78 0 0 1 -16.47 6.71 47.31 47.31 0 0 1 -22.18.67 38.26 38.26 0 0 1 -17.47-8.94 43.72 43.72 0 0 1 -11.33-16.87 59.74 59.74 0 0 1 -3.8-23.09zm45.23-11.29a12.64 12.64 0 0 0 3.44 9.5q3.52 3.6 9.07 2.21a16.55 16.55 0 0 0 9.47-6.83 19.92 19.92 0 0 0 4-11.37 12 12 0 0 0 -3.67-9.44 9.48 9.48 0 0 0 -9.32-2.15 15.63 15.63 0 0 0 -9.22 6.77 20.42 20.42 0 0 0 -3.77 11.31z" fill="#fff"/><path d="m501.23 520.47a73.73 73.73 0 0 1 5-25.29 89.65 89.65 0 0 1 12.86-22.9 86.69 86.69 0 0 1 18.78-18 67.56 67.56 0 0 1 22.71-10.53 49.66 49.66 0 0 1 22.55-.76 41.73 41.73 0 0 1 18.31 8.73 44 44 0 0 1 12.17 16.65 55.24 55.24 0 0 1 4.16 23 74.19 74.19 0 0 1 -5 25.28 89.51 89.51 0 0 1 -12.87 22.9 86.64 86.64 0 0 1 -18.77 18 67.54 67.54 0 0 1 -22.71 10.52 49.53 49.53 0 0 1 -22.55.77 41.73 41.73 0 0 1 -18.31-8.73 43.78 43.78 0 0 1 -12.18-16.64 55.07 55.07 0 0 1 -4.15-23zm45.26-11.29a12.29 12.29 0 0 0 3.56 9.47q3.65 3.55 9.19 2.18a16.05 16.05 0 0 0 9.34-6.81 20.06 20.06 0 0 0 3.92-11.33 12.33 12.33 0 0 0 -3.56-9.47c-2.44-2.37-5.5-3.11-9.19-2.19a16.13 16.13 0 0 0 -9.34 6.81 20 20 0 0 0 -3.92 11.3z" fill="#fff"/><path d="m711.2 411.27a28.8 28.8 0 0 1 8-6.22 24.31 24.31 0 0 1 8.68-2.68 17.45 17.45 0 0 1 8.13 1 16.35 16.35 0 0 1 6.63 4.87q5.39 6.86 3.91 16.29t-9.29 17.54l-14.4 14.58 19.44 26.61a18.78 18.78 0 0 1 4.06 7.43 23.79 23.79 0 0 1 .8 9 30.18 30.18 0 0 1 -2.55 9.46 31.1 31.1 0 0 1 -6 8.79q-7.58 8-16.34 8.81a16.12 16.12 0 0 1 -14.4-5.75l-20.37-28.63q-6.59 6.76-8.3 8.34l-2.43 2.29-.2 11.56a30.76 30.76 0 0 1 -6.89 18.86q-6.75 8.6-16.13 10.93-9.63 2.4-16-2.91t-6.2-15.59l2-115.33a31.14 31.14 0 0 1 6.8-18.7 29 29 0 0 1 16.26-11.09 19.45 19.45 0 0 1 8.75-.27 16.23 16.23 0 0 1 7.13 3.34 16.92 16.92 0 0 1 4.68 6.5 21.54 21.54 0 0 1 1.65 8.93l-.8 46z" fill="#fff"/><path d="m867.68 426.47a19.85 19.85 0 0 1 -1.56 7 24.33 24.33 0 0 1 -4.19 6.8 32.62 32.62 0 0 1 -6.21 5.52 23 23 0 0 1 -7.37 3.37q-6.51 1.88-12.16 3.16l-11.32 2.57-11.79 2.68q-6.14 1.41-13.6 3.27a6.26 6.26 0 0 0 3.29 3.91c1.43.58 3.5.53 6.23-.15a19.9 19.9 0 0 0 4.83-1.84q2.17-1.18 4.48-2.52c1.53-.9 3.15-1.77 4.84-2.62a28.94 28.94 0 0 1 5.91-2.12q8.18-2 14.23 2.08t5.93 12.89a24 24 0 0 1 -3.69 11.91 34.41 34.41 0 0 1 -8.44 9.78 63.92 63.92 0 0 1 -13.81 8.31 89.27 89.27 0 0 1 -15 5.27 49.81 49.81 0 0 1 -22.55.77 41.6 41.6 0 0 1 -18.3-8.74 43.71 43.71 0 0 1 -12.18-16.65 55.24 55.24 0 0 1 -4.16-23 74.19 74.19 0 0 1 5-25.28 89.51 89.51 0 0 1 12.91-22.9 86.64 86.64 0 0 1 18.77-18 67.74 67.74 0 0 1 22.71-10.52 54 54 0 0 1 22.52-1.15 41.34 41.34 0 0 1 18.32 7.83 40.08 40.08 0 0 1 12.2 15.76 52.52 52.52 0 0 1 4.16 22.61zm-57.93-5.24a13 13 0 0 0 -5.92 3.27 11.21 11.21 0 0 0 -3.33 5.44l18.29-4.57a4.74 4.74 0 0 0 -3.17-3.81 9.31 9.31 0 0 0 -5.83-.36z" fill="#fff"/></g></svg>