<svg id="svg" version="1.1" xmlns="http://www.w3.org/2000/svg" xmlns:xlink="http://www.w3.org/1999/xlink" width="400" height="227.71618625277162" viewBox="0, 0, 400,227.71618625277162"><g id="svgg"><path id="path0" d="M291.709 46.403 C 289.840 47.006,287.692 49.283,285.527 52.953 C 283.146 56.992,282.657 71.752,284.600 80.942 C 285.330 84.393,284.329 90.828,282.997 91.251 C 282.821 91.307,281.456 91.116,279.964 90.827 C 278.471 90.539,275.938 90.047,274.333 89.734 C 269.144 88.722,267.944 89.177,268.360 92.000 C 269.848 102.104,270.024 102.649,272.378 104.444 C 277.774 108.558,285.938 116.210,289.926 120.891 C 297.869 130.215,298.521 132.714,298.575 154.000 C 298.607 166.637,298.617 166.790,299.761 172.118 C 300.753 176.739,302.200 181.000,304.140 185.016 C 305.563 187.961,305.463 187.877,306.258 186.812 C 307.901 184.610,309.459 184.640,310.514 186.895 C 311.868 189.788,311.798 193.432,310.336 196.131 C 310.060 196.640,309.875 197.097,309.924 197.146 C 310.254 197.476,317.767 197.530,321.515 197.230 L 322.779 197.128 323.098 195.522 C 323.490 193.549,323.551 187.717,323.197 186.083 C 321.986 180.489,319.512 175.457,314.987 169.382 C 314.065 168.145,313.352 167.092,313.403 167.042 C 313.453 166.991,314.302 167.293,315.289 167.712 C 320.770 170.040,325.723 170.910,327.754 169.902 C 331.039 168.271,328.555 162.337,320.384 152.292 C 319.433 151.123,318.702 150.167,318.759 150.167 C 318.816 150.167,319.775 150.332,320.890 150.534 C 331.008 152.368,335.527 148.648,332.564 140.925 C 332.341 140.345,335.989 142.012,337.583 143.218 C 339.315 144.529,340.864 146.329,342.240 148.633 C 343.126 150.115,343.329 149.932,343.670 147.340 C 344.304 142.530,341.127 135.744,335.398 129.671 C 334.100 128.295,334.100 128.309,335.330 128.595 C 337.740 129.158,339.940 130.370,341.958 132.249 C 343.522 133.705,343.580 133.666,343.076 131.500 C 342.159 127.560,339.450 123.101,335.160 118.471 C 333.421 116.593,333.526 116.894,334.228 115.795 C 340.417 106.108,340.392 94.534,334.151 79.432 C 333.700 78.340,333.368 77.410,333.414 77.364 C 333.903 76.874,337.617 78.635,338.838 79.936 C 339.835 80.997,348.317 90.563,352.558 95.409 C 355.912 99.241,355.871 99.068,353.755 100.498 C 351.442 102.060,350.004 103.656,348.872 105.917 C 346.032 111.590,346.386 117.469,349.851 122.155 C 350.726 123.339,349.038 122.531,347.181 120.877 C 346.020 119.843,346.018 119.845,346.603 121.700 C 348.327 127.166,351.903 130.366,359.626 133.352 C 360.063 133.521,359.987 133.576,357.917 134.582 C 354.293 136.341,354.289 136.399,357.750 137.080 C 364.897 138.487,369.448 140.553,372.875 143.948 C 374.363 145.421,374.372 145.382,372.500 145.652 C 364.663 146.779,362.995 148.403,367.774 150.255 C 374.224 152.754,379.534 156.625,383.067 161.402 C 383.594 162.114,384.069 162.653,384.122 162.600 C 384.235 162.488,384.224 162.503,386.384 159.265 C 387.282 157.918,388.064 156.688,388.121 156.533 C 388.178 156.377,388.511 155.813,388.862 155.280 C 389.213 154.746,389.500 154.212,389.500 154.092 C 389.500 153.972,389.613 153.781,389.750 153.667 C 390.263 153.241,389.981 152.909,388.000 151.604 C 385.733 150.112,385.724 150.089,387.360 149.937 C 388.865 149.797,388.841 149.829,388.246 148.729 C 387.003 146.431,383.505 142.578,380.084 139.739 C 379.121 138.940,378.333 138.271,378.333 138.252 C 378.333 138.234,379.049 138.329,379.923 138.464 C 381.772 138.749,381.830 138.725,381.320 137.884 C 380.346 136.278,377.407 133.652,373.981 131.329 C 372.304 130.191,372.301 130.188,372.858 130.105 C 379.124 129.176,381.880 128.297,385.667 126.018 C 391.330 122.609,392.989 119.539,390.599 116.888 C 389.387 115.543,385.498 113.396,368.917 104.918 C 359.199 99.949,360.732 101.090,355.254 94.750 C 337.681 74.411,337.513 74.274,330.500 74.610 C 319.311 75.147,318.477 74.515,302.112 53.141 C 297.484 47.096,296.521 46.271,294.022 46.212 C 293.016 46.188,292.153 46.259,291.709 46.403 M295.371 48.463 C 296.449 48.961,301.754 55.401,301.318 55.682 C 300.701 56.080,299.585 56.241,297.417 56.245 L 295.083 56.250 293.671 55.422 C 291.351 54.062,289.873 54.159,288.231 55.778 C 286.078 57.900,286.264 55.577,288.520 52.167 C 290.967 48.469,293.004 47.368,295.371 48.463 M297.873 58.770 C 298.048 59.155,298.026 59.243,297.678 59.524 C 296.999 60.074,296.139 59.218,296.754 58.604 C 297.158 58.199,297.646 58.271,297.873 58.770 M294.571 59.262 C 295.133 59.823,294.693 60.626,293.930 60.435 C 293.388 60.299,293.218 59.737,293.594 59.321 C 293.947 58.932,294.224 58.915,294.571 59.262 M297.071 61.429 C 297.421 61.779,297.401 62.053,296.999 62.417 C 296.321 63.031,295.386 62.014,296.033 61.367 C 296.310 61.090,296.760 61.117,297.071 61.429 M287.366 62.335 C 288.661 63.192,288.951 63.791,289.600 66.941 C 291.026 73.874,291.582 75.488,293.805 79.149 C 295.392 81.761,295.414 81.850,295.278 84.907 C 295.031 90.465,294.412 93.431,293.530 93.276 C 292.787 93.146,285.765 91.789,285.549 91.734 C 285.409 91.698,285.497 91.247,285.846 90.217 C 286.982 86.868,287.105 84.106,286.333 79.333 C 285.092 71.667,284.914 65.346,285.854 62.375 C 286.070 61.693,286.385 61.685,287.366 62.335 M153.500 64.265 C 143.937 65.648,134.209 73.641,129.379 84.083 C 122.641 98.650,126.889 113.066,139.126 117.162 C 140.539 117.635,141.200 117.753,144.527 118.126 L 145.638 118.250 144.650 119.820 C 141.558 124.736,142.753 130.053,147.456 132.299 C 150.726 133.860,155.203 132.640,158.435 129.306 C 160.634 127.038,160.432 127.452,166.873 111.917 C 167.975 109.258,169.173 106.371,169.537 105.500 C 169.900 104.629,170.446 103.317,170.749 102.583 C 171.052 101.850,171.786 100.087,172.379 98.667 C 173.806 95.249,174.276 93.916,174.763 91.917 C 178.876 75.033,168.884 62.039,153.500 64.265 M71.307 68.512 C 70.136 68.684,68.001 69.496,66.926 70.178 C 65.332 71.189,64.413 72.196,50.521 88.167 C 48.647 90.321,46.937 92.270,46.721 92.498 L 46.329 92.913 46.373 87.665 C 46.427 81.185,46.152 79.970,44.189 78.006 C 41.983 75.800,39.709 75.543,34.417 76.899 C 27.071 78.781,25.943 80.249,26.918 86.649 C 27.219 88.628,27.224 89.240,27.034 101.149 C 26.438 138.457,26.431 139.112,26.625 140.155 C 28.209 148.672,39.747 147.609,44.323 138.524 C 45.453 136.279,45.524 135.710,45.714 127.427 L 45.885 119.937 47.637 117.971 C 49.186 116.231,49.411 116.038,49.587 116.294 C 49.808 116.615,55.614 125.864,56.832 127.833 C 62.121 136.389,62.550 136.888,65.146 137.499 C 72.703 139.278,81.155 128.991,78.308 121.480 C 77.890 120.375,77.629 119.945,74.073 114.500 C 73.026 112.896,71.564 110.646,70.825 109.500 C 70.086 108.354,68.256 105.542,66.758 103.250 L 64.035 99.083 64.411 98.667 C 67.407 95.352,76.964 84.254,77.439 83.539 C 80.956 78.240,80.214 71.563,75.854 69.272 C 74.908 68.775,72.874 68.246,72.333 68.357 C 72.287 68.366,71.826 68.436,71.307 68.512 M328.611 77.638 C 329.286 77.738,332.809 84.256,332.500 84.833 C 332.205 85.384,331.793 85.185,327.499 82.424 C 324.670 80.605,324.047 80.144,323.856 79.730 C 323.649 79.280,323.439 77.900,323.550 77.720 C 323.620 77.608,327.941 77.538,328.611 77.638 M106.917 84.349 C 105.908 84.621,104.483 84.982,103.750 85.152 C 103.017 85.322,101.329 85.736,100.000 86.073 C 95.399 87.239,93.734 87.655,90.250 88.508 C 85.819 89.594,84.296 90.277,82.434 92.016 C 76.050 97.978,76.361 107.763,82.996 109.734 C 84.847 110.283,85.876 110.090,99.333 106.666 C 104.620 105.320,105.518 105.098,106.777 104.820 C 113.364 103.368,118.376 96.640,117.510 90.414 C 116.755 84.982,112.852 82.748,106.917 84.349 M154.083 85.427 C 155.272 85.992,156.167 87.810,156.167 89.662 C 156.167 96.785,146.904 100.230,145.822 93.509 C 145.012 88.481,150.077 83.526,154.083 85.427 M363.167 106.880 C 367.366 108.532,385.776 117.595,386.723 118.476 C 391.383 122.814,377.439 127.741,366.917 125.476 C 361.367 124.281,358.833 123.060,358.833 121.580 C 358.833 119.835,360.022 119.305,362.582 119.907 C 363.873 120.211,363.923 120.119,362.932 119.257 C 361.803 118.275,362.335 117.667,364.324 117.667 C 365.270 117.667,364.845 117.372,360.826 115.243 C 355.174 112.248,354.257 110.898,356.051 108.213 C 357.590 105.910,359.697 105.515,363.167 106.880 M252.167 117.014 C 236.681 118.996,225.987 139.266,234.267 150.942 C 238.517 156.936,246.904 157.875,255.242 153.292 C 261.447 149.881,263.668 143.441,259.541 140.823 C 257.444 139.494,255.646 139.819,250.885 142.386 C 248.908 143.452,247.507 143.536,246.750 142.636 C 246.090 141.852,245.504 142.077,252.167 140.555 C 262.272 138.247,263.097 137.961,264.951 136.130 C 267.250 133.858,267.823 131.203,266.896 127.127 C 265.328 120.231,259.311 116.100,252.167 117.014 M202.684 117.174 C 199.253 117.877,196.254 120.839,195.421 124.351 C 195.151 125.488,194.714 143.667,194.625 157.417 L 194.583 163.917 195.133 165.036 C 197.736 170.341,205.979 167.665,208.078 160.833 C 208.262 160.233,208.392 159.045,208.453 157.390 L 208.547 154.864 210.166 153.250 L 211.786 151.637 214.990 156.148 C 219.163 162.024,219.430 162.245,222.230 162.140 C 226.291 161.989,229.877 158.100,230.122 153.583 C 230.265 150.949,230.304 151.021,224.509 143.167 C 223.596 141.929,222.845 140.838,222.841 140.741 C 222.837 140.644,224.064 139.282,225.567 137.714 C 229.192 133.932,230.005 132.461,230.016 129.661 C 230.031 125.503,226.930 123.158,222.854 124.243 C 221.237 124.673,220.275 125.491,214.457 131.384 L 208.832 137.083 208.874 129.083 L 208.917 121.083 208.368 119.965 C 207.309 117.808,205.037 116.692,202.684 117.174 M251.654 130.098 C 252.616 130.908,252.619 130.906,248.864 131.851 C 246.601 132.420,246.530 132.414,246.896 131.707 C 247.801 129.956,250.429 129.067,251.654 130.098 M173.833 136.409 C 155.666 140.248,147.273 166.734,161.917 174.014 C 173.756 179.899,190.182 166.596,190.229 151.083 C 190.260 141.110,182.873 134.499,173.833 136.409 M145.485 143.724 C 143.938 144.361,142.410 145.839,141.582 147.500 C 141.199 148.268,141.233 148.248,140.795 147.961 C 136.881 145.397,129.878 146.394,124.464 150.288 C 112.028 159.230,110.270 179.284,121.461 184.538 C 126.944 187.113,135.758 184.924,139.910 179.957 L 140.526 179.221 141.414 180.088 C 144.562 183.161,148.770 181.325,149.494 176.563 C 149.767 174.766,150.090 146.458,149.846 145.635 C 149.235 143.565,147.606 142.852,145.485 143.724 M174.666 151.416 C 176.281 152.251,176.817 154.983,175.797 157.182 C 173.682 161.748,168.416 161.499,168.425 156.833 C 168.431 153.233,172.071 150.074,174.666 151.416 M104.789 153.489 C 100.841 154.347,98.736 155.466,95.878 158.228 L 94.506 159.553 93.834 158.791 C 90.663 155.188,85.921 157.653,85.497 163.124 C 85.301 165.665,84.930 189.826,85.076 190.605 C 86.167 196.432,93.735 196.330,97.304 190.440 C 98.628 188.255,98.679 187.923,98.932 179.753 C 99.256 169.265,99.342 169.040,103.250 168.426 C 104.167 168.282,105.357 168.093,105.895 168.005 C 108.206 167.629,110.729 165.711,112.042 163.333 C 115.311 157.413,111.366 152.060,104.789 153.489 M38.478 159.496 C 36.128 159.914,34.892 160.883,30.954 165.397 C 23.635 173.788,20.807 177.000,20.737 177.000 C 20.698 177.000,20.683 175.256,20.705 173.125 C 20.754 168.447,20.618 167.899,19.013 166.319 C 17.291 164.622,16.157 164.492,12.118 165.523 C 6.733 166.899,5.852 167.986,6.586 172.344 C 6.903 174.224,6.906 173.578,6.497 194.917 C 6.214 209.711,6.227 211.271,6.643 212.347 C 8.698 217.660,16.518 216.186,19.325 209.956 C 20.053 208.341,20.139 207.605,20.266 201.973 L 20.384 196.707 21.540 195.395 C 22.176 194.674,22.778 194.083,22.879 194.083 C 22.980 194.083,24.957 197.114,27.273 200.818 C 32.603 209.343,32.841 209.589,35.750 209.567 C 40.310 209.533,44.408 204.675,44.134 199.628 C 44.031 197.732,44.047 197.762,38.518 189.263 C 35.839 185.145,33.633 181.725,33.615 181.662 C 33.598 181.599,35.608 179.231,38.083 176.399 C 43.206 170.538,43.760 169.784,44.407 167.794 C 46.019 162.840,43.049 158.683,38.478 159.496 M77.733 160.903 C 76.338 161.340,74.519 162.954,73.584 164.586 C 73.322 165.043,73.091 165.440,73.070 165.470 C 73.050 165.499,72.650 165.328,72.182 165.091 C 67.821 162.881,61.101 164.046,55.990 167.899 C 43.216 177.530,42.337 198.311,54.531 202.404 C 59.789 204.169,66.497 202.384,71.057 198.006 L 72.444 196.674 73.320 197.519 C 76.363 200.451,80.546 198.690,81.323 194.149 C 81.460 193.348,81.813 175.126,81.856 166.667 C 81.882 161.448,80.804 159.942,77.733 160.903 M133.795 161.425 C 137.472 162.961,135.861 169.557,131.574 170.517 C 129.831 170.907,128.427 169.888,127.985 167.913 C 127.204 164.425,130.954 160.238,133.795 161.425 M65.888 178.894 C 67.145 179.419,67.747 180.715,67.631 182.647 C 67.376 186.896,62.583 189.683,60.493 186.797 C 58.010 183.369,62.135 177.326,65.888 178.894 " stroke="none" fill="#fbfbfb" fill-rule="evenodd"></path><path id="path1" d="M246.559 0.321 C 245.451 0.997,245.429 2.427,246.482 5.333 C 247.101 7.043,247.470 8.098,248.187 10.208 C 248.382 10.781,248.819 12.037,249.159 13.000 C 249.985 15.342,250.465 16.746,250.783 17.750 C 250.928 18.208,251.325 19.371,251.665 20.333 C 252.006 21.296,252.476 22.646,252.710 23.333 C 253.479 25.590,253.701 26.229,254.331 28.000 C 254.673 28.962,255.032 30.012,255.129 30.333 C 255.227 30.654,255.729 32.117,256.247 33.583 C 256.764 35.050,257.480 37.112,257.837 38.167 C 258.778 40.948,258.773 40.933,259.420 42.730 C 260.125 44.686,260.216 44.535,258.583 44.116 C 250.111 41.946,242.234 48.125,242.265 56.917 C 242.275 59.746,243.167 62.896,244.178 63.667 C 244.238 63.712,244.407 63.975,244.553 64.250 C 244.965 65.022,247.231 67.258,248.083 67.732 C 248.358 67.885,248.921 68.203,249.333 68.439 C 250.081 68.865,250.724 69.113,251.484 69.268 C 251.705 69.312,252.005 69.412,252.151 69.489 C 252.713 69.784,256.230 69.986,257.167 69.776 C 257.304 69.745,257.717 69.661,258.083 69.588 C 258.450 69.516,258.828 69.395,258.923 69.320 C 259.019 69.245,259.356 69.141,259.673 69.090 C 260.356 68.978,261.500 68.501,261.500 68.327 C 261.500 68.260,261.631 68.160,261.792 68.105 C 262.320 67.923,263.242 67.302,263.710 66.814 C 263.963 66.550,264.237 66.333,264.320 66.333 C 264.403 66.333,264.665 66.090,264.903 65.792 C 265.141 65.494,265.434 65.137,265.554 65.000 C 266.660 63.738,267.883 61.102,268.106 59.500 C 268.405 57.350,268.154 53.243,267.668 52.335 C 267.555 52.125,267.177 51.083,266.828 50.018 C 266.478 48.954,265.766 46.883,265.245 45.417 C 264.725 43.950,264.201 42.412,264.081 42.000 C 263.962 41.587,263.595 40.550,263.266 39.694 C 262.936 38.838,262.667 38.033,262.667 37.904 C 262.667 37.775,262.417 37.012,262.113 36.209 C 261.640 34.962,261.086 33.398,260.357 31.250 C 260.175 30.715,259.284 28.116,258.215 25.000 C 257.854 23.946,257.388 22.596,257.181 22.000 C 256.973 21.404,256.649 20.467,256.459 19.917 C 256.270 19.367,255.827 18.126,255.474 17.160 C 255.122 16.193,254.833 15.306,254.833 15.188 C 254.833 15.070,254.632 14.473,254.386 13.862 C 253.938 12.746,253.384 10.977,253.219 10.130 C 253.109 9.570,253.925 8.667,254.541 8.667 C 254.935 8.667,256.333 11.191,256.333 11.904 C 256.333 12.708,256.654 12.933,258.054 13.114 C 259.449 13.295,263.463 13.898,270.250 14.948 C 274.816 15.655,275.376 15.674,275.948 15.140 C 276.970 14.185,277.074 13.169,276.350 11.219 C 275.473 8.858,274.500 6.035,274.500 5.854 C 274.500 4.201,272.524 2.649,270.450 2.673 C 269.947 2.678,266.119 2.200,254.333 0.656 C 248.562 -0.099,247.335 -0.152,246.559 0.321 M292.395 48.473 C 290.861 49.003,290.395 49.462,288.513 52.294 C 286.417 55.447,286.176 57.588,288.119 55.784 C 290.056 53.986,291.238 53.924,293.917 55.477 L 295.250 56.250 297.250 56.242 C 299.232 56.233,301.068 55.962,301.261 55.648 C 301.427 55.380,300.403 54.021,297.268 50.351 C 295.404 48.169,294.397 47.781,292.395 48.473 M296.841 58.574 C 296.466 59.026,296.692 59.583,297.250 59.583 C 297.645 59.583,297.761 59.503,297.804 59.199 C 297.864 58.778,297.579 58.333,297.250 58.333 C 297.135 58.333,296.951 58.442,296.841 58.574 M293.568 59.396 C 293.369 59.916,293.571 60.250,294.086 60.250 C 294.528 60.250,294.583 60.194,294.583 59.750 C 294.583 59.182,293.761 58.895,293.568 59.396 M296.213 61.375 C 295.846 61.850,295.838 62.004,296.164 62.331 C 296.438 62.604,296.575 62.638,296.837 62.498 C 297.263 62.270,297.268 61.566,296.844 61.339 C 296.437 61.121,296.408 61.123,296.213 61.375 M285.720 63.292 C 285.044 66.171,285.431 74.142,286.530 80.000 C 287.200 83.576,286.997 86.925,285.905 90.271 C 285.676 90.971,285.513 91.569,285.543 91.599 C 285.698 91.753,293.106 93.167,293.761 93.167 C 294.296 93.167,294.826 90.371,295.179 85.685 C 295.465 81.890,295.513 82.067,293.109 78.083 C 291.486 75.394,290.613 72.613,289.339 66.083 C 288.622 62.407,286.340 60.647,285.720 63.292 M333.500 77.563 C 333.500 77.623,333.883 78.590,334.352 79.711 C 339.249 91.427,340.162 100.189,337.406 109.014 C 336.827 110.868,334.926 114.995,334.111 116.167 L 333.705 116.750 335.076 118.250 C 339.684 123.291,342.401 127.834,343.242 131.902 C 343.657 133.914,343.537 133.974,342.078 132.485 C 340.362 130.734,337.941 129.320,335.660 128.735 C 334.327 128.394,334.294 128.476,335.335 129.532 C 341.580 135.871,345.037 144.129,343.479 148.987 C 343.128 150.081,342.971 150.004,341.861 148.198 C 340.010 145.187,337.797 143.129,334.932 141.756 C 332.943 140.802,332.576 140.694,332.739 141.106 C 335.836 148.947,330.891 152.401,319.440 150.396 L 318.796 150.284 320.449 152.267 C 327.124 160.277,330.243 166.434,328.921 168.992 C 327.774 171.210,321.873 170.647,314.963 167.659 C 313.265 166.925,313.256 167.000,314.797 169.023 C 322.147 178.675,324.872 187.237,323.170 195.333 C 322.987 196.204,322.837 196.927,322.836 196.939 C 322.826 197.040,323.693 197.093,323.753 196.995 C 323.796 196.925,324.136 196.884,324.509 196.903 C 324.881 196.922,325.220 196.882,325.261 196.815 C 325.303 196.748,325.579 196.696,325.877 196.699 C 326.174 196.702,326.454 196.690,326.500 196.673 C 326.749 196.578,327.352 196.492,328.167 196.435 C 328.671 196.399,329.121 196.354,329.167 196.333 C 329.212 196.313,329.419 196.310,329.625 196.327 C 329.831 196.344,330.000 196.279,330.000 196.184 C 330.000 196.088,330.100 196.049,330.222 196.096 C 330.344 196.143,330.775 196.100,331.180 196.002 C 332.291 195.732,333.165 195.533,333.792 195.408 C 333.998 195.367,334.373 195.289,334.625 195.235 C 334.877 195.181,335.215 195.139,335.375 195.142 C 335.535 195.144,335.667 195.076,335.667 194.990 C 335.667 194.904,335.746 194.833,335.843 194.833 C 335.940 194.833,335.974 194.907,335.918 194.998 C 335.859 195.093,335.926 195.121,336.075 195.064 C 336.217 195.009,336.333 194.913,336.333 194.851 C 336.333 194.789,336.465 194.728,336.625 194.716 C 336.974 194.690,337.080 194.661,338.599 194.186 C 339.250 193.983,339.962 193.811,340.183 193.803 C 340.403 193.796,340.825 193.685,341.121 193.556 C 342.264 193.058,343.833 192.508,343.833 192.605 C 343.833 192.661,343.946 192.614,344.083 192.500 C 344.221 192.386,344.334 192.358,344.336 192.438 C 344.337 192.518,344.411 192.471,344.500 192.333 C 344.612 192.161,344.662 192.149,344.664 192.296 C 344.666 192.455,344.762 192.445,345.055 192.253 C 345.269 192.113,345.494 192.049,345.555 192.111 C 345.616 192.172,345.667 192.144,345.667 192.048 C 345.667 191.856,347.183 191.157,347.683 191.120 C 347.857 191.106,348.000 191.024,348.000 190.937 C 348.000 190.849,348.045 190.823,348.100 190.878 C 348.155 190.933,348.654 190.747,349.210 190.465 C 349.765 190.183,350.360 189.944,350.532 189.934 C 350.705 189.925,350.917 189.804,351.004 189.667 C 351.120 189.483,351.162 189.475,351.164 189.637 C 351.166 189.800,351.236 189.787,351.435 189.589 C 351.808 189.216,353.270 188.492,353.396 188.619 C 353.453 188.676,353.500 188.637,353.500 188.533 C 353.500 188.429,353.613 188.387,353.750 188.440 C 353.887 188.492,354.000 188.466,354.000 188.382 C 354.000 188.297,354.300 188.059,354.667 187.853 C 355.033 187.647,355.333 187.535,355.333 187.605 C 355.333 187.674,355.429 187.599,355.546 187.439 C 355.663 187.279,355.870 187.131,356.005 187.111 C 356.270 187.071,356.310 187.049,357.647 186.199 C 358.140 185.885,358.488 185.718,358.421 185.827 C 358.353 185.936,358.755 185.701,359.314 185.304 C 360.998 184.109,362.405 183.250,362.606 183.296 C 362.710 183.320,362.841 183.221,362.897 183.076 C 362.953 182.928,363.083 182.865,363.191 182.932 C 363.304 183.002,363.340 182.979,363.277 182.877 C 363.166 182.698,365.262 181.217,365.522 181.292 C 365.601 181.315,365.648 181.240,365.625 181.125 C 365.602 181.010,365.677 180.935,365.792 180.958 C 365.906 180.981,366.000 180.921,366.000 180.823 C 366.000 180.726,366.075 180.693,366.167 180.750 C 366.258 180.807,366.333 180.728,366.333 180.575 C 366.333 180.393,366.422 180.332,366.592 180.397 C 366.734 180.452,366.810 180.430,366.760 180.350 C 366.711 180.270,366.932 180.004,367.252 179.760 C 367.572 179.516,367.833 179.356,367.833 179.405 C 367.833 179.454,368.096 179.239,368.416 178.928 C 369.368 178.004,370.278 177.334,370.407 177.463 C 370.474 177.529,370.503 177.506,370.472 177.412 C 370.442 177.317,371.017 176.711,371.750 176.063 C 372.483 175.416,373.186 174.763,373.311 174.612 C 373.436 174.461,373.606 174.379,373.690 174.431 C 373.773 174.483,373.824 174.463,373.802 174.387 C 373.751 174.209,377.600 170.331,377.733 170.427 C 377.788 170.467,377.797 170.451,377.753 170.392 C 377.647 170.249,378.868 168.903,379.050 168.962 C 379.128 168.988,379.149 168.940,379.097 168.856 C 379.045 168.772,379.296 168.438,379.654 168.115 C 380.012 167.791,380.278 167.500,380.246 167.468 C 380.213 167.435,380.450 167.111,380.772 166.746 C 381.094 166.382,381.310 166.177,381.252 166.292 C 381.070 166.653,381.313 166.517,381.511 166.147 C 381.663 165.862,381.656 165.816,381.475 165.910 C 381.351 165.974,381.451 165.841,381.698 165.614 C 381.944 165.387,382.106 165.162,382.058 165.114 C 382.011 165.066,382.128 164.943,382.319 164.841 C 382.510 164.739,382.667 164.562,382.667 164.448 C 382.667 164.334,382.893 163.980,383.170 163.662 C 383.446 163.344,383.734 163.010,383.808 162.920 C 383.979 162.714,383.091 161.425,381.508 159.581 C 378.304 155.849,373.924 152.854,368.343 150.577 C 363.027 148.408,363.745 147.187,371.128 145.835 C 374.392 145.237,374.135 145.385,373.403 144.529 C 370.573 141.222,365.454 138.773,358.167 137.236 C 354.168 136.393,354.155 136.316,357.741 134.586 L 359.899 133.544 359.074 133.173 C 358.621 132.969,357.986 132.706,357.664 132.589 C 351.963 130.516,347.876 126.456,346.431 121.429 C 345.902 119.591,345.933 119.560,347.140 120.711 C 348.147 121.672,349.573 122.667,349.942 122.667 C 350.058 122.667,349.751 122.108,349.262 121.426 C 346.224 117.192,346.121 110.881,349.002 105.539 C 350.241 103.243,351.389 102.047,354.324 100.000 C 355.835 98.946,356.433 99.861,348.002 90.333 C 336.957 77.852,338.284 79.239,336.586 78.403 C 335.251 77.745,333.500 77.269,333.500 77.563 M323.667 78.339 C 323.667 79.838,324.915 80.913,330.593 84.298 C 333.094 85.789,332.995 84.706,330.196 79.930 C 328.789 77.530,329.034 77.667,326.138 77.667 L 323.667 77.667 323.667 78.339 M358.666 106.312 C 355.408 107.387,354.390 111.080,356.833 112.961 C 357.063 113.137,358.975 114.198,361.083 115.318 C 363.192 116.438,364.973 117.410,365.042 117.478 C 365.112 117.546,364.587 117.699,363.876 117.817 C 362.026 118.126,361.976 118.213,363.027 119.278 C 363.974 120.237,363.933 120.280,362.417 119.913 C 359.929 119.313,358.564 120.095,358.907 121.924 C 359.363 124.353,370.485 126.712,377.000 125.762 C 385.108 124.579,389.759 120.933,386.465 118.341 C 385.992 117.970,372.999 111.409,368.695 109.369 C 362.772 106.561,360.244 105.791,358.666 106.312 " stroke="none" fill="#241c24" fill-rule="evenodd"></path><path id="path2" d="M309.250 29.023 C 308.333 29.101,306.496 29.323,305.167 29.515 C 303.837 29.707,302.188 29.936,301.500 30.024 C 300.813 30.112,299.462 30.370,298.500 30.597 C 297.537 30.825,296.337 31.093,295.833 31.193 C 294.617 31.434,290.813 32.558,288.817 33.266 C 287.937 33.578,287.149 33.833,287.067 33.834 C 286.656 33.834,281.500 36.028,279.341 37.120 C 278.566 37.512,277.879 37.833,277.814 37.833 C 277.688 37.833,273.010 40.436,271.917 41.115 C 270.243 42.155,268.520 43.290,267.967 43.717 L 267.362 44.184 267.712 45.217 C 267.904 45.785,268.320 46.962,268.635 47.833 C 268.950 48.704,269.268 49.642,269.342 49.917 C 269.415 50.192,269.756 51.204,270.101 52.167 L 270.726 53.917 270.738 57.083 C 270.751 60.617,270.672 61.036,269.526 63.524 C 268.712 65.290,268.222 66.058,267.105 67.318 C 266.207 68.331,263.910 70.333,263.646 70.333 C 263.579 70.333,263.087 70.593,262.554 70.911 C 258.618 73.253,252.346 73.273,248.356 70.958 C 247.844 70.660,247.310 70.368,247.170 70.310 C 247.031 70.251,246.374 69.744,245.710 69.185 L 244.503 68.167 243.946 69.042 C 242.894 70.695,241.833 72.539,241.833 72.715 C 241.833 72.811,241.732 73.009,241.608 73.154 C 241.484 73.298,241.231 73.717,241.046 74.083 C 238.749 78.636,237.276 82.139,235.823 86.500 C 234.832 89.477,234.298 91.264,234.013 92.567 C 232.037 101.581,231.620 104.998,231.599 112.343 L 231.583 117.769 230.667 117.554 C 229.545 117.290,226.501 117.268,225.300 117.514 C 224.134 117.753,221.546 118.573,220.917 118.903 C 220.218 119.269,220.225 119.273,219.743 118.220 C 216.316 110.726,205.857 108.217,198.064 113.019 C 196.257 114.133,194.836 115.362,193.172 117.250 C 190.716 120.036,189.046 124.546,188.853 128.917 C 188.766 130.881,188.710 131.239,188.500 131.178 C 188.362 131.138,187.612 130.899,186.833 130.647 C 183.055 129.423,178.527 129.279,173.976 130.235 C 173.619 130.310,173.754 129.820,174.568 128.083 C 174.897 127.379,175.167 126.724,175.167 126.626 C 175.167 126.529,175.397 125.961,175.679 125.364 C 175.961 124.767,176.364 123.823,176.575 123.265 C 176.786 122.707,177.165 121.763,177.417 121.167 C 177.669 120.571,178.141 119.446,178.465 118.667 C 178.790 117.888,179.343 116.594,179.694 115.791 C 180.046 114.989,180.333 114.253,180.333 114.156 C 180.333 114.059,180.633 113.342,181.000 112.563 C 181.367 111.784,181.667 111.065,181.667 110.965 C 181.667 110.864,181.901 110.288,182.188 109.683 C 182.475 109.078,182.842 108.208,183.003 107.750 C 183.164 107.292,183.529 106.417,183.815 105.806 C 184.100 105.196,184.333 104.612,184.333 104.510 C 184.333 104.408,184.549 103.895,184.812 103.370 C 187.853 97.317,189.050 86.095,187.340 79.667 C 187.157 78.979,187.006 78.282,187.004 78.118 C 187.002 77.954,186.668 76.932,186.261 75.846 C 184.347 70.728,182.037 67.379,177.750 63.507 C 174.797 60.840,168.994 58.326,164.083 57.586 C 159.284 56.863,151.452 57.922,147.833 59.784 C 147.604 59.902,147.327 59.998,147.218 59.999 C 146.377 60.003,140.604 63.278,138.190 65.121 C 135.807 66.940,131.777 70.793,130.417 72.555 C 130.142 72.911,129.674 73.513,129.377 73.893 C 128.172 75.434,125.500 79.487,125.500 79.773 C 125.500 79.819,125.307 80.186,125.072 80.587 L 124.644 81.317 123.460 80.409 C 122.809 79.909,122.216 79.500,122.144 79.500 C 122.071 79.500,121.667 79.282,121.246 79.015 C 119.866 78.139,116.712 77.247,114.500 77.106 C 112.002 76.947,111.186 77.109,99.833 80.007 C 98.688 80.299,97.112 80.675,96.333 80.841 C 95.554 81.008,94.277 81.325,93.494 81.547 L 92.072 81.949 92.077 79.349 C 92.081 77.756,91.998 76.395,91.863 75.833 C 91.743 75.329,91.580 74.537,91.502 74.072 C 90.843 70.141,86.803 65.272,82.556 63.290 C 77.692 61.020,69.782 61.663,65.556 64.673 C 65.174 64.944,64.814 65.167,64.755 65.167 C 64.195 65.167,60.625 68.486,58.571 70.917 C 58.029 71.558,56.980 72.762,56.240 73.591 L 54.895 75.098 53.989 74.206 C 49.841 70.124,43.468 68.336,38.333 69.815 C 37.646 70.013,36.650 70.250,36.120 70.342 C 35.590 70.434,34.315 70.760,33.287 71.067 C 32.258 71.375,31.212 71.674,30.962 71.732 C 30.711 71.790,29.801 72.174,28.939 72.585 C 22.124 75.835,19.134 82.195,20.661 90.198 L 21.032 92.145 20.594 114.531 C 20.004 144.697,19.988 142.837,20.854 146.333 C 21.915 150.619,25.246 154.556,29.648 156.728 C 30.508 157.153,31.140 157.500,31.051 157.500 C 30.963 157.500,30.141 158.351,29.225 159.391 L 27.559 161.282 27.087 160.906 C 26.283 160.265,23.629 159.011,22.667 158.817 C 22.162 158.716,21.450 158.569,21.083 158.490 C 15.748 157.349,4.149 161.386,2.667 164.899 C 2.621 165.008,2.373 165.368,2.116 165.700 C 0.407 167.910,-0.374 172.266,0.269 176.008 C 0.511 177.416,0.519 178.487,0.348 186.579 C -0.005 203.198,-0.077 214.458,0.161 215.752 C 0.431 217.221,1.549 220.121,2.184 220.997 C 2.449 221.364,2.667 221.730,2.667 221.810 C 2.667 222.130,5.487 224.799,6.583 225.516 C 10.516 228.089,15.931 228.481,20.750 226.540 C 22.373 225.886,24.001 224.970,25.000 224.147 C 25.321 223.882,25.788 223.498,26.038 223.291 C 26.607 222.822,28.566 220.612,29.308 219.601 L 29.866 218.841 30.391 219.236 C 36.814 224.061,46.451 221.972,52.833 214.372 L 53.417 213.678 54.833 214.154 C 61.110 216.262,70.267 215.011,75.798 211.289 C 76.473 210.835,76.559 210.818,77.348 210.988 C 81.144 211.802,85.824 210.370,88.947 207.440 L 89.644 206.786 91.499 207.000 C 94.353 207.329,97.134 206.943,99.463 205.896 C 99.947 205.678,100.405 205.500,100.480 205.500 C 100.671 205.500,102.757 204.145,103.683 203.419 C 104.756 202.580,106.938 200.358,107.341 199.695 C 107.526 199.391,107.824 198.984,108.003 198.791 C 108.183 198.599,108.377 198.293,108.434 198.112 C 108.492 197.931,108.761 197.405,109.034 196.942 C 110.268 194.850,111.167 191.456,111.167 188.891 L 111.167 187.268 111.708 188.079 C 112.006 188.526,112.349 189.069,112.471 189.286 C 112.890 190.036,116.253 193.255,117.508 194.107 C 124.927 199.147,134.375 199.117,143.808 194.024 C 144.561 193.617,144.793 193.564,145.308 193.684 C 147.156 194.113,150.560 193.745,152.445 192.911 C 152.956 192.685,153.453 192.500,153.548 192.500 C 153.757 192.500,155.394 191.475,155.472 191.295 C 155.503 191.224,155.627 191.167,155.749 191.167 C 156.252 191.167,158.777 188.388,159.740 186.775 L 160.706 185.154 161.123 185.428 C 161.945 185.966,165.910 187.153,167.513 187.341 C 176.447 188.386,184.846 185.351,191.849 178.546 L 193.615 176.831 194.349 177.385 C 200.075 181.709,209.803 180.407,215.250 174.587 C 216.304 173.461,216.800 172.874,216.976 172.545 C 217.155 172.210,217.184 172.216,218.454 172.838 C 223.805 175.459,230.669 174.613,235.333 170.756 C 235.878 170.306,238.722 167.395,238.944 167.061 L 239.180 166.705 240.461 167.183 C 242.960 168.115,247.111 168.617,249.963 168.331 L 251.842 168.142 253.032 169.446 C 256.254 172.976,261.060 177.433,264.270 179.867 C 266.898 181.861,268.562 183.036,270.163 184.027 C 270.852 184.454,271.834 185.073,272.344 185.402 C 272.854 185.731,273.326 186.000,273.393 186.000 C 273.460 186.000,273.976 186.300,274.540 186.667 C 275.105 187.033,275.623 187.333,275.692 187.333 C 275.762 187.333,276.178 187.543,276.618 187.800 C 279.476 189.468,288.689 193.245,291.333 193.833 C 291.654 193.904,292.854 194.228,294.000 194.551 C 296.907 195.373,301.294 196.297,303.254 196.500 C 304.161 196.594,305.356 196.742,305.910 196.828 C 306.464 196.914,307.558 197.034,308.341 197.096 L 309.765 197.207 310.305 196.195 C 311.801 193.387,311.882 189.817,310.514 186.895 C 309.459 184.640,307.901 184.610,306.258 186.812 C 305.463 187.877,305.563 187.961,304.140 185.016 C 302.200 181.000,300.753 176.739,299.761 172.118 C 298.617 166.790,298.607 166.637,298.575 154.000 C 298.521 132.714,297.869 130.215,289.926 120.891 C 285.938 116.210,277.774 108.558,272.378 104.444 C 270.024 102.649,269.848 102.104,268.360 92.000 C 267.944 89.177,269.144 88.722,274.333 89.734 C 284.025 91.623,283.111 91.570,283.744 90.277 C 284.740 88.242,285.164 83.610,284.600 80.942 C 282.575 71.364,283.147 56.932,285.722 52.632 C 288.641 47.759,290.544 46.250,293.771 46.250 L 295.625 46.250 296.576 46.904 C 297.730 47.699,299.296 49.463,302.112 53.141 C 311.091 64.870,315.881 70.482,318.417 72.248 C 322.063 74.787,322.999 74.970,330.500 74.610 C 337.513 74.274,337.681 74.411,355.254 94.750 C 360.732 101.090,359.199 99.949,368.917 104.918 C 385.498 113.396,389.387 115.543,390.599 116.888 C 392.989 119.539,391.330 122.609,385.667 126.018 C 381.880 128.297,379.124 129.176,372.858 130.105 C 372.301 130.188,372.304 130.191,373.981 131.329 C 377.407 133.652,380.346 136.278,381.320 137.884 C 381.830 138.725,381.772 138.749,379.923 138.464 C 379.049 138.329,378.333 138.234,378.333 138.252 C 378.333 138.271,379.121 138.940,380.084 139.739 C 383.505 142.578,387.003 146.431,388.246 148.729 C 388.841 149.829,388.865 149.797,387.360 149.937 C 385.733 150.088,385.742 150.117,387.866 151.521 C 388.888 152.197,389.811 152.835,389.915 152.939 C 390.057 153.081,390.360 152.617,391.115 151.106 C 392.475 148.382,393.500 146.193,393.500 146.013 C 393.500 145.931,393.731 145.351,394.014 144.724 C 394.512 143.620,395.243 141.635,395.784 139.917 C 395.928 139.458,396.306 138.296,396.623 137.333 C 396.940 136.371,397.259 135.246,397.333 134.833 C 397.406 134.421,397.731 132.996,398.054 131.667 C 398.377 130.337,398.767 128.462,398.921 127.500 C 399.075 126.537,399.350 124.813,399.533 123.667 C 400.015 120.651,400.162 108.218,399.758 104.649 C 398.994 97.892,397.368 90.613,395.463 85.417 C 395.194 84.683,394.917 83.858,394.846 83.583 C 394.337 81.603,389.642 71.852,388.476 70.353 C 388.306 70.134,388.167 69.898,388.167 69.828 C 388.167 69.639,386.217 66.628,384.545 64.234 C 383.632 62.926,382.197 61.066,381.933 60.847 C 381.786 60.725,381.667 60.529,381.667 60.410 C 381.667 60.292,381.610 60.169,381.540 60.139 C 381.470 60.108,380.842 59.408,380.145 58.583 C 376.824 54.655,372.422 50.366,368.768 47.500 C 368.242 47.087,367.527 46.506,367.178 46.208 C 366.829 45.910,366.490 45.667,366.426 45.667 C 366.362 45.667,365.959 45.377,365.530 45.022 C 365.101 44.668,364.225 44.032,363.583 43.609 C 362.942 43.185,362.117 42.632,361.751 42.378 C 361.385 42.124,360.597 41.628,360.001 41.275 C 359.405 40.922,358.504 40.387,358.000 40.086 C 357.496 39.784,356.496 39.226,355.779 38.846 C 355.062 38.465,354.349 38.083,354.196 37.997 C 353.637 37.684,349.728 35.861,348.917 35.536 C 348.458 35.352,347.408 34.920,346.583 34.576 C 345.758 34.231,344.858 33.892,344.583 33.823 C 344.308 33.753,343.446 33.472,342.667 33.198 C 340.657 32.491,336.802 31.330,336.470 31.332 C 336.317 31.333,335.117 31.073,333.804 30.755 C 332.491 30.437,330.817 30.101,330.083 30.009 C 329.350 29.918,327.737 29.695,326.500 29.515 C 321.962 28.853,313.893 28.623,309.250 29.023 M290.794 54.451 C 291.001 54.491,291.301 54.490,291.460 54.448 C 291.620 54.406,291.450 54.374,291.083 54.375 C 290.717 54.377,290.586 54.411,290.794 54.451 M294.653 59.827 C 294.608 60.090,294.434 60.278,294.167 60.352 C 293.799 60.453,293.792 60.469,294.105 60.483 C 294.540 60.504,294.885 60.119,294.792 59.716 C 294.739 59.485,294.707 59.511,294.653 59.827 M160.167 64.244 C 169.426 65.656,175.661 73.752,175.666 84.366 C 175.668 89.227,174.870 92.700,172.379 98.667 C 171.786 100.087,171.052 101.850,170.749 102.583 C 170.446 103.317,169.900 104.629,169.537 105.500 C 169.173 106.371,167.975 109.258,166.873 111.917 C 160.432 127.452,160.634 127.038,158.435 129.306 C 150.159 137.844,138.402 129.753,144.650 119.820 L 145.638 118.250 144.527 118.126 C 141.200 117.753,140.539 117.635,139.126 117.162 C 126.889 113.066,122.641 98.650,129.379 84.083 C 135.486 70.880,148.539 62.469,160.167 64.244 M285.228 67.833 C 285.228 68.796,285.256 69.190,285.290 68.708 C 285.323 68.227,285.323 67.440,285.290 66.958 C 285.256 66.477,285.228 66.871,285.228 67.833 M73.564 68.506 C 79.631 69.383,81.646 77.201,77.439 83.539 C 76.964 84.254,67.407 95.352,64.411 98.667 L 64.035 99.083 66.758 103.250 C 68.256 105.542,70.086 108.354,70.825 109.500 C 71.564 110.646,73.026 112.896,74.073 114.500 C 77.629 119.945,77.890 120.375,78.308 121.480 C 81.155 128.991,72.703 139.278,65.146 137.499 C 62.550 136.888,62.121 136.389,56.832 127.833 C 55.614 125.864,49.808 116.615,49.587 116.294 C 49.411 116.038,49.186 116.231,47.637 117.971 L 45.885 119.937 45.714 127.427 C 45.524 135.710,45.453 136.279,44.323 138.524 C 39.747 147.609,28.209 148.672,26.625 140.155 C 26.431 139.112,26.438 138.457,27.034 101.149 C 27.224 89.240,27.219 88.628,26.918 86.649 C 25.943 80.249,27.071 78.781,34.417 76.899 C 39.709 75.543,41.983 75.800,44.189 78.006 C 46.152 79.970,46.427 81.185,46.373 87.665 L 46.329 92.913 46.721 92.498 C 46.937 92.270,48.647 90.321,50.521 88.167 C 64.413 72.196,65.332 71.189,66.926 70.178 C 68.001 69.496,70.136 68.684,71.307 68.512 C 71.826 68.436,72.287 68.366,72.333 68.357 C 72.379 68.348,72.933 68.415,73.564 68.506 M255.127 69.951 C 255.334 69.991,255.634 69.990,255.794 69.948 C 255.953 69.906,255.783 69.874,255.417 69.875 C 255.050 69.877,254.920 69.911,255.127 69.951 M285.705 75.000 C 285.705 75.321,285.740 75.452,285.782 75.292 C 285.823 75.131,285.823 74.869,285.782 74.708 C 285.740 74.548,285.705 74.679,285.705 75.000 M333.333 77.477 C 333.333 77.556,333.521 77.585,333.750 77.541 C 333.979 77.497,334.167 77.432,334.167 77.397 C 334.167 77.362,333.979 77.333,333.750 77.333 C 333.521 77.333,333.333 77.398,333.333 77.477 M323.565 77.738 C 323.515 77.869,323.507 78.150,323.547 78.363 C 323.605 78.663,323.626 78.631,323.644 78.219 C 323.664 77.751,323.731 77.680,324.208 77.621 L 324.750 77.553 324.203 77.527 C 323.863 77.510,323.622 77.590,323.565 77.738 M327.128 77.621 C 327.428 77.658,327.878 77.657,328.128 77.619 C 328.378 77.581,328.133 77.551,327.583 77.552 C 327.033 77.553,326.828 77.584,327.128 77.621 M286.889 84.167 C 286.889 84.854,286.919 85.135,286.955 84.792 C 286.991 84.448,286.991 83.885,286.955 83.542 C 286.919 83.198,286.889 83.479,286.889 84.167 M112.510 84.000 C 121.877 86.602,117.513 102.452,106.777 104.820 C 105.518 105.098,104.620 105.320,99.333 106.666 C 85.876 110.090,84.847 110.283,82.996 109.734 C 76.361 107.763,76.050 97.978,82.434 92.016 C 84.296 90.277,85.819 89.594,90.250 88.508 C 93.734 87.655,95.399 87.239,100.000 86.073 C 101.329 85.736,103.017 85.322,103.750 85.152 C 104.483 84.982,105.908 84.621,106.917 84.349 C 108.881 83.819,111.313 83.667,112.510 84.000 M295.209 85.250 C 295.211 85.617,295.245 85.747,295.285 85.540 C 295.324 85.332,295.323 85.032,295.281 84.873 C 295.239 84.714,295.207 84.883,295.209 85.250 M150.987 85.219 C 144.590 86.659,143.808 97.847,150.157 97.086 C 154.099 96.614,157.093 91.845,155.922 87.904 C 155.244 85.622,153.475 84.659,150.987 85.219 M338.881 97.417 C 338.882 97.875,338.915 98.043,338.953 97.789 C 338.991 97.536,338.990 97.161,338.951 96.956 C 338.911 96.751,338.880 96.958,338.881 97.417 M338.883 100.333 C 338.883 100.837,338.915 101.044,338.953 100.792 C 338.991 100.540,338.991 100.127,338.953 99.875 C 338.915 99.623,338.883 99.829,338.883 100.333 M359.542 106.119 C 359.794 106.158,360.206 106.158,360.458 106.119 C 360.710 106.081,360.504 106.050,360.000 106.050 C 359.496 106.050,359.290 106.081,359.542 106.119 M355.375 110.250 C 355.377 110.617,355.411 110.747,355.451 110.540 C 355.491 110.332,355.490 110.032,355.448 109.873 C 355.406 109.714,355.374 109.883,355.375 110.250 M122.974 114.500 C 123.752 116.130,124.625 117.681,125.029 118.150 C 125.182 118.328,125.400 118.648,125.514 118.862 C 125.803 119.407,128.530 122.476,129.288 123.109 C 130.231 123.897,131.431 124.870,131.982 125.293 C 132.715 125.856,134.919 127.107,136.042 127.598 C 136.666 127.871,136.667 127.873,136.670 128.894 C 136.671 129.456,136.786 130.442,136.926 131.083 C 137.065 131.725,137.248 132.601,137.333 133.030 C 137.505 133.902,139.002 137.094,139.480 137.606 C 139.649 137.789,139.880 138.108,139.991 138.317 C 140.103 138.525,140.459 138.990,140.783 139.348 C 141.107 139.707,141.345 140.005,141.311 140.012 C 141.277 140.018,139.750 140.048,137.917 140.077 C 132.664 140.162,127.128 141.773,124.071 144.104 C 123.785 144.322,123.498 144.500,123.432 144.500 C 123.232 144.500,120.322 146.718,119.206 147.721 L 118.161 148.660 117.206 148.230 C 114.407 146.972,110.673 146.407,107.917 146.825 C 107.367 146.908,106.367 147.057,105.696 147.156 C 103.319 147.506,98.831 149.250,97.197 150.459 C 96.654 150.860,96.615 150.864,95.095 150.685 C 93.572 150.505,92.314 150.582,90.250 150.982 C 88.725 151.277,86.817 152.176,85.225 153.352 L 84.121 154.167 82.269 154.167 C 79.106 154.167,75.057 155.500,73.483 157.058 C 73.090 157.448,73.030 157.454,69.750 157.463 C 66.185 157.472,65.066 157.625,62.813 158.413 C 62.151 158.644,61.496 158.833,61.358 158.833 C 61.220 158.833,60.488 159.133,59.730 159.500 C 58.973 159.867,58.305 160.167,58.246 160.167 C 58.187 160.167,57.684 160.434,57.127 160.760 C 56.354 161.213,56.086 161.302,55.990 161.135 C 54.191 158.009,52.047 155.676,50.108 154.736 C 48.773 154.089,48.701 154.322,50.925 152.101 C 53.600 149.430,55.412 146.799,56.410 144.139 L 56.702 143.361 58.392 145.063 C 65.906 152.627,78.363 151.152,85.933 141.801 C 86.474 141.132,87.048 140.440,87.208 140.261 C 87.369 140.083,87.500 139.871,87.500 139.791 C 87.500 139.710,87.680 139.406,87.900 139.114 C 90.801 135.268,92.193 126.506,90.574 122.286 C 90.504 122.104,91.011 121.925,92.783 121.504 C 94.821 121.020,96.634 120.566,101.417 119.342 C 102.150 119.154,103.425 118.840,104.250 118.645 C 105.075 118.450,106.725 118.042,107.917 117.740 C 109.108 117.437,110.496 117.099,111.000 116.988 C 115.188 116.067,119.861 113.907,121.413 112.175 L 121.742 111.807 122.020 112.445 C 122.172 112.796,122.601 113.721,122.974 114.500 M346.890 113.583 C 346.891 114.317,346.920 114.596,346.956 114.204 C 346.991 113.812,346.990 113.212,346.954 112.871 C 346.919 112.529,346.890 112.850,346.890 113.583 M255.761 117.012 C 262.583 117.961,266.758 122.622,267.267 129.857 C 267.456 132.539,266.807 134.295,264.951 136.130 C 263.097 137.961,262.272 138.247,252.167 140.555 C 245.504 142.077,246.090 141.852,246.750 142.636 C 247.507 143.536,248.908 143.452,250.885 142.386 C 255.646 139.819,257.444 139.494,259.541 140.823 C 263.668 143.441,261.447 149.881,255.242 153.292 C 241.403 160.899,229.266 152.775,231.773 137.583 C 233.716 125.813,245.622 115.602,255.761 117.012 M334.250 117.500 C 334.608 117.867,334.938 118.167,334.984 118.167 C 335.030 118.167,334.775 117.867,334.417 117.500 C 334.059 117.133,333.728 116.833,333.682 116.833 C 333.637 116.833,333.892 117.133,334.250 117.500 M205.723 117.463 C 206.881 117.865,207.733 118.672,208.368 119.965 L 208.917 121.083 208.874 129.083 L 208.832 137.083 214.457 131.384 C 220.275 125.491,221.237 124.673,222.854 124.243 C 226.930 123.158,230.031 125.503,230.016 129.661 C 230.005 132.461,229.192 133.932,225.567 137.714 C 224.064 139.282,222.837 140.644,222.841 140.741 C 222.845 140.838,223.596 141.929,224.509 143.167 C 230.304 151.021,230.265 150.949,230.122 153.583 C 229.877 158.100,226.291 161.989,222.230 162.140 C 219.430 162.245,219.163 162.024,214.990 156.148 L 211.786 151.637 210.166 153.250 L 208.547 154.864 208.453 157.390 C 208.392 159.045,208.262 160.233,208.078 160.833 C 205.979 167.665,197.736 170.341,195.133 165.036 L 194.583 163.917 194.625 157.417 C 194.714 143.667,195.151 125.488,195.421 124.351 C 196.590 119.424,201.645 116.045,205.723 117.463 M387.542 120.250 C 387.544 120.617,387.578 120.747,387.618 120.540 C 387.658 120.332,387.656 120.032,387.615 119.873 C 387.573 119.714,387.540 119.883,387.542 120.250 M346.000 120.028 C 346.000 120.135,346.052 120.171,346.115 120.108 C 346.177 120.045,346.534 120.276,346.906 120.622 L 347.583 121.250 346.925 120.542 C 346.254 119.821,346.000 119.680,346.000 120.028 M248.904 129.903 C 247.917 130.333,246.417 131.972,246.727 132.282 C 246.800 132.355,249.620 131.697,251.542 131.159 C 252.301 130.947,252.330 130.667,251.654 130.098 C 251.064 129.602,249.801 129.512,248.904 129.903 M342.167 132.583 C 342.665 133.087,343.109 133.500,343.155 133.500 C 343.201 133.500,342.831 133.087,342.333 132.583 C 341.835 132.079,341.391 131.667,341.345 131.667 C 341.299 131.667,341.669 132.079,342.167 132.583 M181.000 136.812 C 192.504 140.726,193.550 157.168,182.997 168.221 C 169.972 181.863,151.936 174.835,154.728 157.206 C 156.828 143.944,170.582 133.268,181.000 136.812 M148.233 143.566 C 148.917 143.851,149.565 144.682,149.846 145.635 C 150.090 146.458,149.767 174.766,149.494 176.563 C 148.770 181.325,144.562 183.161,141.414 180.088 L 140.526 179.221 139.910 179.957 C 135.758 184.924,126.944 187.113,121.461 184.538 C 110.270 179.284,112.028 159.230,124.464 150.288 C 129.878 146.394,136.881 145.397,140.795 147.961 C 141.233 148.248,141.199 148.268,141.582 147.500 C 143.030 144.596,146.205 142.718,148.233 143.566 M339.583 145.167 C 339.941 145.533,340.272 145.833,340.318 145.833 C 340.363 145.833,340.108 145.533,339.750 145.167 C 339.392 144.800,339.062 144.500,339.016 144.500 C 338.970 144.500,339.225 144.800,339.583 145.167 M373.801 145.028 C 373.985 145.263,373.972 145.317,373.717 145.383 C 373.456 145.451,373.453 145.464,373.698 145.481 C 374.112 145.509,374.206 145.238,373.873 144.977 C 373.614 144.774,373.606 144.779,373.801 145.028 M171.583 151.559 C 169.125 152.706,167.627 156.584,168.793 158.782 C 170.685 162.349,175.963 159.803,176.295 155.164 C 176.522 151.994,174.298 150.292,171.583 151.559 M109.445 153.701 C 115.936 155.832,113.211 166.814,105.895 168.005 C 105.357 168.093,104.167 168.282,103.250 168.426 C 99.342 169.040,99.256 169.265,98.932 179.753 C 98.679 187.923,98.628 188.255,97.304 190.440 C 93.735 196.330,86.167 196.432,85.076 190.605 C 84.930 189.826,85.301 165.665,85.497 163.124 C 85.921 157.653,90.663 155.188,93.834 158.791 L 94.506 159.553 95.878 158.228 C 100.087 154.161,105.423 152.380,109.445 153.701 M381.000 159.052 C 381.000 159.081,381.244 159.325,381.542 159.594 L 382.083 160.083 381.594 159.542 C 381.138 159.037,381.000 158.923,381.000 159.052 M41.770 159.829 C 44.429 160.991,45.534 164.329,44.407 167.794 C 43.760 169.784,43.206 170.538,38.083 176.399 C 35.608 179.231,33.598 181.599,33.615 181.662 C 33.633 181.725,35.839 185.145,38.518 189.263 C 44.047 197.762,44.031 197.732,44.134 199.628 C 44.408 204.675,40.310 209.533,35.750 209.567 C 32.841 209.589,32.603 209.343,27.273 200.818 C 24.957 197.114,22.980 194.083,22.879 194.083 C 22.778 194.083,22.176 194.674,21.540 195.395 L 20.384 196.707 20.266 201.973 C 20.139 207.605,20.053 208.341,19.325 209.956 C 16.518 216.186,8.698 217.660,6.643 212.347 C 6.227 211.271,6.214 209.711,6.497 194.917 C 6.906 173.578,6.903 174.224,6.586 172.344 C 5.852 167.986,6.733 166.899,12.118 165.523 C 16.157 164.492,17.291 164.622,19.013 166.319 C 20.618 167.899,20.754 168.447,20.705 173.125 C 20.683 175.256,20.698 177.000,20.737 177.000 C 20.807 177.000,23.635 173.788,30.954 165.397 C 35.949 159.671,38.457 158.380,41.770 159.829 M80.067 160.899 C 81.540 161.514,81.876 162.599,81.856 166.667 C 81.813 175.126,81.460 193.348,81.323 194.149 C 80.546 198.690,76.363 200.451,73.320 197.519 L 72.444 196.674 71.057 198.006 C 66.497 202.384,59.789 204.169,54.531 202.404 C 42.337 198.311,43.216 177.530,55.990 167.899 C 61.101 164.046,67.821 162.881,72.182 165.091 C 72.650 165.328,73.050 165.499,73.070 165.470 C 73.091 165.440,73.322 165.043,73.584 164.586 C 75.186 161.791,78.158 160.101,80.067 160.899 M131.426 161.504 C 129.176 162.382,127.461 165.575,127.985 167.913 C 128.722 171.206,132.257 171.535,134.550 168.524 C 137.375 164.814,135.240 160.015,131.426 161.504 M327.417 162.333 C 327.559 162.608,327.713 162.833,327.759 162.833 C 327.804 162.833,327.726 162.608,327.583 162.333 C 327.441 162.058,327.287 161.833,327.241 161.833 C 327.196 161.833,327.274 162.058,327.417 162.333 M383.006 163.865 C 382.708 164.185,382.565 164.500,382.719 164.500 C 382.747 164.500,382.937 164.275,383.140 164.000 C 383.572 163.416,383.496 163.339,383.006 163.865 M380.667 166.833 C 380.376 167.200,380.176 167.500,380.222 167.500 C 380.268 167.500,380.543 167.200,380.833 166.833 C 381.124 166.467,381.324 166.167,381.278 166.167 C 381.232 166.167,380.957 166.467,380.667 166.833 M378.724 169.125 C 376.651 171.437,372.932 175.058,370.667 176.972 C 368.317 178.958,367.916 179.333,368.152 179.333 C 368.243 179.333,368.377 179.239,368.450 179.124 C 368.523 179.008,369.483 178.165,370.583 177.250 C 373.529 174.801,380.621 167.667,380.111 167.667 C 380.067 167.667,379.443 168.323,378.724 169.125 M62.917 179.059 C 60.835 180.030,59.356 183.034,59.842 185.302 C 60.475 188.253,63.458 188.897,65.773 186.582 C 69.532 182.823,67.322 177.003,62.917 179.059 M367.333 179.691 C 367.104 179.882,366.771 180.141,366.593 180.265 C 366.416 180.390,366.311 180.533,366.360 180.582 C 366.410 180.632,366.780 180.374,367.184 180.010 C 367.949 179.318,368.056 179.089,367.333 179.691 M365.594 180.982 C 365.536 181.076,364.968 181.502,364.332 181.929 C 363.696 182.356,363.085 182.814,362.974 182.947 C 362.864 183.081,363.298 182.828,363.939 182.387 C 365.735 181.149,365.904 181.015,365.798 180.909 C 365.744 180.855,365.652 180.888,365.594 180.982 M361.998 183.516 C 361.770 183.696,361.096 184.139,360.500 184.500 C 359.904 184.861,359.229 185.318,359.000 185.516 L 358.583 185.874 359.000 185.607 C 359.229 185.460,359.979 184.997,360.667 184.577 C 362.172 183.657,362.583 183.361,362.485 183.263 C 362.445 183.223,362.225 183.336,361.998 183.516 M357.471 186.301 C 356.587 186.877,355.932 187.401,356.500 187.078 C 357.202 186.679,358.500 185.813,358.500 185.745 C 358.500 185.630,358.499 185.631,357.471 186.301 M354.792 187.762 C 354.169 188.100,354.207 188.241,354.833 187.917 C 355.108 187.774,355.333 187.623,355.333 187.579 C 355.333 187.472,355.315 187.478,354.792 187.762 M323.564 190.500 C 323.564 191.646,323.591 192.115,323.623 191.542 C 323.656 190.969,323.656 190.031,323.623 189.458 C 323.591 188.885,323.564 189.354,323.564 190.500 M352.292 189.011 C 351.948 189.193,351.667 189.379,351.667 189.424 C 351.667 189.470,351.967 189.354,352.333 189.167 C 352.700 188.980,353.000 188.791,353.000 188.747 C 353.000 188.638,352.999 188.638,352.292 189.011 M349.536 190.282 C 349.051 190.518,348.682 190.738,348.715 190.771 C 348.791 190.847,350.500 190.029,350.500 189.916 C 350.500 189.808,350.548 189.790,349.536 190.282 M346.417 191.572 C 345.322 192.100,345.535 192.116,346.687 191.593 C 347.180 191.369,347.508 191.183,347.417 191.178 C 347.325 191.174,346.875 191.352,346.417 191.572 M342.619 192.947 C 341.996 193.183,341.517 193.405,341.553 193.442 C 341.634 193.523,343.524 192.830,343.742 192.639 C 343.963 192.445,343.894 192.464,342.619 192.947 M338.198 194.281 C 337.803 194.420,337.509 194.564,337.545 194.600 C 337.581 194.636,338.017 194.521,338.513 194.345 C 339.010 194.169,339.304 194.025,339.167 194.025 C 339.029 194.026,338.593 194.141,338.198 194.281 M313.042 197.448 C 313.202 197.490,313.465 197.490,313.625 197.448 C 313.785 197.406,313.654 197.372,313.333 197.372 C 313.012 197.372,312.881 197.406,313.042 197.448 " stroke="none" fill="#24449c" fill-rule="evenodd"></path></g></svg>