<svg viewBox="0 0 399.97 227.75" xmlns="http://www.w3.org/2000/svg"><g fill-rule="evenodd" transform="translate(-.02 -.02)"><path d="m291.71 46.4c-1.87.61-4 2.88-6.18 6.55-2.38 4-2.87 18.8-.93 28 .73 3.45-.27 9.89-1.6 10.31a16.87 16.87 0 0 1 -3-.42l-5.63-1.1c-5.19-1-6.39-.55-6 2.27 1.49 10.1 1.66 10.65 4 12.44a141.39 141.39 0 0 1 17.55 16.45c7.94 9.32 8.59 11.82 8.65 33.11 0 12.64 0 12.79 1.18 18.12a56.82 56.82 0 0 0 4.38 12.9c1.42 2.94 1.32 2.86 2.12 1.79 1.64-2.2 3.2-2.17 4.25.09a10.59 10.59 0 0 1 -.17 9.23 2.92 2.92 0 0 0 -.42 1c.33.33 7.85.38 11.6.08l1.26-.1.32-1.61a40.45 40.45 0 0 0 .1-9.44c-1.21-5.59-3.69-10.62-8.21-16.7a16.09 16.09 0 0 1 -1.58-2.37 8.85 8.85 0 0 1 1.89.67c5.48 2.33 10.43 3.2 12.46 2.19 3.29-1.63.8-7.56-7.37-17.61a20.94 20.94 0 0 1 -1.62-2.12c.06 0 1 .16 2.13.36 10.12 1.84 14.64-1.88 11.67-9.6-.22-.58 3.43 1.08 5 2.29a18.61 18.61 0 0 1 4.66 5.41c.89 1.49 1.09 1.3 1.43-1.29.63-4.81-2.54-11.6-8.27-17.67-1.3-1.38-1.3-1.36-.07-1.07a14.44 14.44 0 0 1 6.63 3.65c1.56 1.46 1.62 1.42 1.12-.75-.92-3.94-3.63-8.4-7.92-13-1.74-1.88-1.63-1.58-.93-2.68 6.19-9.68 6.16-21.26-.08-36.36a12.29 12.29 0 0 1 -.74-2.07c.49-.49 4.21 1.28 5.43 2.58 1 1.06 9.48 10.62 13.72 15.47 3.35 3.83 3.31 3.66 1.2 5.09a13.38 13.38 0 0 0 -4.89 5.42c-2.84 5.67-2.48 11.55 1 16.23.88 1.19-.81.38-2.67-1.27-1.16-1-1.16-1-.58.82 1.73 5.47 5.3 8.67 13 11.65.43.17.36.23-1.71 1.23-3.63 1.76-3.63 1.82-.17 2.5 7.15 1.41 11.7 3.47 15.13 6.87 1.48 1.47 1.49 1.43-.38 1.7-7.84 1.13-9.51 2.75-4.73 4.61a34.12 34.12 0 0 1 15.3 11.14 4.82 4.82 0 0 0 1.05 1.2c.11-.11.1-.1 2.26-3.34.9-1.34 1.68-2.57 1.74-2.73a11.82 11.82 0 0 1 .74-1.25 4.91 4.91 0 0 0 .64-1.19.65.65 0 0 1 .25-.42c.51-.43.23-.76-1.75-2.07-2.27-1.49-2.28-1.51-.64-1.66s1.48-.11.89-1.21c-1.25-2.3-4.74-6.15-8.17-9-1-.8-1.75-1.47-1.75-1.49s.72.08 1.59.21c1.85.29 1.91.27 1.4-.58-1-1.6-3.91-4.23-7.34-6.55-1.68-1.14-1.68-1.14-1.12-1.23 6.26-.92 9-1.8 12.81-4.08 5.66-3.41 7.32-6.48 4.93-9.13-1.21-1.35-5.1-3.49-21.68-12-9.72-5-8.19-3.83-13.67-10.17-17.57-20.34-17.74-20.48-24.75-20.14-11.19.54-12-.1-28.39-21.47-4.63-6-5.59-6.87-8.09-6.93a8.49 8.49 0 0 0 -2.31.19m3.66 2.06c1.08.5 6.38 6.94 5.95 7.22-.62.4-1.74.56-3.9.56h-2.34l-1.41-.83c-2.32-1.36-3.8-1.26-5.44.36-2.15 2.12-2-.2.29-3.61 2.45-3.7 4.48-4.8 6.85-3.71m2.5 10.31c.18.38.16.47-.19.75a.65.65 0 0 1 -.93-.92.64.64 0 0 1 1.12.17m-3.3.49a.68.68 0 0 1 -.64 1.18.66.66 0 0 1 -.34-1.12c.36-.39.63-.4 1-.06m2.5 2.17c.35.35.33.62-.07 1a.72.72 0 0 1 -1-1.05.73.73 0 0 1 1 .06m-9.7.9c1.29.86 1.58 1.46 2.23 4.61 1.43 6.93 2 8.55 4.2 12.21 1.59 2.61 1.61 2.7 1.48 5.76-.25 5.55-.87 8.52-1.75 8.37s-7.76-1.49-8-1.55-.05-.48.3-1.51c1.13-3.35 1.26-6.11.48-10.89-1.24-7.66-1.42-14-.48-16.95.22-.69.54-.69 1.52-.05m-133.77 1.98c-9.56 1.39-19.29 9.38-24.12 19.82-6.74 14.57-2.49 29 9.75 33.08a21.51 21.51 0 0 0 5.4 1l1.11.12-1 1.57c-3.09 4.92-1.9 10.23 2.81 12.48 3.27 1.56 7.74.34 11-3 2.2-2.27 2-1.86 8.44-17.39 1.11-2.66 2.3-5.55 2.67-6.42s.91-2.18 1.21-2.92 1-2.49 1.63-3.91a39.17 39.17 0 0 0 2.38-6.75c4.1-16.94-5.9-29.94-21.28-27.68m-82.19 4.25a14.39 14.39 0 0 0 -4.38 1.67c-1.6 1-2.52 2-16.41 18-1.87 2.15-3.58 4.1-3.8 4.33l-.39.41v-5.24c.06-6.49-.22-7.7-2.18-9.66-2.15-2.22-4.44-2.48-9.73-1.12-7.35 1.88-8.48 3.35-7.5 9.75.3 2 .3 2.59.11 14.5-.59 37.31-.6 38-.41 39 1.59 8.52 13.13 7.46 17.7-1.63 1.13-2.24 1.2-2.81 1.39-11.09l.17-7.49 1.76-2c1.55-1.74 1.77-1.93 2-1.68s6 9.57 7.24 11.54c5.29 8.56 5.72 9.06 8.32 9.67 7.55 1.78 16-8.51 13.16-16-.42-1.1-.68-1.54-4.24-7-1-1.6-2.51-3.85-3.25-5s-2.56-4-4.06-6.25l-2.81-4.14.37-.41c3-3.32 12.55-14.42 13-15.13 3.52-5.3 2.77-12-1.59-14.27a9.14 9.14 0 0 0 -3.52-.91l-1 .15m257.3 9.13c.68.1 4.2 6.62 3.89 7.19s-.71.35-5-2.41c-2.83-1.81-3.45-2.28-3.64-2.69a5 5 0 0 1 -.31-2 38.64 38.64 0 0 1 5.06-.08m-221.64 6.7c-1 .27-2.44.63-3.17.8l-3.75.92c-4.6 1.17-6.27 1.58-9.75 2.44-4.43 1.08-6 1.77-7.82 3.51-6.38 6-6.07 15.74.57 17.71 1.85.55 2.88.36 16.33-3.06 5.29-1.35 6.19-1.57 7.45-1.85 6.58-1.45 11.6-8.18 10.73-14.41-.76-5.43-4.66-7.66-10.59-6.06m47.16 1.08c1.19.56 2.09 2.38 2.09 4.23 0 7.13-9.27 10.57-10.35 3.85-.81-5 4.26-10 8.26-8.08m209.09 21.45c4.2 1.65 22.61 10.72 23.55 11.6 4.66 4.33-9.28 9.26-19.8 7-5.55-1.2-8.09-2.42-8.09-3.9 0-1.75 1.19-2.27 3.75-1.67 1.29.3 1.34.21.35-.65s-.6-1.59 1.39-1.59c.95 0 .53-.3-3.49-2.43-5.66-3-6.57-4.34-4.78-7 1.54-2.3 3.65-2.7 7.12-1.33m-111 10.09c-15.49 2-26.18 22.26-17.9 33.93 4.25 6 12.63 6.94 21 2.35 6.21-3.41 8.43-9.85 4.3-12.47-2.1-1.33-3.89-1-8.66 1.57-2 1.06-3.37 1.15-4.13.25s-1.25-.56 5.42-2.09c10.1-2.3 10.93-2.59 12.78-4.42 2.3-2.27 2.87-4.93 1.95-9-1.57-6.9-7.59-11-14.73-10.12m-49.49.16a9.82 9.82 0 0 0 -7.26 7.18c-.27 1.14-.71 19.32-.8 33.07v6.5l.55 1.12c2.61 5.3 10.85 2.62 13-4.21a16.42 16.42 0 0 0 .37-3.44l.1-2.53 1.62-1.61 1.62-1.61 3.2 4.51c4.17 5.87 4.44 6.09 7.24 6 4.06-.15 7.65-4 7.89-8.56.14-2.63.18-2.56-5.61-10.41a26.1 26.1 0 0 1 -1.67-2.43 34.24 34.24 0 0 1 2.73-3c3.62-3.78 4.44-5.25 4.45-8.05 0-4.16-3.09-6.5-7.17-5.42-1.61.43-2.58 1.25-8.39 7.14l-5.63 5.7v-8-8l-.55-1.12a5.11 5.11 0 0 0 -5.69-2.79m49 12.93c1 .81 1 .81-2.79 1.75-2.26.57-2.33.56-2-.14.9-1.75 3.53-2.64 4.75-1.61m-77.82 6.31c-18.16 3.84-26.56 30.32-11.91 37.6 11.84 5.89 28.26-7.41 28.31-22.93 0-10-7.36-16.58-16.4-14.67m-28.34 7.31a8.22 8.22 0 0 0 -3.91 3.78c-.38.77-.35.75-.79.46-3.91-2.56-10.91-1.57-16.33 2.33-12.43 8.94-14.19 29-3 34.25 5.48 2.57 14.3.38 18.45-4.58l.62-.74.88.87c3.15 3.07 7.36 1.23 8.08-3.53.28-1.79.6-30.1.36-30.93-.61-2.06-2.24-2.78-4.36-1.91m29.18 7.7c1.61.83 2.15 3.56 1.13 5.76-2.12 4.57-7.38 4.32-7.37-.35 0-3.6 3.64-6.76 6.24-5.41m-69.88 2.07a15.92 15.92 0 0 0 -8.91 4.74l-1.37 1.32-.68-.76c-3.17-3.6-7.91-1.14-8.33 4.33-.2 2.54-.57 26.71-.42 27.48 1.09 5.83 8.66 5.73 12.22-.16 1.33-2.18 1.38-2.52 1.63-10.69.33-10.49.41-10.71 4.32-11.32l2.64-.42a9.44 9.44 0 0 0 6.15-4.68c3.27-5.92-.67-11.27-7.25-9.84m-66.31 6c-2.35.41-3.59 1.38-7.53 5.9-7.33 8.37-10.16 11.58-10.23 11.58s-.06-1.74 0-3.88c.05-4.67-.08-5.22-1.69-6.8s-2.85-1.83-6.89-.8c-5.39 1.38-6.27 2.47-5.53 6.82.31 1.88.32 1.24-.09 22.58-.29 14.79-.27 16.35.14 17.43 2.06 5.31 9.88 3.84 12.69-2.39.72-1.62.81-2.36.94-8l.11-5.26 1.16-1.31a7.32 7.32 0 0 1 1.34-1.32c.1 0 2.08 3 4.39 6.74 5.33 8.52 5.57 8.77 8.48 8.75 4.56 0 8.66-4.89 8.38-9.94-.1-1.9-.08-1.87-5.61-10.37-2.68-4.11-4.89-7.53-4.9-7.6s2-2.43 4.46-5.26c5.13-5.86 5.68-6.62 6.33-8.61 1.61-4.95-1.36-9.11-5.93-8.29m39.25 1.4a8.79 8.79 0 0 0 -4.15 3.69l-.51.88a3.67 3.67 0 0 1 -.89-.38c-4.36-2.21-11.08-1-16.19 2.81-12.77 9.63-13.65 30.41-1.46 34.5 5.26 1.77 12 0 16.53-4.39l1.38-1.34.88.85c3 2.93 7.23 1.17 8-3.37.14-.8.49-19 .54-27.48 0-5.22-1.06-6.73-4.13-5.77m56.06.53c3.68 1.53 2.07 8.13-2.22 9.09-1.74.39-3.14-.63-3.58-2.61-.79-3.48 3-7.67 5.8-6.48m-67.9 17.46c1.25.53 1.86 1.82 1.74 3.76-.25 4.25-5 7-7.14 4.15-2.48-3.43 1.64-9.47 5.4-7.91" fill="#fbfbfb"/><path d="m246.56.32c-1.11.68-1.13 2.11-.08 5 .62 1.71 1 2.77 1.71 4.88.19.57.63 1.83 1 2.79.83 2.34 1.3 3.75 1.62 4.75.15.46.54 1.62.88 2.58s.82 2.32 1.05 3c.77 2.26 1 2.9 1.62 4.67.34 1 .7 2 .8 2.33s.6 1.79 1.12 3.25 1.23 3.53 1.59 4.59c.94 2.78.93 2.76 1.58 4.56.7 2 .8 1.8-.84 1.39a12.93 12.93 0 0 0 -16.32 12.8c0 2.83.91 6 1.92 6.75a2.39 2.39 0 0 1 .37.58 15.77 15.77 0 0 0 3.53 3.48l1.25.71a7.23 7.23 0 0 0 2.15.83 2.51 2.51 0 0 1 .67.22 16.23 16.23 0 0 0 5 .29l.91-.19a2.89 2.89 0 0 0 .84-.27 2.47 2.47 0 0 1 .75-.23 3.94 3.94 0 0 0 1.83-.76c0-.07.13-.17.29-.22a6.4 6.4 0 0 0 1.92-1.3 1.88 1.88 0 0 1 .61-.48 1.65 1.65 0 0 0 .58-.54l.65-.79a13.21 13.21 0 0 0 2.56-5.5c.29-2.15 0-6.26-.44-7.17-.12-.21-.49-1.25-.84-2.31s-1.06-3.14-1.59-4.6-1-3-1.16-3.42-.48-1.45-.81-2.31a12.77 12.77 0 0 1 -.6-1.79 11.88 11.88 0 0 0 -.56-1.69c-.47-1.25-1-2.81-1.75-5-.19-.53-1.08-3.13-2.15-6.25-.36-1.05-.82-2.4-1-3l-.72-2.08c-.19-.55-.63-1.79-1-2.76a18.13 18.13 0 0 1 -.64-2 8.12 8.12 0 0 0 -.44-1.33 25.54 25.54 0 0 1 -1.17-3.73c-.11-.56.71-1.46 1.32-1.46.39 0 1.79 2.52 1.79 3.23s.32 1 1.72 1.21 5.41.79 12.2 1.84c4.57.7 5.13.72 5.7.19 1-1 1.12-2 .4-3.92-.88-2.36-1.85-5.19-1.85-5.37 0-1.65-2-3.2-4.05-3.18-.5 0-4.33-.47-16.12-2-5.77-.76-7-.81-7.77-.34m45.83 48.15c-1.53.53-2 1-3.88 3.82-2.09 3.16-2.33 5.3-.39 3.49s3.12-1.86 5.8-.3l1.33.77h2c2 0 3.82-.28 4-.59s-.86-1.63-4-5.3c-1.87-2.18-2.87-2.57-4.88-1.88m4.45 10.1c-.37.46-.15 1 .41 1 .39 0 .51-.08.55-.38s-.22-.87-.55-.87a.68.68 0 0 0 -.41.24m-3.27.83c-.2.52 0 .85.52.85s.49-.06.49-.5-.82-.85-1-.35m2.64 2c-.36.47-.37.62 0 .95s.42.31.68.17a.69.69 0 0 0 0-1.16c-.4-.22-.43-.22-.63 0m-10.49 1.91c-.68 2.88-.29 10.85.81 16.71a20.14 20.14 0 0 1 -.63 10.27 8.13 8.13 0 0 0 -.36 1.33c.16.15 7.57 1.57 8.22 1.57s1.07-2.8 1.42-7.49c.28-3.79.33-3.61-2.07-7.6-1.62-2.69-2.5-5.47-3.77-12-.72-3.67-3-5.43-3.62-2.79m47.71 14.36c0 .06.38 1 .85 2.15 4.9 11.72 5.81 20.48 3.06 29.3a40.88 40.88 0 0 1 -3.3 7.16l-.41.58 1.38 1.5q6.9 7.56 8.16 13.65c.42 2 .3 2.07-1.16.59a14.4 14.4 0 0 0 -6.42-3.75c-1.33-.35-1.37-.26-.33.79 6.25 6.34 9.71 14.6 8.15 19.46-.35 1.09-.51 1-1.62-.79a16.08 16.08 0 0 0 -6.93-6.44c-2-1-2.35-1.07-2.19-.65 3.1 7.84-1.85 11.29-13.3 9.29l-.64-.12 1.65 2c6.67 8 9.79 14.16 8.47 16.72-1.15 2.22-7.05 1.66-14-1.33-1.69-.73-1.7-.66-.16 1.36 7.35 9.66 10.07 18.22 8.37 26.31l-.33 1.61c0 .1.85.15.91.05a1.54 1.54 0 0 1 .76-.09 1.51 1.51 0 0 0 .75-.08 1.06 1.06 0 0 1 .62-.12 3.74 3.74 0 0 0 .62 0 8.06 8.06 0 0 1 1.67-.24 8.59 8.59 0 0 0 1-.1 1.58 1.58 0 0 1 .45 0c.21 0 .38-.05.38-.15s.1-.13.22-.08a2.71 2.71 0 0 0 1-.1c1.11-.27 2-.47 2.61-.59l.83-.17a4.07 4.07 0 0 1 .76-.1c.16 0 .29-.06.29-.15a.17.17 0 0 1 .17-.16c.1 0 .13.08.08.17s0 .12.16.06.25-.15.25-.21.13-.12.29-.13a9.1 9.1 0 0 0 2-.53 9.26 9.26 0 0 1 1.58-.39 3.17 3.17 0 0 0 .94-.24 14 14 0 0 1 2.71-1c0 .06.12 0 .25-.1s.25-.14.26-.06.07 0 .16-.11.16-.18.16 0 .1.15.39-.05.44-.2.5-.14.12 0 .12-.06a4.71 4.71 0 0 1 2-.93c.18 0 .32-.1.32-.18s.05-.12.1-.06a3 3 0 0 0 1.11-.42 6 6 0 0 1 1.32-.53.64.64 0 0 0 .47-.26c.12-.19.16-.19.16 0s.08.15.27 0a4.71 4.71 0 0 1 2-1c.05.06.1 0 .1-.09s.11-.14.25-.09.25 0 .25-.06.3-.32.67-.53.66-.31.66-.25.1 0 .22-.16a.83.83 0 0 1 .46-.33c.26 0 .3-.06 1.64-.91.49-.32.84-.48.77-.37s.34-.13.89-.53a14.66 14.66 0 0 1 3.3-2c.1 0 .23-.08.29-.22s.18-.21.29-.15.15 0 .09-.05a6.08 6.08 0 0 1 2.24-1.59c.08 0 .13 0 .1-.17a.13.13 0 0 1 .17-.16c.12 0 .21 0 .21-.14s.08-.13.17-.07.16 0 .16-.18.09-.24.26-.17.22 0 .17-.05.17-.35.49-.59.58-.4.58-.36.27-.16.59-.47c.95-.93 1.86-1.6 2-1.47s.09 0 .06-.05a6 6 0 0 1 1.28-1.35c.73-.64 1.44-1.3 1.56-1.45s.3-.23.38-.18.13 0 .11 0a32 32 0 0 1 3.93-4c.06 0 .07 0 0 0s1.12-1.49 1.3-1.43.1 0 .05-.1.2-.42.55-.74a2.63 2.63 0 0 0 .6-.65s.2-.36.52-.72.54-.57.48-.46c-.18.36.06.23.26-.14s.15-.33 0-.24 0-.07.22-.3.41-.45.36-.5.07-.17.26-.27.35-.28.35-.39a2.13 2.13 0 0 1 .5-.79l.64-.74c.17-.21-.72-1.49-2.3-3.34a33.74 33.74 0 0 0 -13.17-9c-5.31-2.17-4.6-3.39 2.79-4.74 3.26-.6 3-.46 2.27-1.31-2.83-3.31-7.95-5.76-15.23-7.29-4-.85-4-.92-.43-2.65l2.16-1.05-.83-.37c-.45-.2-1.08-.46-1.41-.58-5.7-2.07-9.78-6.13-11.23-11.16-.53-1.84-.5-1.87.71-.72a8.85 8.85 0 0 0 2.8 2c.12 0-.19-.56-.68-1.24-3-4.24-3.14-10.55-.26-15.89 1.24-2.3 2.39-3.49 5.32-5.54 1.51-1 2.11-.14-6.32-9.67-11-12.48-9.72-11.09-11.41-11.93-1.34-.65-3.09-1.13-3.09-.84m-9.83.78c0 1.5 1.25 2.57 6.92 6 2.5 1.49 2.4.41-.39-4.37-1.41-2.4-1.17-2.26-4.06-2.26h-2.47v.67m35 28c-3.26 1.08-4.28 4.77-1.84 6.65.23.18 2.15 1.24 4.25 2.36s3.89 2.09 4 2.16-.45.22-1.16.34c-1.85.31-1.9.39-.85 1.46s.9 1-.61.63c-2.49-.6-3.86.19-3.51 2 .45 2.43 11.57 4.79 18.09 3.84 8.11-1.18 12.76-4.83 9.46-7.42-.47-.37-13.46-6.93-17.76-9-5.93-2.81-8.46-3.58-10-3.06" fill="#241c24"/><path d="m309.25 29c-.92.08-2.75.3-4.08.49s-3 .43-3.67.51-2 .35-3 .58-2.16.49-2.67.59c-1.21.24-5 1.37-7 2.08-.88.31-1.67.56-1.75.56a71.69 71.69 0 0 0 -7.73 3.29 14 14 0 0 1 -1.53.71c-.12 0-4.8 2.61-5.89 3.29-1.68 1-3.4 2.17-3.95 2.6l-.61.46.35 1c.19.56.61 1.74.93 2.61s.63 1.81.7 2.09.42 1.28.76 2.25l.63 1.75v3.16c0 3.54-.07 4-1.21 6.44a13.12 13.12 0 0 1 -2.42 3.8 19.85 19.85 0 0 1 -3.46 3 7.15 7.15 0 0 0 -1.1.58 15.31 15.31 0 0 1 -14.19 0c-.52-.3-1.05-.59-1.19-.65a13.5 13.5 0 0 1 -1.46-1.13l-1.21-1-.5.94a30.3 30.3 0 0 0 -2.12 3.67.9.9 0 0 1 -.22.44 5.89 5.89 0 0 0 -.56.93 87 87 0 0 0 -5.23 12.42c-1 3-1.52 4.76-1.81 6.07-2 9-2.39 12.43-2.41 19.77v5.43l-.91-.22a19.3 19.3 0 0 0 -5.37 0 28.12 28.12 0 0 0 -4.38 1.39c-.7.37-.69.37-1.18-.68-3.42-7.49-13.88-10-21.68-5.2a20.73 20.73 0 0 0 -4.89 4.23 19.88 19.88 0 0 0 -4.32 11.67c-.08 2-.14 2.32-.35 2.26l-1.67-.53a25.27 25.27 0 0 0 -12.85-.41c-.36.07-.23-.42.59-2.16a10.22 10.22 0 0 0 .6-1.45 7.69 7.69 0 0 1 .51-1.27c.28-.59.68-1.54.89-2.1s.59-1.5.85-2.09.72-1.72 1-2.5.88-2.08 1.23-2.88a12 12 0 0 0 .64-1.63 11.36 11.36 0 0 1 .67-1.6 10.86 10.86 0 0 0 .67-1.6 7.48 7.48 0 0 1 .52-1.28c.29-.6.65-1.47.81-1.93s.53-1.33.82-1.94a7.91 7.91 0 0 0 .51-1.3 6.09 6.09 0 0 1 .48-1.14c3-6.05 4.24-17.27 2.53-23.7a14.9 14.9 0 0 1 -.34-1.55 15.94 15.94 0 0 0 -.74-2.27 28.56 28.56 0 0 0 -8.51-12.34c-2.95-2.67-8.76-5.18-13.67-5.92s-12.63.33-16.25 2.19a1.9 1.9 0 0 1 -.61.22c-.84 0-6.62 3.28-9 5.12a57.59 57.59 0 0 0 -7.77 7.44l-1 1.33a50.67 50.67 0 0 0 -3.88 5.88 5.06 5.06 0 0 1 -.43.82l-.43.73-1.18-.91a8.54 8.54 0 0 0 -1.32-.91 4.57 4.57 0 0 1 -.89-.49 17.77 17.77 0 0 0 -6.75-1.9c-2.5-.16-3.31 0-14.67 2.9-1.14.29-2.72.67-3.5.83s-2 .48-2.84.71l-1.42.4v-2.6a19.41 19.41 0 0 0 -.22-3.52c-.12-.5-.28-1.29-.36-1.76-.66-3.93-4.7-8.8-8.94-10.78-4.87-2.27-12.78-1.63-17 1.38a4.77 4.77 0 0 1 -.81.5c-.56 0-4.13 3.32-6.18 5.75-.54.64-1.59 1.84-2.33 2.67l-1.43 1.51-.9-.89c-4.15-4.09-10.52-5.87-15.66-4.39-.68.19-1.68.43-2.21.52s-1.81.42-2.83.73-2.08.6-2.33.66a17.57 17.57 0 0 0 -2 .85c-6.82 3.25-9.81 9.61-8.28 17.62l.31 1.94-.44 22.39c-.59 30.17-.6 28.31.26 31.8a16.54 16.54 0 0 0 8.8 10.4 7.27 7.27 0 0 1 1.4.77 15.1 15.1 0 0 0 -1.82 1.89l-1.67 1.89-.47-.37a16.69 16.69 0 0 0 -4.42-2.09l-1.59-.33c-5.33-1.14-16.93 2.9-18.41 6.41a7.42 7.42 0 0 1 -.55.8c-1.68 2.21-2.46 6.57-1.82 10.3.24 1.41.25 2.48.08 10.57-.35 16.63-.43 27.89-.19 29.18a19.3 19.3 0 0 0 2 5.25 3.18 3.18 0 0 1 .49.81 20.68 20.68 0 0 0 3.91 3.71 15.59 15.59 0 0 0 14.17 1 17.53 17.53 0 0 0 4.27-2.37l1-.86a34.92 34.92 0 0 0 3.27-3.69l.56-.76.52.4c6.42 4.82 16.06 2.73 22.44-4.87l.59-.69 1.41.47c6.28 2.11 15.44.86 21-2.86a1.43 1.43 0 0 1 1.55-.3 13.71 13.71 0 0 0 11.66-3.55l.69-.65 1.86.21a15.32 15.32 0 0 0 8-1.1 6.54 6.54 0 0 1 1-.4 21.82 21.82 0 0 0 3.2-2.08 25.2 25.2 0 0 0 3.66-3.72 6.73 6.73 0 0 1 .66-.91 2.07 2.07 0 0 0 .43-.68 9.39 9.39 0 0 1 .6-1.17 17.74 17.74 0 0 0 2.14-8.05v-1.62l.54.81c.3.45.64 1 .76 1.21a31.82 31.82 0 0 0 5 4.82c7.42 5 16.87 5 26.3-.09.75-.4 1-.46 1.5-.34a14 14 0 0 0 7.14-.77 5.81 5.81 0 0 1 1.1-.41 7.51 7.51 0 0 0 1.92-1.21.32.32 0 0 1 .28-.12c.5 0 3-2.78 4-4.4l1-1.62.41.28a26.64 26.64 0 0 0 6.39 1.91c8.94 1 17.34-2 24.34-8.79l1.77-1.72.73.55c5.72 4.33 15.45 3 20.9-2.79a14.41 14.41 0 0 0 1.73-2.05c.17-.33.2-.32 1.47.3a16 16 0 0 0 16.88-2.08c.55-.45 3.39-3.36 3.61-3.7l.24-.35 1.28.47a24.4 24.4 0 0 0 9.5 1.15l1.88-.19 1.19 1.31a98.82 98.82 0 0 0 11.24 10.42c2.63 2 4.29 3.17 5.89 4.16.69.42 1.67 1 2.18 1.37a6.81 6.81 0 0 0 1.05.6 7.15 7.15 0 0 1 1.15.67 8.15 8.15 0 0 0 1.15.66 5 5 0 0 1 .93.47 92.08 92.08 0 0 0 14.71 6c.32.07 1.52.4 2.67.72a72.1 72.1 0 0 0 9.25 1.95c.91.09 2.11.24 2.66.33s1.65.2 2.43.27l1.43.11.53-1a10.58 10.58 0 0 0 .21-9.3c-1.05-2.26-2.61-2.29-4.25-.09-.8 1.07-.7 1.15-2.12-1.79a56.82 56.82 0 0 1 -4.38-12.9c-1.14-5.33-1.15-5.48-1.18-18.12-.06-21.29-.71-23.79-8.65-33.11a141.39 141.39 0 0 0 -17.55-16.45c-2.36-1.79-2.53-2.34-4-12.44-.42-2.82.78-3.28 6-2.27 9.69 1.89 8.78 1.84 9.41.55 1-2 1.42-6.67.86-9.34-2-9.58-1.45-24 1.12-28.31 2.92-4.87 4.82-6.38 8-6.38h1.85l1 .65c1.15.8 2.72 2.56 5.53 6.24 9 11.73 13.77 17.34 16.31 19.11 3.64 2.54 4.58 2.72 12.08 2.36 7-.34 7.18-.2 24.75 20.14 5.48 6.34 3.95 5.2 13.67 10.17 16.58 8.48 20.47 10.62 21.68 12 2.39 2.65.73 5.72-4.93 9.13-3.79 2.28-6.55 3.16-12.81 4.08-.56.09-.56.09 1.12 1.23 3.43 2.32 6.37 4.95 7.34 6.55.51.85.45.87-1.4.58-.87-.13-1.59-.23-1.59-.21s.79.69 1.75 1.49c3.43 2.84 6.92 6.69 8.17 9 .59 1.1.61 1.07-.89 1.21s-1.62.18.51 1.58c1 .68 1.94 1.32 2.05 1.42s.44-.32 1.19-1.83c1.37-2.73 2.39-4.92 2.39-5.1a9.82 9.82 0 0 1 .51-1.29 49.94 49.94 0 0 0 1.77-4.8c.15-.46.53-1.62.84-2.59a23.54 23.54 0 0 0 .71-2.5c.08-.41.4-1.83.72-3.16s.72-3.21.87-4.17.43-2.69.61-3.83a134.62 134.62 0 0 0 .23-19 89 89 0 0 0 -4.3-19.23c-.27-.74-.54-1.56-.61-1.84a90.67 90.67 0 0 0 -6.37-13.23 1.65 1.65 0 0 1 -.31-.52 66.1 66.1 0 0 0 -3.62-5.6 39.26 39.26 0 0 0 -2.62-3.38.77.77 0 0 1 -.26-.44.31.31 0 0 0 -.13-.27 19.43 19.43 0 0 1 -1.4-1.56 85 85 0 0 0 -11.48-11.12c-.53-.41-1.24-1-1.59-1.29a3.44 3.44 0 0 0 -.75-.54 4.5 4.5 0 0 1 -.9-.65c-.43-.35-1.3-1-1.95-1.41s-1.46-1-1.83-1.23-1.15-.75-1.75-1.1l-2-1.19c-.5-.31-1.5-.86-2.22-1.24l-1.58-.85c-.56-.32-4.47-2.14-5.28-2.46l-2.34-1a20.86 20.86 0 0 0 -2-.76c-.27-.07-1.13-.35-1.91-.62-2-.71-5.87-1.87-6.2-1.87-.15 0-1.35-.26-2.67-.58s-3-.65-3.72-.74-2.34-.32-3.58-.5a93.63 93.63 0 0 0 -17.25-.47m-18.46 25.45a1.88 1.88 0 0 0 .67 0c.16 0 0-.08-.38-.07s-.49 0-.29.07m3.86 5.38a.63.63 0 0 1 -.48.52c-.37.1-.38.12-.06.13a.64.64 0 0 0 .68-.76c-.05-.23-.08-.21-.14.11m-134.48 4.41c9.26 1.42 15.49 9.51 15.5 20.13 0 4.86-.8 8.33-3.29 14.3-.59 1.42-1.33 3.18-1.63 3.91s-.85 2-1.21 2.92-1.56 3.76-2.67 6.42c-6.44 15.53-6.24 15.12-8.44 17.39-8.27 8.53-20 .44-13.78-9.49l1-1.57-1.11-.12a21.51 21.51 0 0 1 -5.4-1c-12.24-4.09-16.49-18.51-9.75-33.08 6.11-13.2 19.16-21.61 30.79-19.84m125.06 3.59c0 1 0 1.36.06.88a17 17 0 0 0 0-1.75c0-.48-.06-.09-.06.87m-211.67.68c6.07.87 8.09 8.69 3.88 15-.48.71-10 11.81-13 15.13l-.37.41 2.72 4.17c1.5 2.29 3.33 5.1 4.06 6.25s2.21 3.4 3.25 5c3.56 5.44 3.82 5.88 4.24 7 2.84 7.51-5.61 17.8-13.16 16-2.6-.61-3-1.11-8.32-9.67-1.22-2-7-11.22-7.24-11.54s-.4-.06-2 1.68l-1.76 2-.17 7.49c-.19 8.28-.26 8.85-1.39 11.09-4.57 9.09-16.11 10.15-17.7 1.63-.19-1-.18-1.69.41-39 .19-11.91.19-12.52-.11-14.5-1-6.4.15-7.87 7.5-9.75 5.3-1.33 7.59-1.07 9.78 1.13 2 2 2.24 3.17 2.18 9.66v5.24l.39-.41c.22-.23 1.93-2.18 3.8-4.33 13.89-16 14.81-17 16.41-18a14.39 14.39 0 0 1 4.38-1.67l1-.15s.6.06 1.23.15m181.55 1.51a1.83 1.83 0 0 0 .66 0c.16 0 0-.08-.37-.07s-.5 0-.29.07m30.57 5c0 .32 0 .45.08.29a1.42 1.42 0 0 0 0-.58c0-.16-.08 0-.08.29m47.63 2.48c0 .08.19.1.42.06a.9.9 0 0 0 .42-.14s-.19-.07-.42-.07-.42.07-.42.15m-9.76.26a1.39 1.39 0 0 0 0 .62c.06.3.08.27.09-.14s.09-.54.57-.6l.54-.07h-.55c-.34 0-.58.06-.63.21m3.56-.12a4.18 4.18 0 0 0 1 0c.25 0 0-.07-.55-.07s-.75 0-.45.07m-40.24 6.55c0 .68 0 1 .06.62a6.53 6.53 0 0 0 0-1.25c0-.34-.06-.06-.06.63m-174.4-.19c9.37 2.6 5 18.45-5.73 20.82-1.26.28-2.16.5-7.45 1.85-13.45 3.42-14.48 3.61-16.33 3.06-6.64-2-7-11.75-.57-17.71 1.87-1.74 3.39-2.43 7.82-3.51 3.48-.86 5.15-1.27 9.75-2.44l3.75-.92c.73-.17 2.16-.53 3.17-.8a12.9 12.9 0 0 1 5.59-.35m182.7 1.25c0 .37 0 .5.08.29a2.12 2.12 0 0 0 0-.67c0-.16-.07 0-.07.38m-144.22-.03c-6.4 1.44-7.18 12.63-.83 11.87 3.94-.48 6.93-5.24 5.76-9.19-.68-2.28-2.44-3.24-4.93-2.68m187.89 12.2c0 .46 0 .62.07.37a2.88 2.88 0 0 0 0-.83c0-.21-.07 0-.07.46m0 2.91c0 .51 0 .71.07.46a3.47 3.47 0 0 0 0-.91c0-.26-.07 0-.07.45m20.66 5.79a3.54 3.54 0 0 0 .92 0c.25 0 0-.07-.46-.07s-.71 0-.46.07m-4.16 4.13c0 .37 0 .5.07.29a1.88 1.88 0 0 0 0-.67c0-.16-.08 0-.07.38m-232.39 4.25a22.59 22.59 0 0 0 2.06 3.65 4.91 4.91 0 0 1 .48.71 36.15 36.15 0 0 0 3.78 4.25c.94.79 2.14 1.76 2.69 2.18a27.7 27.7 0 0 0 3.99 2.31c.63.27.63.27.63 1.29a12.41 12.41 0 0 0 .26 2.19c.14.65.32 1.52.4 1.95a20.37 20.37 0 0 0 2.15 4.58 3.86 3.86 0 0 1 .51.71 8 8 0 0 0 .79 1 3 3 0 0 1 .53.66l-3.39.07c-5.26.08-10.79 1.69-13.85 4a2.32 2.32 0 0 1 -.64.4 37.34 37.34 0 0 0 -4.22 3.22l-1 .94-1-.43a18.2 18.2 0 0 0 -9.29-1.41l-2.22.34a26 26 0 0 0 -8.5 3.3c-.55.4-.59.4-2.1.22a14.67 14.67 0 0 0 -4.85.3 13.71 13.71 0 0 0 -5 2.37l-1.1.82h-1.84c-3.16 0-7.21 1.33-8.79 2.89-.39.39-.45.39-3.73.4-3.57 0-4.68.16-6.94.95a9.2 9.2 0 0 1 -1.45.42 8.85 8.85 0 0 0 -1.63.67 15.78 15.78 0 0 1 -1.48.67 7.4 7.4 0 0 0 -1.12.59c-.78.45-1 .54-1.14.37-1.8-3.12-3.94-5.45-5.88-6.39-1.34-.65-1.41-.42.81-2.64a22.76 22.76 0 0 0 5.49-8l.29-.78 1.69 1.7c7.52 7.57 20 6.09 27.54-3.26.54-.67 1.12-1.36 1.28-1.54a1.17 1.17 0 0 0 .29-.47 2.46 2.46 0 0 1 .4-.68c2.9-3.84 4.29-12.6 2.67-16.82-.07-.19.44-.36 2.21-.79 2-.48 3.85-.93 8.64-2.16l2.83-.7c.82-.19 2.47-.6 3.67-.9s2.58-.64 3.08-.75c4.19-.92 8.86-3.08 10.41-4.81l.33-.37.28.63c.15.36.58 1.28 1 2.06m223.92-.92c0 .74 0 1 .07.62a8.39 8.39 0 0 0 0-1.33c0-.34-.06 0-.06.71m-91.19 3.51c6.82.95 11 5.61 11.51 12.85a7.14 7.14 0 0 1 -2.32 6.27c-1.85 1.83-2.68 2.12-12.78 4.42-6.67 1.53-6.08 1.3-5.42 2.09s2.16.81 4.13-.25c4.77-2.57 6.56-2.9 8.66-1.57 4.13 2.62 1.91 9.06-4.3 12.47-13.84 7.61-26-.52-23.47-15.71 1.95-11.77 13.85-22 24-20.57m78.49.49a5 5 0 0 0 .73.67s-.21-.3-.56-.67a4.39 4.39 0 0 0 -.74-.67 3.15 3.15 0 0 0 .57.67m-128.53 0a4.58 4.58 0 0 1 2.65 2.5l.55 1.12v8 8l5.63-5.7c5.81-5.89 6.78-6.71 8.39-7.14 4.08-1.08 7.18 1.26 7.17 5.42 0 2.8-.83 4.27-4.45 8.05a34.24 34.24 0 0 0 -2.73 3 26.1 26.1 0 0 0 1.67 2.43c5.79 7.85 5.75 7.78 5.61 10.41-.24 4.52-3.83 8.41-7.89 8.56-2.8.1-3.07-.12-7.24-6l-3.2-4.51-1.62 1.61-1.62 1.61-.1 2.53a16.42 16.42 0 0 1 -.37 3.44c-2.1 6.83-10.34 9.51-13 4.21l-.55-1.12v-6.5c.09-13.75.53-31.93.8-33.07 1.17-4.93 6.23-8.31 10.3-6.89m181.82 2.79c0 .37 0 .5.08.29a1.66 1.66 0 0 0 0-.67c0-.16-.07 0-.07.38m-41.56-.24c0 .11.05.14.11.08s.42.17.8.51l.67.63-.66-.71c-.67-.72-.92-.86-.92-.51m-97.1 9.87c-1 .43-2.48 2.07-2.17 2.38a42.57 42.57 0 0 0 4.81-1.12c.76-.21.79-.49.11-1.06a2.94 2.94 0 0 0 -2.75-.2m93.27 2.68a9 9 0 0 0 1 .92 5.66 5.66 0 0 0 -.82-.92 9.57 9.57 0 0 0 -1-.91 5.4 5.4 0 0 0 .82.91m-161.17 4.26c11.5 3.92 12.55 20.36 2 31.41-13 13.64-31.06 6.62-28.27-11 2.1-13.27 15.85-23.94 26.27-20.4m-32.77 6.76a3.23 3.23 0 0 1 1.62 2.06c.24.83-.08 29.14-.36 30.93-.72 4.76-4.93 6.6-8.08 3.53l-.88-.87-.62.74c-4.15 5-13 7.15-18.45 4.58-11.19-5.26-9.43-25.31 3-34.25 5.42-3.9 12.42-4.89 16.33-2.33.44.29.41.31.79-.46 1.45-2.9 4.63-4.78 6.65-3.93m191.35 1.6a4.61 4.61 0 0 0 .74.66 3 3 0 0 0 -.57-.66 5 5 0 0 0 -.73-.67s.21.3.56.67m34.22-.18c.18.23.17.29-.08.35s-.27.08 0 .1c.41 0 .51-.24.17-.5s-.26-.2-.07.05m-202.22 6.53c-2.46 1.15-4 5-2.79 7.22 1.89 3.57 7.17 1 7.5-3.62.23-3.17-2-4.87-4.71-3.6m-62.14 2.14c6.5 2.13 3.77 13.11-3.55 14.31l-2.64.42c-3.91.61-4 .83-4.32 11.32-.25 8.17-.3 8.51-1.63 10.69-3.56 5.89-11.13 6-12.22.16-.15-.77.22-24.94.42-27.48.42-5.47 5.16-7.93 8.33-4.33l.68.76 1.37-1.32c4.21-4.07 9.54-5.85 13.56-4.53m271.54 5.38a4 4 0 0 0 .54.54l.54.49-.49-.54c-.45-.5-.59-.62-.59-.49m-339.23.78c2.66 1.16 3.76 4.5 2.64 8-.65 2-1.2 2.75-6.33 8.61-2.47 2.83-4.48 5.2-4.46 5.26s2.22 3.49 4.9 7.6c5.53 8.5 5.51 8.47 5.61 10.37.28 5.05-3.82 9.9-8.38 9.94-2.91 0-3.15-.23-8.48-8.75-2.31-3.71-4.29-6.74-4.39-6.74a7.32 7.32 0 0 0 -1.34 1.32l-1.16 1.31-.11 5.25c-.13 5.63-.22 6.37-.94 8-2.81 6.23-10.63 7.7-12.69 2.39-.41-1.08-.43-2.64-.14-17.43.41-21.34.4-20.7.09-22.58-.74-4.35.14-5.44 5.53-6.82 4-1 5.17-.9 6.89.8s1.74 2.13 1.69 6.8v3.88s2.9-3.21 10.21-11.6c5-5.73 7.51-7 10.82-5.57m38.3 1.07c1.47.61 1.81 1.7 1.79 5.77 0 8.46-.4 26.68-.54 27.48-.77 4.54-5 6.3-8 3.37l-.88-.85-1.34 1.29c-4.56 4.37-11.27 6.16-16.53 4.39-12.19-4.09-11.31-24.87 1.46-34.5 5.11-3.85 11.83-5 16.19-2.81a3.67 3.67 0 0 0 .89.38l.51-.88c1.61-2.8 4.58-4.49 6.49-3.69m51.36.6a6.21 6.21 0 0 0 -3.44 6.41c.73 3.3 4.27 3.63 6.56.61 2.83-3.71.69-8.51-3.12-7m196 .83c.14.28.29.5.34.5s0-.22-.18-.5-.29-.5-.34-.5 0 .23.18.5m55.57 1.53c-.3.31-.44.63-.29.63a2.85 2.85 0 0 0 .42-.5c.43-.58.36-.66-.13-.13m-2.34 3a2.56 2.56 0 0 0 -.45.67 3.34 3.34 0 0 0 .61-.67 2.44 2.44 0 0 0 .45-.66 3.47 3.47 0 0 0 -.61.66m-1.95 2.29a99 99 0 0 1 -8.05 7.85c-2.35 2-2.75 2.36-2.52 2.36a.42.42 0 0 0 .3-.21c.07-.11 1-1 2.13-1.87 2.95-2.45 10-9.58 9.53-9.58a18.17 18.17 0 0 0 -1.39 1.45m-315.8 9.94a6.14 6.14 0 0 0 -3.08 6.24c.63 2.95 3.62 3.6 5.93 1.28 3.76-3.76 1.55-9.58-2.85-7.52m304.41.63c-.23.19-.56.45-.74.57s-.28.27-.23.32.42-.21.82-.57c.77-.69.88-.92.15-.32m-1.73 1.27a8.16 8.16 0 0 1 -1.26 1 11.24 11.24 0 0 0 -1.36 1c-.11.13.33-.12 1-.56 1.79-1.24 2-1.38 1.86-1.48s-.15 0-.21.07m-3.62 2.49c-.23.18-.9.62-1.5 1a14.11 14.11 0 0 0 -1.5 1l-.42.35.42-.26 1.67-1c1.5-.92 1.91-1.22 1.81-1.32s-.25.08-.48.26m-4.53 2.78c-.88.58-1.54 1.1-1 .78a15.8 15.8 0 0 0 2-1.34c0-.11 0-.11-1 .56m-2.68 1.46c-.62.34-.58.48 0 .16a1.61 1.61 0 0 0 .5-.34c0-.11 0-.1-.54.18m-31.23 2.74c0 1.15 0 1.62.06 1a18 18 0 0 0 0-2.08c0-.58-.06-.11-.06 1m28.77-1.45a2.27 2.27 0 0 0 -.62.41c0 .05.3-.07.66-.25a2.6 2.6 0 0 0 .67-.42c0-.11 0-.11-.71.26m-2.75 1.27a3 3 0 0 0 -.83.49 6.39 6.39 0 0 0 1.79-.85c0-.11.05-.13-1 .36m-3.12 1.29c-1.1.53-.88.55.27 0 .49-.22.82-.41.73-.41a4.4 4.4 0 0 0 -1 .39m-3.8 1.38a3.88 3.88 0 0 0 -1.07.49 8.81 8.81 0 0 0 2.19-.8c.22-.19.15-.18-1.12.31m-4.42 1.33c-.4.14-.69.28-.65.32a3.25 3.25 0 0 0 1-.25c.5-.18.79-.33.66-.33a5.3 5.3 0 0 0 -1 .26m-25.17 3.2a1.42 1.42 0 0 0 .58 0c.17 0 0-.08-.29-.08s-.45 0-.29.08" fill="#24449c"/></g></svg>